<?xml version="1.0" encoding="UTF-8"?>
<svg version="1.1" xmlns="http://www.w3.org/2000/svg" width="249" height="88">
<path d="M0 0 C1.31419922 -0.020625 2.62839844 -0.04125 3.98242188 -0.0625 C5.23474609 -0.06765625 6.48707031 -0.0728125 7.77734375 -0.078125 C8.93355225 -0.0874707 10.08976074 -0.09681641 11.28100586 -0.10644531 C12.19889893 0.01118164 13.11679199 0.12880859 14.0625 0.25 C16.16459857 3.40314785 16.3059761 4.11103081 16.2578125 7.69921875 C16.25136719 8.54677734 16.24492187 9.39433594 16.23828125 10.26757812 C16.22152344 11.14865234 16.20476562 12.02972656 16.1875 12.9375 C16.17847656 13.83017578 16.16945312 14.72285156 16.16015625 15.64257812 C16.13659915 17.84516666 16.10072844 20.04761725 16.0625 22.25 C11.4425 22.25 6.8225 22.25 2.0625 22.25 C2.0625 18.62 2.0625 14.99 2.0625 11.25 C1.0725 11.745 1.0725 11.745 0.0625 12.25 C-0.40501788 14.60599235 -0.40501788 14.60599235 -0.5625 17.3125 C-0.63726562 18.23160156 -0.71203125 19.15070312 -0.7890625 20.09765625 C-0.83804688 20.80792969 -0.88703125 21.51820312 -0.9375 22.25 C-0.21949219 22.5078125 0.49851563 22.765625 1.23828125 23.03125 C4.21800958 24.31710787 6.61185121 25.86617817 9.25 27.75 C10.10980469 28.3584375 10.96960938 28.966875 11.85546875 29.59375 C15.98014972 32.6890858 15.98014972 32.6890858 16.4765625 36.0703125 C16.58097656 37.70613281 16.58097656 37.70613281 16.6875 39.375 C16.76226562 40.47070312 16.83703125 41.56640625 16.9140625 42.6953125 C16.96304688 43.53835937 17.01203125 44.38140625 17.0625 45.25 C17.20872803 43.95787598 17.35495605 42.66575195 17.50561523 41.33447266 C18.04785558 36.55196865 18.5950657 31.77004428 19.14379883 26.98828125 C19.3808388 24.91649662 19.61652091 22.84455618 19.85083008 20.77246094 C20.18736741 17.79841007 20.5287441 14.82494918 20.87109375 11.8515625 C21.02740517 10.45618759 21.02740517 10.45618759 21.18687439 9.03262329 C21.28690262 8.17188202 21.38693085 7.31114075 21.48999023 6.42431641 C21.57659409 5.66486725 21.66319794 4.90541809 21.75242615 4.12295532 C22.0625 2.25 22.0625 2.25 23.0625 0.25 C29.3325 0.25 35.6025 0.25 42.0625 0.25 C44.21807151 19.23737456 46.18756298 38.23278165 48.0625 57.25 C48.3925 38.44 48.7225 19.63 49.0625 0.25 C58.9625 0.25 68.8625 0.25 79.0625 0.25 C81.00482848 4.13465695 81.31994933 5.54093695 81.35302734 9.68945312 C81.36578705 10.77738159 81.37854675 11.86531006 81.39169312 12.98620605 C81.39391876 14.15607056 81.39614441 15.32593506 81.3984375 16.53125 C81.4084227 18.33970398 81.4084227 18.33970398 81.41860962 20.18469238 C81.42873297 22.73330153 81.43342674 25.28193717 81.43310547 27.83056641 C81.43748334 31.73514235 81.47382174 35.63859245 81.51171875 39.54296875 C81.5175859 42.0182253 81.52155597 44.49348722 81.5234375 46.96875 C81.53780853 48.1386145 81.55217957 49.308479 81.56698608 50.51379395 C81.56083282 51.60172241 81.55467957 52.68965088 81.54833984 53.81054688 C81.55118988 54.7666687 81.55403992 55.72279053 81.55697632 56.70788574 C80.89798907 60.09575454 79.85098676 61.24482943 77.0625 63.25 C74.26568604 63.73101807 74.26568604 63.73101807 71.00878906 63.70410156 C69.78782532 63.70379944 68.56686157 63.70349731 67.30889893 63.70318604 C65.99524353 63.68254089 64.68158813 63.66189575 63.328125 63.640625 C61.96621532 63.63316087 60.60429488 63.62746874 59.24237061 63.62347412 C55.66479632 63.60823092 52.08787578 63.56896181 48.51055908 63.5246582 C44.85738976 63.48367632 41.20411438 63.46545697 37.55078125 63.4453125 C30.3877234 63.4024651 23.22520344 63.33423115 16.0625 63.25 C15.7325 62.59 15.4025 61.93 15.0625 61.25 C14.0725 61.91 13.0825 62.57 12.0625 63.25 C8.09770887 63.68905798 4.11144867 63.5741631 0.125 63.5625 C-0.97263672 63.57861328 -2.07027344 63.59472656 -3.20117188 63.61132812 C-4.25755859 63.61197266 -5.31394531 63.61261719 -6.40234375 63.61328125 C-7.367771 63.61626221 -8.33319824 63.61924316 -9.32788086 63.62231445 C-12.44463503 63.17764703 -13.79609074 62.55929575 -15.9375 60.25 C-16.39160156 57.7980957 -16.39160156 57.7980957 -16.328125 54.92578125 C-16.31523437 53.89775391 -16.30234375 52.86972656 -16.2890625 51.81054688 C-16.25554687 50.73869141 -16.22203125 49.66683594 -16.1875 48.5625 C-16.16945312 47.47904297 -16.15140625 46.39558594 -16.1328125 45.27929688 C-16.08564407 42.60248842 -16.01390033 39.92613366 -15.9375 37.25 C-10.9875 37.25 -6.0375 37.25 -0.9375 37.25 C-0.2775 38.57 0.3825 39.89 1.0625 41.25 C0.81586809 39.31192505 0.81586809 39.31192505 0.0625 37.25 C-2.45409491 35.65567166 -4.84318902 34.30781944 -7.5 33 C-8.21091797 32.63648438 -8.92183594 32.27296875 -9.65429688 31.8984375 C-11.40915376 31.00334271 -13.1725565 30.12503818 -14.9375 29.25 C-14.96215881 25.28069011 -14.98034023 21.31140966 -14.99243164 17.34204102 C-14.99747057 15.99079614 -15.00430177 14.63955674 -15.01293945 13.28833008 C-15.02502419 11.34979566 -15.03019828 9.411222 -15.03515625 7.47265625 C-15.04039307 6.30484619 -15.04562988 5.13703613 -15.05102539 3.93383789 C-14.77563212 -2.57669595 -4.97488166 0.01946164 0 0 Z M63.0625 12.25 C63.0625 21.49 63.0625 30.73 63.0625 40.25 C64.0525 40.25 65.0425 40.25 66.0625 40.25 C66.0625 31.01 66.0625 21.77 66.0625 12.25 C65.0725 12.25 64.0825 12.25 63.0625 12.25 Z M31.0625 29.25 C30.7325 32.88 30.4025 36.51 30.0625 40.25 C31.3825 40.25 32.7025 40.25 34.0625 40.25 C33.94840407 38.79077307 33.82084456 37.33259402 33.6875 35.875 C33.61789063 35.06289063 33.54828125 34.25078125 33.4765625 33.4140625 C33.23357412 31.04665809 33.23357412 31.04665809 31.0625 29.25 Z " fill="#FDB827" transform="translate(167.9375,-0.25)"/>
<path d="M0 0 C1.93715881 -0.01418472 1.93715881 -0.01418472 3.91345215 -0.02865601 C5.32446601 -0.02328632 6.73547707 -0.01713338 8.14648438 -0.01025391 C9.59232734 -0.01227476 11.03816931 -0.01518629 12.48400879 -0.01895142 C15.51368925 -0.0233743 18.5431043 -0.01694517 21.57275391 -0.00292969 C25.45686213 0.01416255 29.34034849 0.00432112 33.2244339 -0.01364708 C36.20986621 -0.0244861 39.19515102 -0.02103811 42.18058777 -0.0132637 C43.61272759 -0.011262 45.0448808 -0.01371993 46.477005 -0.02070236 C48.47815699 -0.02831785 50.47935592 -0.01465302 52.48046875 0 C53.61947632 0.00238678 54.75848389 0.00477356 55.93200684 0.00723267 C58.74023438 0.38818359 58.74023438 0.38818359 60.56896973 1.72494507 C62.7614677 4.83837217 62.87295055 7.65093274 62.90136719 11.33105469 C62.91097473 12.33574799 62.92058228 13.34044128 62.93048096 14.37557983 C62.93473083 15.45997345 62.93898071 16.54436707 62.94335938 17.66162109 C62.94905945 18.77751617 62.95475952 19.89341125 62.96063232 21.04312134 C62.97008271 23.40520275 62.97661646 25.76729735 62.98046875 28.12939453 C62.99017727 31.7419331 63.0212022 35.3539035 63.05273438 38.96630859 C63.05926419 41.26057605 63.06451474 43.55484757 63.06835938 45.84912109 C63.08070618 46.92946625 63.09305298 48.0098114 63.10577393 49.12289429 C63.07776612 58.55804597 63.07776612 58.55804597 59.74023438 62.38818359 C57.01754556 63.749528 54.84146325 63.53797444 51.79345703 63.56518555 C50.54521149 63.57802078 49.29696594 63.59085602 48.01089478 63.6040802 C46.64203283 63.61224697 45.27316642 63.61969082 43.90429688 63.62646484 C42.87195986 63.63257813 42.87195986 63.63257813 41.81876755 63.63881493 C38.17670746 63.6596723 34.53468502 63.67397592 30.89257812 63.68334961 C27.13067738 63.6944191 23.36936735 63.72882512 19.60767555 63.76852131 C16.71488341 63.79466318 13.82223261 63.80303917 10.92933273 63.80663109 C9.54263693 63.81150271 8.15594769 63.82313328 6.76936722 63.84166908 C4.82832319 63.86600588 2.88699209 63.86268109 0.94580078 63.8581543 C-0.1584726 63.86402054 -1.26274597 63.86988678 -2.40048218 63.87593079 C-5.99872833 63.26212859 -7.15940226 62.34966299 -9.25976562 59.38818359 C-9.76097107 56.80137634 -9.76097107 56.80137634 -9.76147461 53.84106445 C-9.77085556 52.72988754 -9.78023651 51.61871063 -9.78990173 50.47386169 C-9.77866776 49.27898636 -9.76743378 48.08411102 -9.75585938 46.85302734 C-9.75731461 45.62282364 -9.75876984 44.39261993 -9.76026917 43.12513733 C-9.75860943 40.52521394 -9.74703999 37.9252808 -9.72631836 35.32543945 C-9.70693044 32.65625994 -9.69660634 29.98953358 -9.70581055 27.32055664 C-9.71837669 23.47697805 -9.70974936 19.63408114 -9.69335938 15.79052734 C-9.69629501 14.59362778 -9.69923065 13.39672821 -9.70225525 12.16355896 C-9.68322899 10.50152184 -9.68322899 10.50152184 -9.66381836 8.8059082 C-9.65841537 7.82980087 -9.65301239 6.85369354 -9.64744568 5.8480072 C-9.25976562 3.38818359 -9.25976562 3.38818359 -8.12574768 1.57383728 C-5.39274727 -0.16272391 -3.22284476 0.00675344 0 0 Z " fill="#477A93" transform="translate(9.259765625,-0.38818359375)"/>
<path d="M0 0 C1.93715881 -0.01418472 1.93715881 -0.01418472 3.91345215 -0.02865601 C5.32446601 -0.02328632 6.73547707 -0.01713338 8.14648438 -0.01025391 C9.59232734 -0.01227476 11.03816931 -0.01518629 12.48400879 -0.01895142 C15.51368925 -0.0233743 18.5431043 -0.01694517 21.57275391 -0.00292969 C25.45686213 0.01416255 29.34034849 0.00432112 33.2244339 -0.01364708 C36.20986621 -0.0244861 39.19515102 -0.02103811 42.18058777 -0.0132637 C43.61272759 -0.011262 45.0448808 -0.01371993 46.477005 -0.02070236 C48.47815699 -0.02831785 50.47935592 -0.01465302 52.48046875 0 C53.61947632 0.00238678 54.75848389 0.00477356 55.93200684 0.00723267 C58.74023438 0.38818359 58.74023438 0.38818359 60.56896973 1.72494507 C62.7614677 4.83837217 62.87295055 7.65093274 62.90136719 11.33105469 C62.91097473 12.33574799 62.92058228 13.34044128 62.93048096 14.37557983 C62.93473083 15.45997345 62.93898071 16.54436707 62.94335938 17.66162109 C62.94905945 18.77751617 62.95475952 19.89341125 62.96063232 21.04312134 C62.97008271 23.40520275 62.97661646 25.76729735 62.98046875 28.12939453 C62.99017727 31.7419331 63.0212022 35.3539035 63.05273438 38.96630859 C63.05926419 41.26057605 63.06451474 43.55484757 63.06835938 45.84912109 C63.08070618 46.92946625 63.09305298 48.0098114 63.10577393 49.12289429 C63.07776612 58.55804597 63.07776612 58.55804597 59.74023438 62.38818359 C57.01754556 63.749528 54.84146325 63.53797444 51.79345703 63.56518555 C50.54521149 63.57802078 49.29696594 63.59085602 48.01089478 63.6040802 C46.64203283 63.61224697 45.27316642 63.61969082 43.90429688 63.62646484 C42.87195986 63.63257813 42.87195986 63.63257813 41.81876755 63.63881493 C38.17670746 63.6596723 34.53468502 63.67397592 30.89257812 63.68334961 C27.13067738 63.6944191 23.36936735 63.72882512 19.60767555 63.76852131 C16.71488341 63.79466318 13.82223261 63.80303917 10.92933273 63.80663109 C9.54263693 63.81150271 8.15594769 63.82313328 6.76936722 63.84166908 C4.82832319 63.86600588 2.88699209 63.86268109 0.94580078 63.8581543 C-0.1584726 63.86402054 -1.26274597 63.86988678 -2.40048218 63.87593079 C-5.99872833 63.26212859 -7.15940226 62.34966299 -9.25976562 59.38818359 C-9.76097107 56.80137634 -9.76097107 56.80137634 -9.76147461 53.84106445 C-9.77085556 52.72988754 -9.78023651 51.61871063 -9.78990173 50.47386169 C-9.77866776 49.27898636 -9.76743378 48.08411102 -9.75585938 46.85302734 C-9.75731461 45.62282364 -9.75876984 44.39261993 -9.76026917 43.12513733 C-9.75860943 40.52521394 -9.74703999 37.9252808 -9.72631836 35.32543945 C-9.70693044 32.65625994 -9.69660634 29.98953358 -9.70581055 27.32055664 C-9.71837669 23.47697805 -9.70974936 19.63408114 -9.69335938 15.79052734 C-9.69629501 14.59362778 -9.69923065 13.39672821 -9.70225525 12.16355896 C-9.68322899 10.50152184 -9.68322899 10.50152184 -9.66381836 8.8059082 C-9.65841537 7.82980087 -9.65301239 6.85369354 -9.64744568 5.8480072 C-9.25976562 3.38818359 -9.25976562 3.38818359 -8.12574768 1.57383728 C-5.39274727 -0.16272391 -3.22284476 0.00675344 0 0 Z M5.86523438 14.26318359 C-0.22933039 21.91320573 -0.5188649 27.46180155 0.02539062 36.96240234 C-0.31596926 41.06339712 -1.29941775 41.73014485 -4.25976562 44.38818359 C-4.88501908 46.56230413 -4.88501908 46.56230413 -4.75976562 48.82568359 C-4.77007812 49.56689453 -4.78039062 50.30810547 -4.79101562 51.07177734 C-3.97761416 54.61844699 -3.02593859 55.94133795 -0.25976562 58.38818359 C3.67848439 59.15647085 7.58273958 59.06419804 11.58398438 59.01708984 C12.74522827 59.0195018 13.90647217 59.02191376 15.10290527 59.0243988 C17.55740779 59.02341956 20.01193219 59.01000782 22.46630859 58.98510742 C26.22634808 58.95081026 29.98403706 58.96444385 33.74414062 58.98388672 C36.12826523 58.97698826 38.51238376 58.96731588 40.89648438 58.95458984 C42.02260132 58.95954971 43.14871826 58.96450958 44.30895996 58.96961975 C45.35684692 58.95378342 46.40473389 58.93794708 47.484375 58.92163086 C48.40496704 58.91543228 49.32555908 58.9092337 50.27404785 58.90284729 C53.50506417 58.22857274 54.69677096 56.92901959 56.74023438 54.38818359 C58.13321776 49.81123818 57.71204265 46.7261618 55.74023438 42.38818359 C54.75023437 41.72818359 53.76023438 41.06818359 52.74023438 40.38818359 C52.62304688 37.26318359 52.62304688 37.26318359 52.86523438 33.38818359 C53.11443308 24.92854349 51.38771563 19.29949713 45.58007812 13.07177734 C38.25127583 6.23237754 32.46369894 4.71527525 22.47460938 5.01708984 C15.16432775 5.74352996 10.78747659 9.01415352 5.86523438 14.26318359 Z " fill="#0366B2" transform="translate(9.259765625,-0.38818359375)"/>
<path d="M0 0 C3.95096978 -0.04939662 7.9018203 -0.08571755 11.85302734 -0.10986328 C13.8591136 -0.12488107 15.86511324 -0.15028981 17.87109375 -0.17578125 C19.12792969 -0.18222656 20.38476562 -0.18867187 21.6796875 -0.1953125 C22.84226074 -0.20578613 24.00483398 -0.21625977 25.20263672 -0.22705078 C28 0 28 0 30 2 C30.22705078 4.06298828 30.22705078 4.06298828 30.1953125 6.5703125 C30.18886719 7.46621094 30.18242187 8.36210937 30.17578125 9.28515625 C30.15902344 10.22230469 30.14226562 11.15945313 30.125 12.125 C30.11597656 13.06988281 30.10695312 14.01476563 30.09765625 14.98828125 C30.07404668 17.32562827 30.03817494 19.66284549 30 22 C25.71 22 21.42 22 17 22 C16.505 17.05 16.505 17.05 16 12 C15.67 12 15.34 12 15 12 C13.95314948 15.64459071 13.70955912 18.39688664 15 22 C16.76103773 23.00513031 18.53377138 23.99739202 20.36889648 24.85986328 C24.27687539 26.72140255 27.49268082 28.37002533 30 32 C31.90097362 40.22988713 32.87869537 54.24260926 29 62 C24.29577569 63.56807477 19.55255019 63.26709874 14.625 63.3125 C13.06265625 63.35600586 13.06265625 63.35600586 11.46875 63.40039062 C7.15384679 63.43625619 3.80975539 63.33238437 -0.20703125 61.68359375 C-3.12842906 57.31104409 -2.52365145 52.86961062 -2.3125 47.75 C-2.28994141 46.71875 -2.26738281 45.6875 -2.24414062 44.625 C-2.18529136 42.08271187 -2.09561262 39.54117107 -2 37 C2.62 36.67 7.24 36.34 12 36 C10.040625 34.865625 8.08125 33.73125 6.0625 32.5625 C0.125 29.125 0.125 29.125 -1 28 C-1.09974389 26.09715013 -1.1308063 24.19061747 -1.1328125 22.28515625 C-1.13410156 21.12435547 -1.13539062 19.96355469 -1.13671875 18.76757812 C-1.13091797 16.93356445 -1.13091797 16.93356445 -1.125 15.0625 C-1.13080078 13.23428711 -1.13080078 13.23428711 -1.13671875 11.36914062 C-1.13542969 10.20705078 -1.13414063 9.04496094 -1.1328125 7.84765625 C-1.13168457 6.77523682 -1.13055664 5.70281738 -1.12939453 4.59790039 C-1 2 -1 2 0 0 Z M14 37 C14 38.65 14 40.3 14 42 C14.66 42 15.32 42 16 42 C16 40.35 16 38.7 16 37 C15.34 37 14.68 37 14 37 Z " fill="#FDB827" transform="translate(120,0)"/>
<path d="M0 0 C6.27 0 12.54 0 19 0 C19.9452121 2.83563629 20.29197041 5.13473379 20.57250977 8.09472656 C20.72255211 9.65214569 20.72255211 9.65214569 20.87562561 11.24102783 C20.97983322 12.3628949 21.08404083 13.48476196 21.19140625 14.640625 C21.35575417 16.37394073 21.35575417 16.37394073 21.52342224 18.14227295 C21.75457665 20.58996502 21.98394401 23.03782641 22.21166992 25.48583984 C22.55984636 29.22152831 22.91524871 32.9564787 23.27148438 36.69140625 C23.49522802 39.0702715 23.71854902 41.44917655 23.94140625 43.828125 C24.04763809 44.94189514 24.15386993 46.05566528 24.26332092 47.20318604 C24.36019699 48.2540741 24.45707306 49.30496216 24.55688477 50.38769531 C24.64269302 51.30464172 24.72850128 52.22158813 24.81690979 53.1663208 C25.02829755 56.43795997 25 59.72153883 25 63 C14.44 63 3.88 63 -7 63 C-6.38352691 51.14690368 -5.24423906 39.42580502 -3.84326172 27.64111328 C-3.49562681 24.71316687 -3.15557715 21.78440654 -2.81640625 18.85546875 C-2.59679283 16.98171937 -2.37675675 15.10801946 -2.15625 13.234375 C-2.05517944 12.3646405 -1.95410889 11.49490601 -1.84997559 10.59881592 C-1.75317505 9.78986877 -1.65637451 8.98092163 -1.55664062 8.14746094 C-1.47305298 7.44071228 -1.38946533 6.73396362 -1.30334473 6.00579834 C-0.99702061 3.98029947 -0.4968418 1.98736719 0 0 Z M9 29 C7.33657163 30.66342837 7.63951903 32.7825709 7.4375 35.0625 C7.35371094 35.98160156 7.26992187 36.90070312 7.18359375 37.84765625 C7.12300781 38.55792969 7.06242187 39.26820312 7 40 C8.32 40 9.64 40 11 40 C10.67 36.37 10.34 32.74 10 29 C9.67 29 9.34 29 9 29 Z " fill="#FDB827" transform="translate(92,0)"/>
<path d="M0 0 C2.3984375 1.5234375 2.3984375 1.5234375 4 3 C3.67 3.33 3.34 3.66 3 4 C3.54269531 4.42410156 4.08539063 4.84820313 4.64453125 5.28515625 C9.28692742 9.09108464 12.38041468 12.02777914 14 18 C14.38869801 22.82882524 14.33307293 27.32349414 13 32 C5.19196105 33.27786205 -2.61362681 33.11158147 -10.5 33.0625 C-11.90885258 33.05747533 -13.31770689 33.05291413 -14.7265625 33.04882812 C-18.15108638 33.0371003 -21.57552047 33.02068691 -25 33 C-26.70656894 28.98331946 -27.48898407 25.34363544 -28 21 C-27.67 24.63 -27.34 28.26 -27 32 C-29 31 -29 31 -29.6015625 29.1953125 C-31.08973237 20.99578831 -29.65038719 14.96947791 -25 8 C-23.09665968 5.86193139 -21.42683728 4.63440062 -19 3 C-18.154375 2.401875 -17.30875 1.80375 -16.4375 1.1875 C-11.10090739 -0.65605018 -5.58535965 -0.73605515 0 0 Z " fill="#FBB728" transform="translate(42,8)"/>
<path d="M0 0 C1.93715881 -0.01418472 1.93715881 -0.01418472 3.91345215 -0.02865601 C5.32446601 -0.02328632 6.73547707 -0.01713338 8.14648438 -0.01025391 C9.59232734 -0.01227476 11.03816931 -0.01518629 12.48400879 -0.01895142 C15.51368925 -0.0233743 18.5431043 -0.01694517 21.57275391 -0.00292969 C25.45686213 0.01416255 29.34034849 0.00432112 33.2244339 -0.01364708 C36.20986621 -0.0244861 39.19515102 -0.02103811 42.18058777 -0.0132637 C43.61272759 -0.011262 45.0448808 -0.01371993 46.477005 -0.02070236 C48.47815699 -0.02831785 50.47935592 -0.01465302 52.48046875 0 C53.61947632 0.00238678 54.75848389 0.00477356 55.93200684 0.00723267 C58.74023438 0.38818359 58.74023438 0.38818359 60.56896973 1.72494507 C62.7614677 4.83837217 62.87295055 7.65093274 62.90136719 11.33105469 C62.91097473 12.33574799 62.92058228 13.34044128 62.93048096 14.37557983 C62.93473083 15.45997345 62.93898071 16.54436707 62.94335938 17.66162109 C62.94905945 18.77751617 62.95475952 19.89341125 62.96063232 21.04312134 C62.97008271 23.40520275 62.97661646 25.76729735 62.98046875 28.12939453 C62.99017727 31.7419331 63.0212022 35.3539035 63.05273438 38.96630859 C63.05926419 41.26057605 63.06451474 43.55484757 63.06835938 45.84912109 C63.08070618 46.92946625 63.09305298 48.0098114 63.10577393 49.12289429 C63.07776612 58.55804597 63.07776612 58.55804597 59.74023438 62.38818359 C57.01754556 63.749528 54.84146325 63.53797444 51.79345703 63.56518555 C50.54521149 63.57802078 49.29696594 63.59085602 48.01089478 63.6040802 C46.64203283 63.61224697 45.27316642 63.61969082 43.90429688 63.62646484 C42.87195986 63.63257813 42.87195986 63.63257813 41.81876755 63.63881493 C38.17670746 63.6596723 34.53468502 63.67397592 30.89257812 63.68334961 C27.13067738 63.6944191 23.36936735 63.72882512 19.60767555 63.76852131 C16.71488341 63.79466318 13.82223261 63.80303917 10.92933273 63.80663109 C9.54263693 63.81150271 8.15594769 63.82313328 6.76936722 63.84166908 C4.82832319 63.86600588 2.88699209 63.86268109 0.94580078 63.8581543 C-0.1584726 63.86402054 -1.26274597 63.86988678 -2.40048218 63.87593079 C-5.99872833 63.26212859 -7.15940226 62.34966299 -9.25976562 59.38818359 C-9.76097107 56.80137634 -9.76097107 56.80137634 -9.76147461 53.84106445 C-9.77085556 52.72988754 -9.78023651 51.61871063 -9.78990173 50.47386169 C-9.77866776 49.27898636 -9.76743378 48.08411102 -9.75585938 46.85302734 C-9.75731461 45.62282364 -9.75876984 44.39261993 -9.76026917 43.12513733 C-9.75860943 40.52521394 -9.74703999 37.9252808 -9.72631836 35.32543945 C-9.70693044 32.65625994 -9.69660634 29.98953358 -9.70581055 27.32055664 C-9.71837669 23.47697805 -9.70974936 19.63408114 -9.69335938 15.79052734 C-9.69629501 14.59362778 -9.69923065 13.39672821 -9.70225525 12.16355896 C-9.68322899 10.50152184 -9.68322899 10.50152184 -9.66381836 8.8059082 C-9.65841537 7.82980087 -9.65301239 6.85369354 -9.64744568 5.8480072 C-9.25976562 3.38818359 -9.25976562 3.38818359 -8.12574768 1.57383728 C-5.39274727 -0.16272391 -3.22284476 0.00675344 0 0 Z M-6.25976562 5.38818359 C-6.56595856 7.6782841 -6.56595856 7.6782841 -6.51855469 10.35693359 C-6.52485901 11.39140625 -6.53116333 12.42587891 -6.53765869 13.49169922 C-6.53361023 14.61253906 -6.52956177 15.73337891 -6.52539062 16.88818359 C-6.52730408 18.03480469 -6.52921753 19.18142578 -6.53118896 20.36279297 C-6.53255184 22.79052957 -6.5288483 25.21827343 -6.52050781 27.64599609 C-6.50981 31.37272432 -6.52039994 35.09897045 -6.53320312 38.82568359 C-6.53188155 41.17985133 -6.5293192 43.53401876 -6.52539062 45.88818359 C-6.52943909 47.00902344 -6.53348755 48.12986328 -6.53765869 49.28466797 C-6.53135437 50.31914063 -6.52505005 51.35361328 -6.51855469 52.41943359 C-6.5169635 53.33273438 -6.51537231 54.24603516 -6.51373291 55.18701172 C-6.4668658 57.59534986 -6.4668658 57.59534986 -4.25976562 59.38818359 C-1.54805526 59.68159479 -1.54805526 59.68159479 1.65869141 59.61523438 C2.89982697 59.61508331 4.14096252 59.61493225 5.41970825 59.61477661 C6.77915608 59.60456259 8.13860228 59.59413059 9.49804688 59.58349609 C10.88524167 59.57976644 12.27243909 59.57691924 13.65963745 59.57492065 C17.31263488 59.56728043 20.96547355 59.54762875 24.6184082 59.5255127 C28.34519299 59.50506256 32.07200341 59.49592073 35.79882812 59.48583984 C43.11270263 59.4643831 50.42644627 59.43024262 57.74023438 59.38818359 C58.98600094 56.89665046 58.87386407 55.20691559 58.88549805 52.41943359 C58.8918779 51.38496094 58.89825775 50.35048828 58.90483093 49.28466797 C58.90594376 48.16382813 58.90705658 47.04298828 58.90820312 45.88818359 C58.91153152 44.7415625 58.91485992 43.59494141 58.91828918 42.41357422 C58.92335866 39.98584393 58.9256975 37.55810667 58.92553711 35.13037109 C58.92772527 31.40369278 58.94588562 27.67730955 58.96484375 23.95068359 C58.96777725 21.59651794 58.96976233 19.24235088 58.97070312 16.88818359 C58.9814814 15.20692383 58.9814814 15.20692383 58.99247742 13.49169922 C58.98786247 11.93999023 58.98786247 11.93999023 58.9831543 10.35693359 C58.98457932 9.44363281 58.98600433 8.53033203 58.98747253 7.58935547 C58.94865838 5.18076669 58.94865838 5.18076669 56.74023438 3.38818359 C54.08397363 3.08098213 54.08397363 3.08098213 50.9453125 3.12939453 C49.73065308 3.12309021 48.51599365 3.11678589 47.26452637 3.11029053 C45.94682251 3.11433899 44.62911865 3.11838745 43.27148438 3.12255859 C41.91149832 3.12121183 40.55151273 3.1192712 39.19152832 3.11676025 C36.3400413 3.1138095 33.48867951 3.11810495 30.63720703 3.12744141 C26.97840661 3.13883605 23.31989958 3.1322763 19.66110992 3.12029648 C16.85245546 3.11307648 14.04387078 3.11536642 11.23521423 3.12055206 C9.22878835 3.12253898 7.22235978 3.11645497 5.21594238 3.11029053 C4.00128296 3.11659485 2.78662354 3.12289917 1.53515625 3.12939453 C0.46197144 3.13098572 -0.61121338 3.1325769 -1.71691895 3.13421631 C-4.42766815 3.13386383 -4.42766815 3.13386383 -6.25976562 5.38818359 Z " fill="#4F7B90" transform="translate(9.259765625,-0.38818359375)"/>
<path d="M0 0 C2.3984375 1.5234375 2.3984375 1.5234375 4 3 C3.67 3.33 3.34 3.66 3 4 C3.54269531 4.42410156 4.08539063 4.84820313 4.64453125 5.28515625 C9.28692742 9.09108464 12.38041468 12.02777914 14 18 C14.38869801 22.82882524 14.33307293 27.32349414 13 32 C12.01 32 11.02 32 10 32 C10.33 27.71 10.66 23.42 11 19 C10.34 19 9.68 19 9 19 C9.02320313 19.62648438 9.04640625 20.25296875 9.0703125 20.8984375 C9.08835938 21.71570313 9.10640625 22.53296875 9.125 23.375 C9.14820313 24.18710937 9.17140625 24.99921875 9.1953125 25.8359375 C9 28 9 28 7 30 C7.02320313 29.27554688 7.04640625 28.55109375 7.0703125 27.8046875 C7.17018794 22.45421756 7.16455748 18.00553918 5 13 C4.34 13 3.68 13 3 13 C3 12.34 3 11.68 3 11 C0.00519083 10.1276588 -2.63575911 9.89170234 -5.75 9.9375 C-6.94882812 9.95103516 -6.94882812 9.95103516 -8.171875 9.96484375 C-8.77515625 9.97644531 -9.3784375 9.98804688 -10 10 C-7.36 10.33 -4.72 10.66 -2 11 C-2 11.33 -2 11.66 -2 12 C-5.63 12.33 -9.26 12.66 -13 13 C-12.67 12.01 -12.34 11.02 -12 10 C-13.65 11.65 -15.3 13.3 -17 15 C-16.67 15.99 -16.34 16.98 -16 18 C-16.45548177 20.73812607 -17.25314753 23.3201176 -18 26 C-18.33 26 -18.66 26 -19 26 C-19.33 24.35 -19.66 22.7 -20 21 C-20 23.97 -20 26.94 -20 30 C-23.00617269 26.99382731 -22.59585316 24.17618402 -23 20 C-23 24.29 -23 28.58 -23 33 C-23.99 32.67 -24.98 32.34 -26 32 C-26.66 28.37 -27.32 24.74 -28 21 C-27.67 24.63 -27.34 28.26 -27 32 C-29 31 -29 31 -29.6015625 29.1953125 C-31.08973237 20.99578831 -29.65038719 14.96947791 -25 8 C-23.09665968 5.86193139 -21.42683728 4.63440062 -19 3 C-18.154375 2.401875 -17.30875 1.80375 -16.4375 1.1875 C-11.10090739 -0.65605018 -5.58535965 -0.73605515 0 0 Z " fill="#C29D5F" transform="translate(42,8)"/>
<path d="M0 0 C2.97 0 5.94 0 9 0 C9 0.99 9 1.98 9 3 C7.02 3 5.04 3 3 3 C3 3.99 3 4.98 3 6 C4.65 6 6.3 6 8 6 C8 6.99 8 7.98 8 9 C6.35 9 4.7 9 3 9 C3 10.32 3 11.64 3 13 C7.62 13 12.24 13 17 13 C16.31735356 9.78504624 16.31735356 9.78504624 13.4375 8.6875 C12.633125 8.130625 11.82875 7.57375 11 7 C10.6875 3.8125 10.6875 3.8125 11 1 C13.95664519 -0.4783226 16.74229737 -0.06032783 20 0 C20 0.99 20 1.98 20 3 C18.35 3.33 16.7 3.66 15 4 C16.2065625 4.9590625 16.2065625 4.9590625 17.4375 5.9375 C20.96470588 8.77647059 20.96470588 8.77647059 21.375 11.375 C21 14 21 14 18.99609375 15.68359375 C15.1010431 17.39497846 11.80583981 17.10214872 7.6875 16.6875 C5.150625 16.460625 2.61375 16.23375 0 16 C0 10.72 0 5.44 0 0 Z " fill="#FFFFFF" transform="translate(76,71)"/>
<path d="M0 0 C6.27 0 12.54 0 19 0 C19 3.3 19 6.6 19 10 C16.77090129 10.02714735 14.54170633 10.04646254 12.3125 10.0625 C11.07113281 10.07410156 9.82976563 10.08570313 8.55078125 10.09765625 C5.53764546 10.01478673 2.91724661 9.70839449 0 9 C0 6.03 0 3.06 0 0 Z " fill="#A18F77" transform="translate(15,44)"/>
<path d="M0 0 C0.99 0.66 1.98 1.32 3 2 C2.31035156 1.95359375 1.62070312 1.9071875 0.91015625 1.859375 C-5.82187219 1.60080601 -11.26970954 2.23438055 -17 6 C-17.99 7.485 -17.99 7.485 -19 9 C-17.68 8.34 -16.36 7.68 -15 7 C-15.52400391 7.70576172 -15.52400391 7.70576172 -16.05859375 8.42578125 C-16.51363281 9.04839844 -16.96867187 9.67101563 -17.4375 10.3125 C-17.88996094 10.92738281 -18.34242187 11.54226562 -18.80859375 12.17578125 C-21.41303827 16.16357008 -21.1179929 20.11573918 -21.0625 24.6875 C-21.05798828 25.38939453 -21.05347656 26.09128906 -21.04882812 26.81445312 C-21.03706927 28.54300538 -21.01913454 30.27151365 -21 32 C-21.99 31.67 -22.98 31.34 -24 31 C-24.66 27.37 -25.32 23.74 -26 20 C-25.67 23.63 -25.34 27.26 -25 31 C-27 30 -27 30 -27.6015625 28.1953125 C-29.08973237 19.99578831 -27.65038719 13.96947791 -23 7 C-21.09665968 4.86193139 -19.42683728 3.63440062 -17 2 C-16.113125 1.38125 -15.22625 0.7625 -14.3125 0.125 C-9.48411463 -1.51482899 -4.95773604 -1.0351317 0 0 Z " fill="#718287" transform="translate(40,9)"/>
<path d="M0 0 C7.59 0 15.18 0 23 0 C23 0.99 23 1.98 23 3 C21.68 3 20.36 3 19 3 C19 7.29 19 11.58 19 16 C18.01 16 17.02 16 16 16 C16 11.71 16 7.42 16 3 C13.36 3 10.72 3 8 3 C8 7.29 8 11.58 8 16 C6.68 16 5.36 16 4 16 C4 11.71 4 7.42 4 3 C2.68 3 1.36 3 0 3 C0 2.01 0 1.02 0 0 Z " fill="#FFFFFF" transform="translate(22,71)"/>
<path d="M0 0 C8.18464193 -0.60181191 8.18464193 -0.60181191 11.625 1.9375 C13.49895162 6.11130133 13.22131557 9.62218573 12 14 C9.20503934 16.79496066 6.86404416 16.66104876 3 17 C2.01 16.67 1.02 16.34 0 16 C0 10.72 0 5.44 0 0 Z M3 3 C3 6.63 3 10.26 3 14 C4.65 13.67 6.3 13.34 8 13 C9.38125018 10.23749964 9.19079306 8.05268901 9 5 C8.34 4.34 7.68 3.68 7 3 C5.68 3 4.36 3 3 3 Z " fill="#FFFFFF" transform="translate(124,71)"/>
<path d="M0 0 C8 0 8 0 10.125 1.5625 C11 4 11 4 10 7.4375 C8.59246603 10.96191087 8.59246603 10.96191087 10.375 13.9375 C10.91125 14.618125 11.4475 15.29875 12 16 C9.625 15.6875 9.625 15.6875 7 15 C6.34 14.01 5.68 13.02 5 12 C4.67 13.32 4.34 14.64 4 16 C2.68 16 1.36 16 0 16 C0 10.72 0 5.44 0 0 Z M4 3 C4 4.65 4 6.3 4 8 C4.99 7.34 5.98 6.68 7 6 C7 5.01 7 4.02 7 3 C6.01 3 5.02 3 4 3 Z " fill="#FFFFFF" transform="translate(57,71)"/>
<path d="M0 0 C1.32 0.33 2.64 0.66 4 1 C5.75 4.0625 5.75 4.0625 7 7 C7.33 4.69 7.66 2.38 8 0 C8.99 0 9.98 0 11 0 C11 5.28 11 10.56 11 16 C7 15 7 15 5.25 12.4375 C4.8375 11.633125 4.425 10.82875 4 10 C3.67 11.98 3.34 13.96 3 16 C2.01 16 1.02 16 0 16 C0 10.72 0 5.44 0 0 Z " fill="#FFFFFF" transform="translate(110,71)"/>
<path d="M0 0 C2.64 0 5.28 0 8 0 C8.33 1.65 8.66 3.3 9 5 C9.99 5 10.98 5 12 5 C12 4.34 12 3.68 12 3 C14.64 3 17.28 3 20 3 C20 4.98 20 6.96 20 9 C13.4 9 6.8 9 0 9 C0 7.68 0 6.36 0 5 C1.98 5 3.96 5 6 5 C6 4.34 6 3.68 6 3 C4.02 3 2.04 3 0 3 C0 2.01 0 1.02 0 0 Z " fill="#F9B62A" transform="translate(37,44)"/>
<path d="M0 0 C1.7492214 -0.08142927 3.49954542 -0.13938541 5.25 -0.1875 C6.22453125 -0.22230469 7.1990625 -0.25710937 8.203125 -0.29296875 C11.37468742 0.03924798 12.67040307 0.88672279 15 3 C14.67 3.33 14.34 3.66 14 4 C14.54269531 4.42410156 15.08539063 4.84820313 15.64453125 5.28515625 C20.28692742 9.09108464 23.38041468 12.02777914 25 18 C25.38869801 22.82882524 25.33307293 27.32349414 24 32 C23.01 31.67 22.02 31.34 21 31 C21.33 30.34 21.66 29.68 22 29 C22.73244837 22.19869366 22.79534437 16.26900365 18.609375 10.625 C14.5978859 6.5745644 10.16067243 4.81231296 4.5 4.5 C-0.34443203 4.71753926 -3.88804604 6.58741888 -8 9 C-9.32911714 9.67503322 -10.66139013 10.34399251 -12 11 C-8.35463288 5.87370249 -5.21682277 3.32974088 1 2 C3.72568951 1.79104595 6.25972683 1.85319965 9 2 C6.03 1.67 3.06 1.34 0 1 C0 0.67 0 0.34 0 0 Z " fill="#EDB037" transform="translate(31,8)"/>
<path d="M0 0 C7 0 7 0 9 1 C8.979375 2.134375 8.95875 3.26875 8.9375 4.4375 C8.58422523 7.81575674 8.58422523 7.81575674 10 9 C10.1875 11.4375 10.1875 11.4375 10 14 C7.60880279 16.39119721 6.30355083 16.59712795 3 17 C2.01 16.67 1.02 16.34 0 16 C0 10.72 0 5.44 0 0 Z M3 3 C3 3.99 3 4.98 3 6 C3.99 6 4.98 6 6 6 C6 5.01 6 4.02 6 3 C5.01 3 4.02 3 3 3 Z M3 9 C3 10.65 3 12.3 3 14 C4.32 13.67 5.64 13.34 7 13 C7 12.01 7 11.02 7 10 C5.68 9.67 4.36 9.34 3 9 Z " fill="#FFFFFF" transform="translate(0,71)"/>
<path d="M0 0 C2.64 0 5.28 0 8 0 C8.66 0.66 9.32 1.32 10 2 C9.74889902 4.34360915 9.41434251 6.67968195 9 9 C9 11.6465335 9.98139634 13.5808163 11 16 C9.68 16 8.36 16 7 16 C5.25 14 5.25 14 4 12 C3.67 13.32 3.34 14.64 3 16 C2.01 16 1.02 16 0 16 C0 10.72 0 5.44 0 0 Z M3 3 C3 4.65 3 6.3 3 8 C3.99 7.67 4.98 7.34 6 7 C6.33 6.01 6.66 5.02 7 4 C5.68 3.67 4.36 3.34 3 3 Z " fill="#FFFFFF" transform="translate(176,71)"/>
<path d="M0 0 C0.99 0 1.98 0 3 0 C3.33 3.96 3.66 7.92 4 12 C5.32 12.33 6.64 12.66 8 13 C8 8.71 8 4.42 8 0 C9.32 0 10.64 0 12 0 C12.4651527 9.83711825 12.4651527 9.83711825 10.75 14.125 C9 16 9 16 7.125 17 C3.92181682 17 2.46516764 16.01328748 0 14 C-0.48828125 10.64453125 -0.48828125 10.64453125 -0.3125 6.8125 C-0.24482422 4.90404297 -0.24482422 4.90404297 -0.17578125 2.95703125 C-0.11777344 1.98121094 -0.05976563 1.00539063 0 0 Z " fill="#FFFFFF" transform="translate(139,71)"/>
<path d="M0 0 C1.32 0 2.64 0 4 0 C4.83719383 2.29032311 5.6698929 4.58210957 6.5 6.875 C6.73847656 7.52597656 6.97695313 8.17695312 7.22265625 8.84765625 C9 13.7734375 9 13.7734375 9 16 C7.68 16 6.36 16 5 16 C5 15.01 5 14.02 5 13 C2.52733235 13.34444881 2.52733235 13.34444881 0 14 C-0.33 14.66 -0.66 15.32 -1 16 C-1.99 16 -2.98 16 -4 16 C-3.39891424 10.34979382 -1.92471317 5.33835539 0 0 Z M2 6 C1.67 7.32 1.34 8.64 1 10 C1.99 9.67 2.98 9.34 4 9 C3.34 8.01 2.68 7.02 2 6 Z " fill="#FFFFFF" transform="translate(15,71)"/>
<path d="M0 0 C4.75977715 2.73758726 7.7770347 6.48132007 9.8125 11.5625 C10.37176306 15.63213748 10.47142893 19.50121686 9.8125 23.5625 C9.1525 24.2225 8.4925 24.8825 7.8125 25.5625 C8.1425 21.6025 8.4725 17.6425 8.8125 13.5625 C8.1525 13.5625 7.4925 13.5625 6.8125 13.5625 C6.83570312 14.18898438 6.85890625 14.81546875 6.8828125 15.4609375 C6.90988281 16.68683594 6.90988281 16.68683594 6.9375 17.9375 C6.96070312 18.74960937 6.98390625 19.56171875 7.0078125 20.3984375 C6.8125 22.5625 6.8125 22.5625 4.8125 24.5625 C4.83570312 23.83804688 4.85890625 23.11359375 4.8828125 22.3671875 C4.98268794 17.01671756 4.97705748 12.56803918 2.8125 7.5625 C2.1525 7.5625 1.4925 7.5625 0.8125 7.5625 C0.4825 5.5825 0.1525 3.6025 -0.1875 1.5625 C-7.08586454 0.62411953 -12.52678512 0.42604428 -19.1875 2.5625 C-14.21666247 -2.88175063 -6.52673279 -2.76131003 0 0 Z " fill="#938D75" transform="translate(44.1875,13.4375)"/>
<path d="M0 0 C1.9453125 -0.29296875 1.9453125 -0.29296875 4.125 -0.1875 C5.40375 -0.125625 6.6825 -0.06375 8 0 C8 0.99 8 1.98 8 3 C6.02 3 4.04 3 2 3 C4.16687491 5.27521866 6.45620509 7.15794162 9 9 C8.67 10.98 8.34 12.96 8 15 C1.71428571 17.42857143 1.71428571 17.42857143 -2 16 C-2 15.01 -2 14.02 -2 13 C0.31 13 2.62 13 5 13 C5 12.01 5 11.02 5 10 C3.02 9.34 1.04 8.68 -1 8 C-1.625 5.6875 -1.625 5.6875 -2 3 C-1.34 2.01 -0.68 1.02 0 0 Z " fill="#FFFFFF" transform="translate(239,71)"/>
<path d="M0 0 C3.3 0 6.6 0 10 0 C10 0.99 10 1.98 10 3 C7.69 3 5.38 3 3 3 C3 3.99 3 4.98 3 6 C4.65 6 6.3 6 8 6 C8.33 6.99 8.66 7.98 9 9 C7.02 9 5.04 9 3 9 C3 10.32 3 11.64 3 13 C5.31 13 7.62 13 10 13 C10 13.99 10 14.98 10 16 C6.7 16 3.4 16 0 16 C0 10.72 0 5.44 0 0 Z " fill="#FFFFFF" transform="translate(194,71)"/>
<path d="M0 0 C0 0.99 0 1.98 0 3 C-1.98 3 -3.96 3 -6 3 C-4.3419447 4.74095806 -2.85999596 6.08800254 -0.8125 7.375 C1 9 1 9 1.5625 11.5 C1 14 1 14 -1.125 15.875 C-4.55421722 17.21686761 -6.47879408 16.90077361 -10 16 C-9.67 15.01 -9.34 14.02 -9 13 C-7.02 13 -5.04 13 -3 13 C-3.68264644 9.78504624 -3.68264644 9.78504624 -6.5625 8.6875 C-7.366875 8.130625 -8.17125 7.57375 -9 7 C-9.3125 3.8125 -9.3125 3.8125 -9 1 C-6.04335481 -0.4783226 -3.25770263 -0.06032783 0 0 Z " fill="#FFFFFF" transform="translate(162,71)"/>
<path d="M0 0 C2.97 0 5.94 0 9 0 C9 0.99 9 1.98 9 3 C7.02 3 5.04 3 3 3 C3 3.99 3 4.98 3 6 C4.65 6 6.3 6 8 6 C8 6.99 8 7.98 8 9 C6.35 9 4.7 9 3 9 C3 10.32 3 11.64 3 13 C5.31 13 7.62 13 10 13 C10 13.99 10 14.98 10 16 C6.7 16 3.4 16 0 16 C0 10.72 0 5.44 0 0 Z " fill="#FFFFFF" transform="translate(46,71)"/>
<path d="M0 0 C2.97 0 5.94 0 9 0 C9 0.99 9 1.98 9 3 C7.02 3 5.04 3 3 3 C3 3.99 3 4.98 3 6 C4.65 6 6.3 6 8 6 C8 6.99 8 7.98 8 9 C6.35 9 4.7 9 3 9 C3 10.32 3 11.64 3 13 C4.98 13 6.96 13 9 13 C9 13.99 9 14.98 9 16 C6.03 16 3.06 16 0 16 C0 10.72 0 5.44 0 0 Z " fill="#FFFFFF" transform="translate(227,71)"/>
<path d="M0 0 C3.05756895 0.07279926 5.24932284 0.36453469 7.62890625 2.37890625 C12.85887759 8.23804707 15.49498021 14.0065303 15.23828125 21.91015625 C14.94103502 24.51715186 14.20127918 26.6725216 13 29 C11.14434081 25.86407981 10.86089667 23.85558457 11.125 20.25 C11.2106044 14.95809137 10.16802622 11.26359725 7 7 C5.20832712 5.23901959 3.37949446 3.66234131 1.390625 2.12890625 C0.93171875 1.75636719 0.4728125 1.38382813 0 1 C0 0.67 0 0.34 0 0 Z " fill="#958E75" transform="translate(44,11)"/>
<path d="M0 0 C1.32 0 2.64 0 4 0 C4 3.3 4 6.6 4 10 C-4.25 10 -12.5 10 -21 10 C-21 9.67 -21 9.34 -21 9 C-14.4 9 -7.8 9 -1 9 C-1 7.02 -1 5.04 -1 3 C-1.66 3 -2.32 3 -3 3 C-3.33 3.66 -3.66 4.32 -4 5 C-4 4.34 -4 3.68 -4 3 C-4.66 3 -5.32 3 -6 3 C-6.33 3.66 -6.66 4.32 -7 5 C-7 4.34 -7 3.68 -7 3 C-7.66 2.67 -8.32 2.34 -9 2 C-6.03 2 -3.06 2 0 2 C0 1.34 0 0.68 0 0 Z " fill="#9B8E76" transform="translate(58,44)"/>
<path d="M0 0 C0.66 0 1.32 0 2 0 C2.19607616 5.68620859 1.89608907 8.3117328 0 14 C-8.91 14 -17.82 14 -27 14 C-27 13.67 -27 13.34 -27 13 C-26.16021606 12.99383667 -26.16021606 12.99383667 -25.3034668 12.98754883 C-22.7637413 12.95462695 -20.22642019 12.88399306 -17.6875 12.8125 C-16.36588867 12.80379883 -16.36588867 12.80379883 -15.01757812 12.79492188 C-12.58132376 12.71155195 -10.36926414 12.57697106 -8 12 C-5.04588981 8.64305661 -4.51019014 5.38763519 -4 1 C-3.67 1 -3.34 1 -3 1 C-2.855625 2.134375 -2.71125 3.26875 -2.5625 4.4375 C-2.38828522 7.80777201 -2.38828522 7.80777201 -1 9 C-0.67 6.03 -0.34 3.06 0 0 Z " fill="#B69864" transform="translate(51,27)"/>
<path d="M0 0 C2.97 0 5.94 0 9 0 C8.67 1.32 8.34 2.64 8 4 C8.38567131 6.68149993 8.38567131 6.68149993 9 9 C6.03 9 3.06 9 0 9 C0 6.03 0 3.06 0 0 Z " fill="#DDAA43" transform="translate(15,44)"/>
<path d="M0 0 C3.63 0 7.26 0 11 0 C11 0.99 11 1.98 11 3 C9.68 3 8.36 3 7 3 C7 7.29 7 11.58 7 16 C6.01 16 5.02 16 4 16 C4 11.71 4 7.42 4 3 C2.68 3 1.36 3 0 3 C0 2.01 0 1.02 0 0 Z " fill="#FFFFFF" transform="translate(163,71)"/>
<path d="M0 0 C1 2 1 2 1 4 C1.33 4.99 1.66 5.98 2 7 C2.06829117 10.03468874 1.9976664 13.05520085 1.9375 16.08984375 C1.99161771 18.60969957 2.26206437 20.60747431 3 23 C2.01 22.67 1.02 22.34 0 22 C-0.66 18.37 -1.32 14.74 -2 11 C-1.67 14.63 -1.34 18.26 -1 22 C-3 21 -3 21 -3.60546875 19.203125 C-4.96345298 11.61992592 -3.86317487 6.63983181 0 0 Z " fill="#D7A74A" transform="translate(16,18)"/>
<path d="M0 0 C0.99 0 1.98 0 3 0 C3 4.29 3 8.58 3 13 C4.98 13 6.96 13 9 13 C9 13.99 9 14.98 9 16 C6.03 16 3.06 16 0 16 C0 10.72 0 5.44 0 0 Z " fill="#FFFFFF" transform="translate(216,71)"/>
<path d="M0 0 C0.99 0 1.98 0 3 0 C3 4.29 3 8.58 3 13 C4.98 13 6.96 13 9 13 C9 13.99 9 14.98 9 16 C6.03 16 3.06 16 0 16 C0 10.72 0 5.44 0 0 Z " fill="#FFFFFF" transform="translate(206,71)"/>
<path d="M0 0 C0.33 0 0.66 0 1 0 C1.33 2.64 1.66 5.28 2 8 C2 6.02 2 4.04 2 2 C2.66 1.67 3.32 1.34 4 1 C4 2.98 4 4.96 4 7 C4.66 7 5.32 7 6 7 C6.99 8.98 7.98 10.96 9 13 C6.36 13.33 3.72 13.66 1 14 C-1.25068913 9.49862174 -1.24661958 5.93239162 -1 1 C-0.67 0.67 -0.34 0.34 0 0 Z " fill="#E5AD3D" transform="translate(19,27)"/>
<path d="M0 0 C1.32 0 2.64 0 4 0 C4 5.28 4 10.56 4 16 C2.68 16 1.36 16 0 16 C0 10.72 0 5.44 0 0 Z " fill="#FFFFFF" transform="translate(188,71)"/>
<path d="M0 0 C0.66 0.33 1.32 0.66 2 1 C1.484375 1.598125 0.96875 2.19625 0.4375 2.8125 C-0.2740625 3.8953125 -0.2740625 3.8953125 -1 5 C-0.67 5.99 -0.34 6.98 0 8 C-0.45548177 10.73812607 -1.25314753 13.3201176 -2 16 C-2.33 16 -2.66 16 -3 16 C-3.33 14.35 -3.66 12.7 -4 11 C-4 13.97 -4 16.94 -4 20 C-6.28717987 17.71282013 -6.29522074 17.09361522 -6.5625 14 C-6.77684784 11.62030153 -6.92338668 10.15322664 -8 8 C-7.01 8 -6.02 8 -5 8 C-4.731875 7.236875 -4.46375 6.47375 -4.1875 5.6875 C-3.05575888 3.12619116 -2.08776599 1.80307062 0 0 Z " fill="#C09D5D" transform="translate(26,18)"/>
<path d="M0 0 C0.99 0 1.98 0 3 0 C3 5.28 3 10.56 3 16 C2.01 16 1.02 16 0 16 C0 10.72 0 5.44 0 0 Z " fill="#FFFFFF" transform="translate(104,71)"/>
<path d="M0 0 C0.99 0 1.98 0 3 0 C3 5.28 3 10.56 3 16 C2.01 16 1.02 16 0 16 C0 10.72 0 5.44 0 0 Z " fill="#FFFFFF" transform="translate(70,71)"/>
<path d="M0 0 C0.96808594 0.07863281 1.93617187 0.15726563 2.93359375 0.23828125 C5.5625 0.6875 5.5625 0.6875 8.5625 2.6875 C7.54542969 2.63529297 7.54542969 2.63529297 6.5078125 2.58203125 C-1.63730547 2.34512339 -8.7617925 3.11450475 -15.5625 7.875 C-16.490625 8.7721875 -16.490625 8.7721875 -17.4375 9.6875 C-16.03975672 6.27322083 -14.60757471 4.8472678 -11.4375 3 C-10.73625 2.58363281 -10.035 2.16726562 -9.3125 1.73828125 C-5.80690672 -0.22631165 -4.03898042 -0.35937807 0 0 Z " fill="#898C78" transform="translate(34.4375,8.3125)"/>
<path d="M0 0 C1.32 0 2.64 0 4 0 C4 2.97 4 5.94 4 9 C2.68 9 1.36 9 0 9 C0 6.03 0 3.06 0 0 Z " fill="#EFB232" transform="translate(30,44)"/>
<path d="M0 0 C0.33 0 0.66 0 1 0 C1.268125 1.2375 1.53625 2.475 1.8125 3.75 C2.63881995 7.10283779 3.62671274 9.41095936 6 12 C3.625 12.125 3.625 12.125 1 12 C0.34 11.34 -0.32 10.68 -1 10 C-0.9765625 7.6171875 -0.9765625 7.6171875 -0.625 4.875 C-0.51414063 3.96492188 -0.40328125 3.05484375 -0.2890625 2.1171875 C-0.19367187 1.41851562 -0.09828125 0.71984375 0 0 Z " fill="#1269AD" transform="translate(4,47)"/>
<path d="M0 0 C0.99 0 1.98 0 3 0 C3.33 2.97 3.66 5.94 4 9 C2.68 9 1.36 9 0 9 C0 6.03 0 3.06 0 0 Z " fill="#F1B232" transform="translate(10,44)"/>
<path d="M0 0 C1.17369141 0.17789062 1.17369141 0.17789062 2.37109375 0.359375 C3.54865234 0.52179687 3.54865234 0.52179687 4.75 0.6875 C6.80859375 1.109375 6.80859375 1.109375 8.80859375 2.109375 C9.43359375 4.171875 9.43359375 4.171875 9.80859375 6.109375 C8.48859375 5.779375 7.16859375 5.449375 5.80859375 5.109375 C5.80859375 4.449375 5.80859375 3.789375 5.80859375 3.109375 C2.17859375 3.109375 -1.45140625 3.109375 -5.19140625 3.109375 C-2.19140625 0.109375 -2.19140625 0.109375 0 0 Z " fill="#E1AB42" transform="translate(35.19140625,12.890625)"/>
<path d="M0 0 C1.32 0 2.64 0 4 0 C3.814375 0.556875 3.62875 1.11375 3.4375 1.6875 C2.92448835 4.399133 3.3359276 6.34371039 4 9 C2.68 9 1.36 9 0 9 C0 6.03 0 3.06 0 0 Z " fill="#F8B62C" transform="translate(15,44)"/>
<path d="M0 0 C-1 3 -1 3 -3.4375 4.9375 C-5.89305131 6.91391935 -6.87039721 8.12464744 -8 11 C-8.66 11 -9.32 11 -10 11 C-9.49268371 6.60325886 -6.88085945 4.16191891 -4 1 C-2 0 -2 0 0 0 Z " fill="#F5B430" transform="translate(29,15)"/>
<path d="M0 0 C0.66 0 1.32 0 2 0 C2.33 2.97 2.66 5.94 3 9 C1.68 9 0.36 9 -1 9 C-1.125 2.25 -1.125 2.25 0 0 Z " fill="#F9B62A" transform="translate(26,44)"/>
<path d="M0 0 C0.66 0 1.32 0 2 0 C2.16682272 4.92127034 2.24828052 8.50343896 0 13 C-0.66 13 -1.32 13 -2 13 C-1.34 8.71 -0.68 4.42 0 0 Z " fill="#FAB62A" transform="translate(51,27)"/>
<path d="M0 0 C0.33 0 0.66 0 1 0 C1.06058594 0.60328125 1.12117188 1.2065625 1.18359375 1.828125 C1.26738281 2.62734375 1.35117187 3.4265625 1.4375 4.25 C1.55931641 5.43335938 1.55931641 5.43335938 1.68359375 6.640625 C1.97634993 8.82364639 2.42064419 10.8773182 3 13 C2.01 12.67 1.02 12.34 0 12 C-1.29449495 8.11651516 -1.13203312 5.09302664 -1 1 C-0.67 0.67 -0.34 0.34 0 0 Z " fill="#F8B62B" transform="translate(19,27)"/>
<path d="M0 0 C-1.59910868 1.00806851 -3.20448262 2.00620385 -4.8125 3 C-6.15248047 3.8353125 -6.15248047 3.8353125 -7.51953125 4.6875 C-10 6 -10 6 -13 6 C-11.90081184 5.01524786 -10.7954398 4.03739527 -9.6875 3.0625 C-9.07261719 2.51722656 -8.45773438 1.97195312 -7.82421875 1.41015625 C-4.87547488 -0.86927959 -3.56172274 -1.18724091 0 0 Z " fill="#F7B52E" transform="translate(32,12)"/>
</svg>
