<?xml version="1.0" encoding="UTF-8"?>
<svg version="1.1" xmlns="http://www.w3.org/2000/svg" width="1728" height="469">
<path d="M0 0 C20.604375 -0.020625 41.20875 -0.04125 62.4375 -0.0625 C68.9542749 -0.071604 75.4710498 -0.08070801 82.18530273 -0.09008789 C90.11535645 -0.09460449 90.11535645 -0.09460449 93.82240295 -0.09544373 C96.42321136 -0.09698389 99.02397203 -0.10014108 101.62477112 -0.10557556 C105.55380634 -0.11367745 109.48282126 -0.11390758 113.41186523 -0.11352539 C115.16303603 -0.11892255 115.16303603 -0.11892255 116.94958401 -0.12442875 C118.52599966 -0.1223625 118.52599966 -0.1223625 120.13426208 -0.12025452 C121.05513328 -0.12117631 121.97600447 -0.1220981 122.92478085 -0.12304783 C125 0 125 0 126 1 C127.37024654 1.18524792 128.7470321 1.3230586 130.125 1.4375 C137.39521289 2.18286883 144.11584637 4.65845114 151 7 C151 7.66 151 8.32 151 9 C152.32 9 153.64 9 155 9 C155 9.66 155 10.32 155 11 C155.99 11 156.98 11 158 11 C158 11.66 158 12.32 158 13 C159.98 13.495 159.98 13.495 162 14 C162 14.66 162 15.32 162 16 C162.99 16 163.98 16 165 16 C165 16.66 165 17.32 165 18 C165.66 18 166.32 18 167 18 C167 18.66 167 19.32 167 20 C167.66 20 168.32 20 169 20 C169 20.99 169 21.98 169 23 C169.66 23 170.32 23 171 23 C171 23.66 171 24.32 171 25 C171.66 25 172.32 25 173 25 C173 26.32 173 27.64 173 29 C173.66 29 174.32 29 175 29 C175.33 31.31 175.66 33.62 176 36 C176.66 36 177.32 36 178 36 C178.22786458 38.05078125 178.45572917 40.1015625 178.68359375 42.15234375 C178.81886614 44.01140229 178.81886614 44.01140229 180 45 C180.12851093 47.84517228 180.18975366 50.65418911 180.1875 53.5 C180.18814453 54.31774902 180.18878906 55.13549805 180.18945312 55.97802734 C180.14031725 61.58510053 179.60017085 66.59942339 178 72 C177.34 72 176.68 72 176 72 C175.814375 73.60875 175.814375 73.60875 175.625 75.25 C175.10356064 78.37863615 174.59911746 80.33480424 173 83 C172.34 83 171.68 83 171 83 C171 83.99 171 84.98 171 86 C170.34 86 169.68 86 169 86 C169 86.66 169 87.32 169 88 C168.34 88 167.68 88 167 88 C166.62875 88.86625 166.62875 88.86625 166.25 89.75 C164.78497722 92.38704101 163.32497923 94.07358864 161 96 C158.25 96.75 158.25 96.75 156 97 C156 97.66 156 98.32 156 99 C155.01 99 154.02 99 153 99 C153 99.66 153 100.32 153 101 C151.68 101 150.36 101 149 101 C149 101.66 149 102.32 149 103 C148.01 103.33 147.02 103.66 146 104 C149.3 105.32 152.6 106.64 156 108 C156 108.66 156 109.32 156 110 C157.32 110 158.64 110 160 110 C160 110.66 160 111.32 160 112 C161.32 112 162.64 112 164 112 C164 112.66 164 113.32 164 114 C165.65 114.33 167.3 114.66 169 115 C169 115.66 169 116.32 169 117 C169.66 117 170.32 117 171 117 C171 117.66 171 118.32 171 119 C171.66 119 172.32 119 173 119 C173 119.66 173 120.32 173 121 C173.66 121 174.32 121 175 121 C176.2890625 122.4609375 176.2890625 122.4609375 177.625 124.375 C178.07101562 125.00148438 178.51703125 125.62796875 178.9765625 126.2734375 C180 128 180 128 180 130 C180.66 130 181.32 130 182 130 C184.10575375 135.52760359 185.37851209 140.06997733 185 146 C185.66 146 186.32 146 187 146 C187.05855176 149.52076232 187.0937806 153.0413976 187.125 156.5625 C187.14175781 157.55314453 187.15851563 158.54378906 187.17578125 159.56445312 C187.21294361 165.1573885 186.86536816 169.72367291 185 175 C184.71898437 175.87527344 184.43796875 176.75054687 184.1484375 177.65234375 C183.89320313 178.40644531 183.63796875 179.16054688 183.375 179.9375 C183.11460937 180.70964844 182.85421875 181.48179687 182.5859375 182.27734375 C182.29589844 183.13005859 182.29589844 183.13005859 182 184 C181.34 184 180.68 184 180 184 C179.896875 184.556875 179.79375 185.11375 179.6875 185.6875 C178.85821592 188.4769101 177.65700944 190.6139064 176 193 C175.34 193 174.68 193 174 193 C173.731875 193.639375 173.46375 194.27875 173.1875 194.9375 C172 197 172 197 169 198 C169 198.66 169 199.32 169 200 C168.34 200 167.68 200 167 200 C167 200.66 167 201.32 167 202 C166.01 202 165.02 202 164 202 C164 202.66 164 203.32 164 204 C158.375 207 158.375 207 155 207 C155 207.66 155 208.32 155 209 C153.68 209 152.36 209 151 209 C151 209.66 151 210.32 151 211 C149.68 211 148.36 211 147 211 C147 211.66 147 212.32 147 213 C145.35 213 143.7 213 142 213 C142 213.66 142 214.32 142 215 C136.61509359 215.91657981 131.45769811 216.11138159 126 216 C126 216.66 126 217.32 126 218 C84.42 218 42.84 218 0 218 C0 146.06 0 74.12 0 0 Z M54 45 C54 58.2 54 71.4 54 85 C61.438306 85.04594698 68.87611822 85.08576292 76.31445312 85.10986328 C78.84409251 85.11991182 81.37372031 85.13355288 83.90332031 85.15087891 C87.54234683 85.1751772 91.18121957 85.18649475 94.8203125 85.1953125 C96.51282639 85.21079636 96.51282639 85.21079636 98.23953247 85.22659302 C103.54578444 85.22734876 108.05131207 85.18346689 113 83 C113 82.34 113 81.68 113 81 C114.32 81 115.64 81 117 81 C117 80.34 117 79.68 117 79 C117.598125 78.7525 118.19625 78.505 118.8125 78.25 C121.35858793 76.79509261 122.51734865 75.52050729 124 73 C124 71.68 124 70.36 124 69 C124.66 69 125.32 69 126 69 C126 65.7 126 62.4 126 59 C125.34 59 124.68 59 124 59 C123.7834375 58.1028125 123.7834375 58.1028125 123.5625 57.1875 C123.1127561 55.43849596 122.57107659 53.71322977 122 52 C121.34 52 120.68 52 120 52 C119.505 50.515 119.505 50.515 119 49 C115.67908998 47.29466783 113.81507216 47 110 47 C110 46.34 110 45.68 110 45 C91.52 45 73.04 45 54 45 Z M54 127 C53.90704185 128.44289787 53.88253487 129.89029785 53.88647461 131.33618164 C53.88655014 132.2570607 53.88662567 133.17793976 53.88670349 134.12672424 C53.89186478 135.12775681 53.89702606 136.12878937 53.90234375 137.16015625 C53.9037587 138.17975937 53.90517365 139.19936249 53.90663147 140.24986267 C53.91224903 143.52077107 53.9248045 146.79161213 53.9375 150.0625 C53.94251274 152.27408756 53.94707604 154.48567618 53.95117188 156.69726562 C53.96222416 162.13153357 53.97897937 167.56576197 54 173 C61.2763756 173.06983572 68.55267767 173.12298025 75.82932186 173.15543652 C79.20900844 173.17102226 82.58846394 173.19212856 85.96801758 173.22631836 C89.86285403 173.2628795 93.75736645 173.27976767 97.65234375 173.29296875 C98.8526976 173.30845261 100.05305145 173.32393646 101.28977966 173.33988953 C108.20117242 173.34126267 113.57899479 172.59534336 120 170 C120 169.34 120 168.68 120 168 C120.66 168 121.32 168 122 168 C122 167.34 122 166.68 122 166 C122.66 166 123.32 166 124 166 C124 165.34 124 164.68 124 164 C124.66 164 125.32 164 126 164 C126 163.34 126 162.68 126 162 C126.66 162 127.32 162 128 162 C130.63369686 155.85470733 132.66137342 150.34453048 130.16796875 143.82421875 C128.64723579 140.70870965 126.92459324 137.88688986 125 135 C124.34 135 123.68 135 123 135 C123 134.34 123 133.68 123 133 C119.27034861 130.96564469 117.33094958 130 113 130 C113 129.34 113 128.68 113 128 C109.7 128 106.4 128 103 128 C103 127.34 103 126.68 103 126 C96.18238106 125.9747311 89.36477411 125.95716756 82.54711914 125.94506836 C80.22582549 125.94002667 77.90453503 125.93319349 75.58325195 125.92456055 C72.25471205 125.91248775 68.92621398 125.90677021 65.59765625 125.90234375 C64.55287613 125.89718246 63.50809601 125.89202118 62.43165588 125.88670349 C60.99027504 125.88659019 60.99027504 125.88659019 59.51977539 125.88647461 C58.66928116 125.884254 57.81878693 125.88203339 56.94252014 125.87974548 C54.99411455 125.78519716 54.99411455 125.78519716 54 127 Z " fill="#000000" transform="translate(115,120)"/>
<path d="M0 0 C1.58167213 0.00839149 1.58167213 0.00839149 3.19529724 0.01695251 C4.35178268 0.02832748 5.50826813 0.03970245 6.69979858 0.05142212 C8.52684074 0.063424 8.52684074 0.063424 10.39079285 0.07566833 C13.73153868 0.09879164 17.07218277 0.12653058 20.41286898 0.15662336 C23.90508462 0.18726989 27.39733769 0.2129011 30.8895874 0.23931885 C36.75230299 0.28450373 42.61497097 0.33398625 48.47763062 0.38589478 C55.26397551 0.44591858 62.05034828 0.49867718 68.83678114 0.54766309 C74.65764779 0.58986278 80.47847454 0.63591473 86.29928529 0.68522799 C89.77849786 0.71470314 93.25770745 0.74283613 96.73695755 0.76752853 C100.61134743 0.79528559 104.48563885 0.83112471 108.35995483 0.86782837 C110.10075569 0.87881813 110.10075569 0.87881813 111.87672424 0.89002991 C113.4499369 0.90688087 113.4499369 0.90688087 115.05493164 0.92407227 C115.97190638 0.93182364 116.88888111 0.939575 117.83364296 0.94756126 C119.90048218 1.08901978 119.90048218 1.08901978 120.90048218 2.08901978 C122.58232165 2.32188986 124.27172378 2.50166144 125.96298218 2.65151978 C127.34163452 2.77720337 127.34163452 2.77720337 128.74813843 2.90542603 C129.45841187 2.96601196 130.1686853 3.0265979 130.90048218 3.08901978 C130.90048218 3.74901978 130.90048218 4.40901978 130.90048218 5.08901978 C131.52954468 5.11480103 132.15860718 5.14058228 132.80673218 5.16714478 C139.13063319 5.58619846 143.40606544 6.93481758 148.90048218 10.08901978 C148.90048218 10.74901978 148.90048218 11.40901978 148.90048218 12.08901978 C150.22048218 12.08901978 151.54048218 12.08901978 152.90048218 12.08901978 C152.90048218 12.74901978 152.90048218 13.40901978 152.90048218 14.08901978 C154.07610718 14.55308228 154.07610718 14.55308228 155.27548218 15.02651978 C157.90048218 16.08901978 157.90048218 16.08901978 159.90048218 17.08901978 C159.90048218 17.74901978 159.90048218 18.40901978 159.90048218 19.08901978 C160.56048218 19.08901978 161.22048218 19.08901978 161.90048218 19.08901978 C161.90048218 19.74901978 161.90048218 20.40901978 161.90048218 21.08901978 C162.56048218 21.08901978 163.22048218 21.08901978 163.90048218 21.08901978 C168.90048218 26.44616263 168.90048218 26.44616263 168.90048218 30.08901978 C169.56048218 30.08901978 170.22048218 30.08901978 170.90048218 30.08901978 C170.90048218 30.74901978 170.90048218 31.40901978 170.90048218 32.08901978 C171.56048218 32.08901978 172.22048218 32.08901978 172.90048218 32.08901978 C173.23048218 34.39901978 173.56048218 36.70901978 173.90048218 39.08901978 C174.56048218 39.08901978 175.22048218 39.08901978 175.90048218 39.08901978 C175.90048218 40.73901978 175.90048218 42.38901978 175.90048218 44.08901978 C176.56048218 44.08901978 177.22048218 44.08901978 177.90048218 44.08901978 C177.90048218 46.72901978 177.90048218 49.36901978 177.90048218 52.08901978 C178.56048218 52.08901978 179.22048218 52.08901978 179.90048218 52.08901978 C179.90048218 62.64901978 179.90048218 73.20901978 179.90048218 84.08901978 C179.24048218 84.08901978 178.58048218 84.08901978 177.90048218 84.08901978 C177.90048218 86.39901978 177.90048218 88.70901978 177.90048218 91.08901978 C177.24048218 91.08901978 176.58048218 91.08901978 175.90048218 91.08901978 C175.90048218 92.73901978 175.90048218 94.38901978 175.90048218 96.08901978 C175.24048218 96.08901978 174.58048218 96.08901978 173.90048218 96.08901978 C173.81798218 97.12026978 173.73548218 98.15151978 173.65048218 99.21401978 C172.83584271 103.42299034 171.57132303 105.77070235 168.90048218 109.08901978 C168.24048218 109.08901978 167.58048218 109.08901978 166.90048218 109.08901978 C166.90048218 109.74901978 166.90048218 110.40901978 166.90048218 111.08901978 C166.24048218 111.08901978 165.58048218 111.08901978 164.90048218 111.08901978 C164.57048218 112.40901978 164.24048218 113.72901978 163.90048218 115.08901978 C162.58048218 115.41901978 161.26048218 115.74901978 159.90048218 116.08901978 C159.90048218 116.74901978 159.90048218 117.40901978 159.90048218 118.08901978 C158.58048218 118.08901978 157.26048218 118.08901978 155.90048218 118.08901978 C155.83602905 118.69230103 155.77157593 119.29558228 155.70516968 119.91714478 C154.56418014 122.99670878 152.94951794 123.46599429 150.02548218 124.83901978 C149.1411853 125.26698853 148.25688843 125.69495728 147.34579468 126.13589478 C144.90048218 127.08901978 144.90048218 127.08901978 141.90048218 127.08901978 C141.90048218 127.74901978 141.90048218 128.40901978 141.90048218 129.08901978 C140.93110718 129.37776978 139.96173218 129.66651978 138.96298218 129.96401978 C135.79384014 130.73116659 135.79384014 130.73116659 134.90048218 133.08901978 C135.56048218 133.08901978 136.22048218 133.08901978 136.90048218 133.08901978 C137.23048218 134.73901978 137.56048218 136.38901978 137.90048218 138.08901978 C138.56048218 138.08901978 139.22048218 138.08901978 139.90048218 138.08901978 C139.90048218 139.40901978 139.90048218 140.72901978 139.90048218 142.08901978 C140.56048218 142.08901978 141.22048218 142.08901978 141.90048218 142.08901978 C142.89048218 144.56401978 142.89048218 144.56401978 143.90048218 147.08901978 C144.56048218 147.08901978 145.22048218 147.08901978 145.90048218 147.08901978 C146.23048218 149.06901978 146.56048218 151.04901978 146.90048218 153.08901978 C147.56048218 153.08901978 148.22048218 153.08901978 148.90048218 153.08901978 C149.89048218 155.56401978 149.89048218 155.56401978 150.90048218 158.08901978 C151.56048218 158.08901978 152.22048218 158.08901978 152.90048218 158.08901978 C152.90048218 159.40901978 152.90048218 160.72901978 152.90048218 162.08901978 C153.56048218 162.08901978 154.22048218 162.08901978 154.90048218 162.08901978 C155.23048218 163.73901978 155.56048218 165.38901978 155.90048218 167.08901978 C156.56048218 167.08901978 157.22048218 167.08901978 157.90048218 167.08901978 C157.90048218 168.40901978 157.90048218 169.72901978 157.90048218 171.08901978 C159.22048218 171.74901978 160.54048218 172.40901978 161.90048218 173.08901978 C161.90048218 174.07901978 161.90048218 175.06901978 161.90048218 176.08901978 C162.56048218 176.08901978 163.22048218 176.08901978 163.90048218 176.08901978 C164.23048218 177.73901978 164.56048218 179.38901978 164.90048218 181.08901978 C165.56048218 181.08901978 166.22048218 181.08901978 166.90048218 181.08901978 C168.90048218 184.08901978 168.90048218 184.08901978 168.90048218 187.08901978 C169.56048218 187.08901978 170.22048218 187.08901978 170.90048218 187.08901978 C170.90048218 188.07901978 170.90048218 189.06901978 170.90048218 190.08901978 C171.56048218 190.08901978 172.22048218 190.08901978 172.90048218 190.08901978 C173.23048218 192.06901978 173.56048218 194.04901978 173.90048218 196.08901978 C174.56048218 196.08901978 175.22048218 196.08901978 175.90048218 196.08901978 C175.90048218 196.74901978 175.90048218 197.40901978 175.90048218 198.08901978 C176.56048218 198.08901978 177.22048218 198.08901978 177.90048218 198.08901978 C177.90048218 199.07901978 177.90048218 200.06901978 177.90048218 201.08901978 C178.56048218 201.08901978 179.22048218 201.08901978 179.90048218 201.08901978 C182.90048218 206.71401978 182.90048218 206.71401978 182.90048218 210.08901978 C183.56048218 210.08901978 184.22048218 210.08901978 184.90048218 210.08901978 C184.90048218 210.74901978 184.90048218 211.40901978 184.90048218 212.08901978 C185.56048218 212.08901978 186.22048218 212.08901978 186.90048218 212.08901978 C186.90048218 213.40901978 186.90048218 214.72901978 186.90048218 216.08901978 C187.56048218 216.08901978 188.22048218 216.08901978 188.90048218 216.08901978 C188.90048218 217.07901978 188.90048218 218.06901978 188.90048218 219.08901978 C166.79048218 219.08901978 144.68048218 219.08901978 121.90048218 219.08901978 C121.90048218 218.42901978 121.90048218 217.76901978 121.90048218 217.08901978 C121.24048218 217.08901978 120.58048218 217.08901978 119.90048218 217.08901978 C119.40548218 213.62401978 119.40548218 213.62401978 118.90048218 210.08901978 C118.24048218 210.08901978 117.58048218 210.08901978 116.90048218 210.08901978 C116.90048218 209.09901978 116.90048218 208.10901978 116.90048218 207.08901978 C116.24048218 207.08901978 115.58048218 207.08901978 114.90048218 207.08901978 C112.90048218 204.08901978 112.90048218 204.08901978 112.90048218 201.08901978 C112.24048218 201.08901978 111.58048218 201.08901978 110.90048218 201.08901978 C110.40548218 197.62401978 110.40548218 197.62401978 109.90048218 194.08901978 C109.24048218 194.08901978 108.58048218 194.08901978 107.90048218 194.08901978 C107.90048218 192.76901978 107.90048218 191.44901978 107.90048218 190.08901978 C107.24048218 190.08901978 106.58048218 190.08901978 105.90048218 190.08901978 C104.43985367 187.44163061 103.90048218 186.19453643 103.90048218 183.08901978 C103.24048218 183.08901978 102.58048218 183.08901978 101.90048218 183.08901978 C100.91048218 180.11901978 99.92048218 177.14901978 98.90048218 174.08901978 C98.24048218 174.08901978 97.58048218 174.08901978 96.90048218 174.08901978 C96.90048218 172.76901978 96.90048218 171.44901978 96.90048218 170.08901978 C96.24048218 170.08901978 95.58048218 170.08901978 94.90048218 170.08901978 C94.90048218 169.09901978 94.90048218 168.10901978 94.90048218 167.08901978 C94.24048218 167.08901978 93.58048218 167.08901978 92.90048218 167.08901978 C92.40548218 163.62401978 92.40548218 163.62401978 91.90048218 160.08901978 C91.24048218 160.08901978 90.58048218 160.08901978 89.90048218 160.08901978 C89.90048218 159.42901978 89.90048218 158.76901978 89.90048218 158.08901978 C89.24048218 158.08901978 88.58048218 158.08901978 87.90048218 158.08901978 C87.90048218 156.76901978 87.90048218 155.44901978 87.90048218 154.08901978 C87.24048218 154.08901978 86.58048218 154.08901978 85.90048218 154.08901978 C81.4927373 145.82706078 81.4927373 145.82706078 80.90048218 141.08901978 C80.24048218 141.08901978 79.58048218 141.08901978 78.90048218 141.08901978 C78.90048218 140.09901978 78.90048218 139.10901978 78.90048218 138.08901978 C78.24048218 138.08901978 77.58048218 138.08901978 76.90048218 138.08901978 C76.90048218 137.42901978 76.90048218 136.76901978 76.90048218 136.08901978 C67.33048218 136.08901978 57.76048218 136.08901978 47.90048218 136.08901978 C47.90048218 163.47901978 47.90048218 190.86901978 47.90048218 219.08901978 C29.42048218 219.08901978 10.94048218 219.08901978 -8.09951782 219.08901978 C-8.09951782 147.14901978 -8.09951782 75.20901978 -8.09951782 1.08901978 C-5.08763022 0.08505724 -3.14425522 -0.0239737 0 0 Z M47.90048218 46.08901978 C47.90048218 60.93901978 47.90048218 75.78901978 47.90048218 91.08901978 C67.04048218 91.08901978 86.18048218 91.08901978 105.90048218 91.08901978 C105.90048218 90.42901978 105.90048218 89.76901978 105.90048218 89.08901978 C108.21048218 88.75901978 110.52048218 88.42901978 112.90048218 88.08901978 C112.90048218 87.42901978 112.90048218 86.76901978 112.90048218 86.08901978 C113.64298218 85.90339478 114.38548218 85.71776978 115.15048218 85.52651978 C118.86481938 83.58493442 120.41043128 80.88990472 121.90048218 77.08901978 C122.34378334 74.08250252 122.28550367 71.18171358 122.15048218 68.15151978 C122.1324353 67.37228149 122.11438843 66.59304321 122.09579468 65.79019165 C122.04914601 63.88925846 121.97742047 61.98896809 121.90048218 60.08901978 C121.24048218 60.08901978 120.58048218 60.08901978 119.90048218 60.08901978 C119.40548218 57.61401978 119.40548218 57.61401978 118.90048218 55.08901978 C118.24048218 55.08901978 117.58048218 55.08901978 116.90048218 55.08901978 C116.90048218 54.42901978 116.90048218 53.76901978 116.90048218 53.08901978 C116.24048218 53.08901978 115.58048218 53.08901978 114.90048218 53.08901978 C114.90048218 52.42901978 114.90048218 51.76901978 114.90048218 51.08901978 C111.04291711 48.9359602 108.34918433 47.69648723 103.90048218 48.08901978 C103.90048218 47.42901978 103.90048218 46.76901978 103.90048218 46.08901978 C85.42048218 46.08901978 66.94048218 46.08901978 47.90048218 46.08901978 Z " fill="#000000" transform="translate(539.0995178222656,118.91098022460938)"/>
<path d="M0 0 C2.06851557 0.0053557 4.13681325 0.00002076 6.20532227 -0.00634766 C17.70624238 -0.01293648 28.95308161 0.28701145 40.13696289 3.13037109 C40.13696289 3.79037109 40.13696289 4.45037109 40.13696289 5.13037109 C41.78696289 5.13037109 43.43696289 5.13037109 45.13696289 5.13037109 C45.13696289 5.79037109 45.13696289 6.45037109 45.13696289 7.13037109 C45.99547852 7.07880859 46.85399414 7.02724609 47.73852539 6.97412109 C51.53936764 7.14887246 54.04854473 8.09107413 57.51196289 9.63037109 C58.57157227 10.09443359 59.63118164 10.55849609 60.72290039 11.03662109 C61.51954102 11.39755859 62.31618164 11.75849609 63.13696289 12.13037109 C63.13696289 12.79037109 63.13696289 13.45037109 63.13696289 14.13037109 C63.79696289 14.13037109 64.45696289 14.13037109 65.13696289 14.13037109 C65.13696289 14.79037109 65.13696289 15.45037109 65.13696289 16.13037109 C66.45696289 16.13037109 67.77696289 16.13037109 69.13696289 16.13037109 C69.13696289 16.79037109 69.13696289 17.45037109 69.13696289 18.13037109 C70.31258789 18.59443359 70.31258789 18.59443359 71.51196289 19.06787109 C74.13696289 20.13037109 74.13696289 20.13037109 76.13696289 21.13037109 C76.13696289 21.79037109 76.13696289 22.45037109 76.13696289 23.13037109 C76.79696289 23.13037109 77.45696289 23.13037109 78.13696289 23.13037109 C78.13696289 23.79037109 78.13696289 24.45037109 78.13696289 25.13037109 C78.79696289 25.13037109 79.45696289 25.13037109 80.13696289 25.13037109 C81.86352539 27.02880859 81.86352539 27.02880859 83.76196289 29.50537109 C84.39360352 30.31748047 85.02524414 31.12958984 85.67602539 31.96630859 C87.13696289 34.13037109 87.13696289 34.13037109 87.13696289 36.13037109 C87.79696289 36.13037109 88.45696289 36.13037109 89.13696289 36.13037109 C91.56856894 39.49721024 92.13696289 40.86387474 92.13696289 45.13037109 C92.79696289 45.13037109 93.45696289 45.13037109 94.13696289 45.13037109 C94.13696289 46.78037109 94.13696289 48.43037109 94.13696289 50.13037109 C94.79696289 50.13037109 95.45696289 50.13037109 96.13696289 50.13037109 C97.55955101 53.95357667 98.37738565 57.04318414 98.13696289 61.13037109 C97.47696289 61.13037109 96.81696289 61.13037109 96.13696289 61.13037109 C96.13696289 61.79037109 96.13696289 62.45037109 96.13696289 63.13037109 C92.50696289 63.46037109 88.87696289 63.79037109 85.13696289 64.13037109 C85.13696289 64.79037109 85.13696289 65.45037109 85.13696289 66.13037109 C84.35450195 66.33533203 83.57204102 66.54029297 82.76586914 66.75146484 C81.75395508 67.02087891 80.74204102 67.29029297 79.69946289 67.56787109 C78.69012695 67.83470703 77.68079102 68.10154297 76.64086914 68.37646484 C74.21944288 68.89015186 74.21944288 68.89015186 73.13696289 70.13037109 C71.13737925 70.17117892 69.13651035 70.17291466 67.13696289 70.13037109 C67.13696289 70.79037109 67.13696289 71.45037109 67.13696289 72.13037109 C65.99356445 72.40751953 64.85016602 72.68466797 63.67211914 72.97021484 C62.18118824 73.33591488 60.69030528 73.70181039 59.19946289 74.06787109 C58.4447168 74.25027344 57.6899707 74.43267578 56.91235352 74.62060547 C53.22416468 75.26876289 53.22416468 75.26876289 50.13696289 77.13037109 C48.13737925 77.17117892 46.13651035 77.17291466 44.13696289 77.13037109 C44.13696289 75.48037109 44.13696289 73.83037109 44.13696289 72.13037109 C43.47696289 72.13037109 42.81696289 72.13037109 42.13696289 72.13037109 C42.13696289 70.81037109 42.13696289 69.49037109 42.13696289 68.13037109 C41.47696289 68.13037109 40.81696289 68.13037109 40.13696289 68.13037109 C40.13696289 66.81037109 40.13696289 65.49037109 40.13696289 64.13037109 C39.47696289 64.13037109 38.81696289 64.13037109 38.13696289 64.13037109 C35.13696289 59.74575571 35.13696289 59.74575571 35.13696289 57.13037109 C34.47696289 57.13037109 33.81696289 57.13037109 33.13696289 57.13037109 C33.13696289 56.47037109 33.13696289 55.81037109 33.13696289 55.13037109 C31.81696289 54.80037109 30.49696289 54.47037109 29.13696289 54.13037109 C29.13696289 53.47037109 29.13696289 52.81037109 29.13696289 52.13037109 C28.14696289 52.13037109 27.15696289 52.13037109 26.13696289 52.13037109 C26.13696289 51.47037109 26.13696289 50.81037109 26.13696289 50.13037109 C25.53883789 49.98599609 24.94071289 49.84162109 24.32446289 49.69287109 C22.57545885 49.2431272 20.85019266 48.70144768 19.13696289 48.13037109 C19.13696289 47.47037109 19.13696289 46.81037109 19.13696289 46.13037109 C6.92696289 46.13037109 -5.28303711 46.13037109 -17.86303711 46.13037109 C-17.86303711 46.79037109 -17.86303711 47.45037109 -17.86303711 48.13037109 C-18.85303711 48.13037109 -19.84303711 48.13037109 -20.86303711 48.13037109 C-20.86303711 48.79037109 -20.86303711 49.45037109 -20.86303711 50.13037109 C-26.33922759 55.13037109 -26.33922759 55.13037109 -28.86303711 55.13037109 C-29.04866211 56.67724609 -29.04866211 56.67724609 -29.23803711 58.25537109 C-29.80193525 61.75153956 -30.6498577 64.81434737 -31.86303711 68.13037109 C-31.20303711 68.13037109 -30.54303711 68.13037109 -29.86303711 68.13037109 C-29.36803711 71.59537109 -29.36803711 71.59537109 -28.86303711 75.13037109 C-28.20303711 75.13037109 -27.54303711 75.13037109 -26.86303711 75.13037109 C-26.86303711 75.79037109 -26.86303711 76.45037109 -26.86303711 77.13037109 C-26.20303711 77.13037109 -25.54303711 77.13037109 -24.86303711 77.13037109 C-24.86303711 77.79037109 -24.86303711 78.45037109 -24.86303711 79.13037109 C-22.88303711 79.79037109 -20.90303711 80.45037109 -18.86303711 81.13037109 C-18.86303711 81.79037109 -18.86303711 82.45037109 -18.86303711 83.13037109 C-14.90303711 83.46037109 -10.94303711 83.79037109 -6.86303711 84.13037109 C-6.86303711 84.79037109 -6.86303711 85.45037109 -6.86303711 86.13037109 C-6.00838867 86.11876953 -5.15374023 86.10716797 -4.27319336 86.09521484 C-3.1684668 86.08619141 -2.06374023 86.07716797 -0.92553711 86.06787109 C0.17661133 86.05626953 1.27875977 86.04466797 2.41430664 86.03271484 C5.13696289 86.13037109 5.13696289 86.13037109 6.13696289 87.13037109 C8.66292548 87.36690632 11.16803496 87.55210801 13.69946289 87.69287109 C14.41038086 87.73605469 15.12129883 87.77923828 15.85375977 87.82373047 C17.61458201 87.93008886 19.37574609 88.03075955 21.13696289 88.13037109 C21.13696289 88.79037109 21.13696289 89.45037109 21.13696289 90.13037109 C24.43696289 90.13037109 27.73696289 90.13037109 31.13696289 90.13037109 C31.13696289 90.79037109 31.13696289 91.45037109 31.13696289 92.13037109 C38.06696289 92.62537109 38.06696289 92.62537109 45.13696289 93.13037109 C45.13696289 93.79037109 45.13696289 94.45037109 45.13696289 95.13037109 C47.11696289 95.13037109 49.09696289 95.13037109 51.13696289 95.13037109 C51.13696289 95.79037109 51.13696289 96.45037109 51.13696289 97.13037109 C52.78696289 97.13037109 54.43696289 97.13037109 56.13696289 97.13037109 C56.13696289 97.79037109 56.13696289 98.45037109 56.13696289 99.13037109 C57.45696289 99.13037109 58.77696289 99.13037109 60.13696289 99.13037109 C60.13696289 99.79037109 60.13696289 100.45037109 60.13696289 101.13037109 C62.44696289 101.46037109 64.75696289 101.79037109 67.13696289 102.13037109 C67.13696289 102.79037109 67.13696289 103.45037109 67.13696289 104.13037109 C67.77633789 104.23349609 68.41571289 104.33662109 69.07446289 104.44287109 C69.75508789 104.66974609 70.43571289 104.89662109 71.13696289 105.13037109 C71.46696289 106.12037109 71.79696289 107.11037109 72.13696289 108.13037109 C73.45696289 108.13037109 74.77696289 108.13037109 76.13696289 108.13037109 C76.13696289 108.79037109 76.13696289 109.45037109 76.13696289 110.13037109 C76.73508789 110.21287109 77.33321289 110.29537109 77.94946289 110.38037109 C80.76628562 111.34613889 81.61495421 112.61905676 83.13696289 115.13037109 C83.13696289 115.79037109 83.13696289 116.45037109 83.13696289 117.13037109 C83.79696289 117.13037109 84.45696289 117.13037109 85.13696289 117.13037109 C85.13696289 117.79037109 85.13696289 118.45037109 85.13696289 119.13037109 C85.73508789 119.19224609 86.33321289 119.25412109 86.94946289 119.31787109 C90.05963137 120.47307653 90.74113997 122.19914296 92.13696289 125.13037109 C92.13696289 126.12037109 92.13696289 127.11037109 92.13696289 128.13037109 C92.79696289 128.13037109 93.45696289 128.13037109 94.13696289 128.13037109 C94.76956613 129.77329699 95.39256838 131.41992 96.01196289 133.06787109 C96.5340332 134.44265625 96.5340332 134.44265625 97.06665039 135.84521484 C99.50530194 143.33027306 100.44165371 150.20375047 100.32446289 158.06787109 C100.32349609 159.34114258 100.32349609 159.34114258 100.32250977 160.64013672 C100.2780608 166.84817527 100.2780608 166.84817527 99.13696289 169.13037109 C98.91228459 170.66705975 98.72899484 172.21005163 98.57446289 173.75537109 C98.49067383 174.57263672 98.40688477 175.38990234 98.32055664 176.23193359 C98.2599707 176.85841797 98.19938477 177.48490234 98.13696289 178.13037109 C97.47696289 178.13037109 96.81696289 178.13037109 96.13696289 178.13037109 C96.13696289 179.78037109 96.13696289 181.43037109 96.13696289 183.13037109 C95.47696289 183.13037109 94.81696289 183.13037109 94.13696289 183.13037109 C94.13696289 184.45037109 94.13696289 185.77037109 94.13696289 187.13037109 C93.47696289 187.13037109 92.81696289 187.13037109 92.13696289 187.13037109 C92.01321289 187.87287109 91.88946289 188.61537109 91.76196289 189.38037109 C91.18209588 191.93178594 90.3998755 193.8571284 89.13696289 196.13037109 C88.47696289 196.13037109 87.81696289 196.13037109 87.13696289 196.13037109 C86.47696289 197.78037109 85.81696289 199.43037109 85.13696289 201.13037109 C84.47696289 201.13037109 83.81696289 201.13037109 83.13696289 201.13037109 C83.13696289 201.79037109 83.13696289 202.45037109 83.13696289 203.13037109 C82.47696289 203.13037109 81.81696289 203.13037109 81.13696289 203.13037109 C80.47696289 204.45037109 79.81696289 205.77037109 79.13696289 207.13037109 C78.14696289 207.13037109 77.15696289 207.13037109 76.13696289 207.13037109 C76.13696289 207.79037109 76.13696289 208.45037109 76.13696289 209.13037109 C75.47696289 209.13037109 74.81696289 209.13037109 74.13696289 209.13037109 C74.13696289 209.79037109 74.13696289 210.45037109 74.13696289 211.13037109 C72.48696289 211.46037109 70.83696289 211.79037109 69.13696289 212.13037109 C69.13696289 212.79037109 69.13696289 213.45037109 69.13696289 214.13037109 C68.47696289 214.13037109 67.81696289 214.13037109 67.13696289 214.13037109 C67.13696289 214.79037109 67.13696289 215.45037109 67.13696289 216.13037109 C65.81696289 216.13037109 64.49696289 216.13037109 63.13696289 216.13037109 C63.13696289 216.79037109 63.13696289 217.45037109 63.13696289 218.13037109 C53.72694011 221.57456244 53.72694011 221.57456244 49.13696289 221.13037109 C49.13696289 221.79037109 49.13696289 222.45037109 49.13696289 223.13037109 C44.80416806 224.71553993 40.69852523 225.5042743 36.13696289 226.13037109 C35.80696289 226.46037109 35.47696289 226.79037109 35.13696289 227.13037109 C32.03653516 227.45483446 28.9348904 227.6437155 25.82446289 227.84912109 C23.22099537 227.83644908 23.22099537 227.83644908 22.13696289 229.13037109 C19.40972011 229.23136597 16.70833766 229.27007638 13.98071289 229.26318359 C12.75451233 229.26461868 12.75451233 229.26461868 11.50354004 229.26608276 C9.77180912 229.26676455 8.04007565 229.26491039 6.30834961 229.26074219 C3.64829807 229.25539388 0.98841539 229.26068721 -1.67163086 229.26708984 C-3.35001665 229.26642906 -5.02840234 229.2651479 -6.70678711 229.26318359 C-7.5078186 229.26520782 -8.3088501 229.26723206 -9.13415527 229.26931763 C-14.74808632 229.24532188 -14.74808632 229.24532188 -15.86303711 228.13037109 C-17.85906917 227.92148402 -19.86046652 227.76261632 -21.86303711 227.63037109 C-27.751926 227.2414822 -27.751926 227.2414822 -28.86303711 226.13037109 C-30.21050795 225.89962027 -31.56681276 225.71884047 -32.92553711 225.56787109 C-34.22491211 225.42349609 -35.52428711 225.27912109 -36.86303711 225.13037109 C-36.86303711 224.47037109 -36.86303711 223.81037109 -36.86303711 223.13037109 C-37.74991211 223.17162109 -38.63678711 223.21287109 -39.55053711 223.25537109 C-42.97625938 223.12609856 -44.7599287 222.50151202 -47.86303711 221.13037109 C-50.85156264 220.09549317 -53.85689226 219.11277137 -56.86303711 218.13037109 C-56.86303711 217.47037109 -56.86303711 216.81037109 -56.86303711 216.13037109 C-58.18303711 216.13037109 -59.50303711 216.13037109 -60.86303711 216.13037109 C-60.86303711 215.47037109 -60.86303711 214.81037109 -60.86303711 214.13037109 C-62.18303711 214.13037109 -63.50303711 214.13037109 -64.86303711 214.13037109 C-64.86303711 213.47037109 -64.86303711 212.81037109 -64.86303711 212.13037109 C-66.51303711 211.80037109 -68.16303711 211.47037109 -69.86303711 211.13037109 C-69.86303711 210.47037109 -69.86303711 209.81037109 -69.86303711 209.13037109 C-70.52303711 209.13037109 -71.18303711 209.13037109 -71.86303711 209.13037109 C-71.86303711 208.47037109 -71.86303711 207.81037109 -71.86303711 207.13037109 C-72.85303711 207.13037109 -73.84303711 207.13037109 -74.86303711 207.13037109 C-74.86303711 206.47037109 -74.86303711 205.81037109 -74.86303711 205.13037109 C-75.52303711 205.13037109 -76.18303711 205.13037109 -76.86303711 205.13037109 C-76.86303711 204.47037109 -76.86303711 203.81037109 -76.86303711 203.13037109 C-77.46116211 203.04787109 -78.05928711 202.96537109 -78.67553711 202.88037109 C-81.49235984 201.9146033 -82.34102842 200.64168542 -83.86303711 198.13037109 C-83.86303711 197.47037109 -83.86303711 196.81037109 -83.86303711 196.13037109 C-84.52303711 196.13037109 -85.18303711 196.13037109 -85.86303711 196.13037109 C-85.86303711 195.14037109 -85.86303711 194.15037109 -85.86303711 193.13037109 C-86.52303711 193.13037109 -87.18303711 193.13037109 -87.86303711 193.13037109 C-87.86303711 192.47037109 -87.86303711 191.81037109 -87.86303711 191.13037109 C-88.52303711 191.13037109 -89.18303711 191.13037109 -89.86303711 191.13037109 C-92.86303711 185.50537109 -92.86303711 185.50537109 -92.86303711 182.13037109 C-93.52303711 182.13037109 -94.18303711 182.13037109 -94.86303711 182.13037109 C-94.86303711 180.81037109 -94.86303711 179.49037109 -94.86303711 178.13037109 C-95.52303711 178.13037109 -96.18303711 178.13037109 -96.86303711 178.13037109 C-96.86303711 176.48037109 -96.86303711 174.83037109 -96.86303711 173.13037109 C-97.52303711 173.13037109 -98.18303711 173.13037109 -98.86303711 173.13037109 C-98.86303711 171.15037109 -98.86303711 169.17037109 -98.86303711 167.13037109 C-99.52303711 167.13037109 -100.18303711 167.13037109 -100.86303711 167.13037109 C-100.86303711 164.82037109 -100.86303711 162.51037109 -100.86303711 160.13037109 C-100.20303711 160.13037109 -99.54303711 160.13037109 -98.86303711 160.13037109 C-98.86303711 159.47037109 -98.86303711 158.81037109 -98.86303711 158.13037109 C-95.23303711 157.80037109 -91.60303711 157.47037109 -87.86303711 157.13037109 C-87.86303711 156.47037109 -87.86303711 155.81037109 -87.86303711 155.13037109 C-84.03983154 153.70778297 -80.95022406 152.88994833 -76.86303711 153.13037109 C-76.86303711 152.47037109 -76.86303711 151.81037109 -76.86303711 151.13037109 C-74.15752591 150.28678185 -71.44923168 149.45532339 -68.73803711 148.63037109 C-67.97749023 148.39189453 -67.21694336 148.15341797 -66.43334961 147.90771484 C-62.11329093 146.60424886 -58.4299732 145.83855409 -53.86303711 146.13037109 C-53.86303711 145.47037109 -53.86303711 144.81037109 -53.86303711 144.13037109 C-48.23803711 143.00537109 -48.23803711 143.00537109 -44.86303711 144.13037109 C-44.86303711 146.44037109 -44.86303711 148.75037109 -44.86303711 151.13037109 C-44.20303711 151.13037109 -43.54303711 151.13037109 -42.86303711 151.13037109 C-42.86303711 152.45037109 -42.86303711 153.77037109 -42.86303711 155.13037109 C-42.20303711 155.13037109 -41.54303711 155.13037109 -40.86303711 155.13037109 C-39.87303711 158.10037109 -38.88303711 161.07037109 -37.86303711 164.13037109 C-37.20303711 164.13037109 -36.54303711 164.13037109 -35.86303711 164.13037109 C-35.86303711 165.12037109 -35.86303711 166.11037109 -35.86303711 167.13037109 C-35.20303711 167.13037109 -34.54303711 167.13037109 -33.86303711 167.13037109 C-33.86303711 167.79037109 -33.86303711 168.45037109 -33.86303711 169.13037109 C-33.20303711 169.13037109 -32.54303711 169.13037109 -31.86303711 169.13037109 C-31.86303711 169.79037109 -31.86303711 170.45037109 -31.86303711 171.13037109 C-31.20303711 171.13037109 -30.54303711 171.13037109 -29.86303711 171.13037109 C-29.53303711 172.45037109 -29.20303711 173.77037109 -28.86303711 175.13037109 C-26.88303711 175.46037109 -24.90303711 175.79037109 -22.86303711 176.13037109 C-22.86303711 176.79037109 -22.86303711 177.45037109 -22.86303711 178.13037109 C-21.87303711 178.13037109 -20.88303711 178.13037109 -19.86303711 178.13037109 C-19.86303711 178.79037109 -19.86303711 179.45037109 -19.86303711 180.13037109 C-16.20846896 180.88278218 -12.54569814 181.53086814 -8.86303711 182.13037109 C-8.86303711 182.79037109 -8.86303711 183.45037109 -8.86303711 184.13037109 C-4.34148864 184.04912417 0.17874773 183.93630802 4.69946289 183.81787109 C6.6146875 183.7840332 6.6146875 183.7840332 8.56860352 183.74951172 C15.19852127 183.5600855 20.24689697 183.21170993 26.13696289 180.13037109 C27.12696289 180.13037109 28.11696289 180.13037109 29.13696289 180.13037109 C29.13696289 179.47037109 29.13696289 178.81037109 29.13696289 178.13037109 C30.45696289 178.13037109 31.77696289 178.13037109 33.13696289 178.13037109 C33.13696289 177.47037109 33.13696289 176.81037109 33.13696289 176.13037109 C34.51196289 174.50537109 34.51196289 174.50537109 36.13696289 173.13037109 C36.79696289 173.13037109 37.45696289 173.13037109 38.13696289 173.13037109 C38.28133789 172.53224609 38.42571289 171.93412109 38.57446289 171.31787109 C39.02420679 169.56886705 39.5658863 167.84360087 40.13696289 166.13037109 C40.79696289 166.13037109 41.45696289 166.13037109 42.13696289 166.13037109 C42.13696289 162.83037109 42.13696289 159.53037109 42.13696289 156.13037109 C41.47696289 156.13037109 40.81696289 156.13037109 40.13696289 156.13037109 C40.13696289 155.14037109 40.13696289 154.15037109 40.13696289 153.13037109 C39.47696289 153.13037109 38.81696289 153.13037109 38.13696289 153.13037109 C37.80696289 151.81037109 37.47696289 150.49037109 37.13696289 149.13037109 C36.47696289 149.13037109 35.81696289 149.13037109 35.13696289 149.13037109 C35.13696289 148.47037109 35.13696289 147.81037109 35.13696289 147.13037109 C32.16696289 146.14037109 29.19696289 145.15037109 26.13696289 144.13037109 C26.13696289 143.47037109 26.13696289 142.81037109 26.13696289 142.13037109 C24.93040039 142.16130859 24.93040039 142.16130859 23.69946289 142.19287109 C21.13696289 142.13037109 21.13696289 142.13037109 20.13696289 141.13037109 C17.80878325 140.76276378 15.47512439 140.42795528 13.13696289 140.13037109 C13.13696289 139.47037109 13.13696289 138.81037109 13.13696289 138.13037109 C12.33774414 138.14197266 11.53852539 138.15357422 10.71508789 138.16552734 C3.16957544 138.22752099 -4.37585224 138.17599519 -11.86303711 137.13037109 C-12.19303711 136.80037109 -12.52303711 136.47037109 -12.86303711 136.13037109 C-14.87898293 135.89609332 -16.90151111 135.71700985 -18.92553711 135.56787109 C-20.03026367 135.48408203 -21.13499023 135.40029297 -22.27319336 135.31396484 C-23.1278418 135.25337891 -23.98249023 135.19279297 -24.86303711 135.13037109 C-24.86303711 134.47037109 -24.86303711 133.81037109 -24.86303711 133.13037109 C-27.83303711 133.13037109 -30.80303711 133.13037109 -33.86303711 133.13037109 C-33.86303711 132.47037109 -33.86303711 131.81037109 -33.86303711 131.13037109 C-36.17303711 131.13037109 -38.48303711 131.13037109 -40.86303711 131.13037109 C-40.86303711 130.47037109 -40.86303711 129.81037109 -40.86303711 129.13037109 C-43.83303711 128.80037109 -46.80303711 128.47037109 -49.86303711 128.13037109 C-49.86303711 127.47037109 -49.86303711 126.81037109 -49.86303711 126.13037109 C-50.56428711 126.02724609 -51.26553711 125.92412109 -51.98803711 125.81787109 C-55.25441358 125.03678107 -57.91022231 123.70978366 -60.86303711 122.13037109 C-60.86303711 121.47037109 -60.86303711 120.81037109 -60.86303711 120.13037109 C-63.17303711 119.80037109 -65.48303711 119.47037109 -67.86303711 119.13037109 C-67.86303711 118.47037109 -67.86303711 117.81037109 -67.86303711 117.13037109 C-68.52303711 117.13037109 -69.18303711 117.13037109 -69.86303711 117.13037109 C-69.86303711 116.47037109 -69.86303711 115.81037109 -69.86303711 115.13037109 C-70.52303711 115.13037109 -71.18303711 115.13037109 -71.86303711 115.13037109 C-71.86303711 114.47037109 -71.86303711 113.81037109 -71.86303711 113.13037109 C-72.52303711 113.13037109 -73.18303711 113.13037109 -73.86303711 113.13037109 C-75.48803711 111.75537109 -75.48803711 111.75537109 -76.86303711 110.13037109 C-76.86303711 109.47037109 -76.86303711 108.81037109 -76.86303711 108.13037109 C-77.52303711 108.13037109 -78.18303711 108.13037109 -78.86303711 108.13037109 C-78.86303711 106.81037109 -78.86303711 105.49037109 -78.86303711 104.13037109 C-79.52303711 104.13037109 -80.18303711 104.13037109 -80.86303711 104.13037109 C-80.86303711 103.47037109 -80.86303711 102.81037109 -80.86303711 102.13037109 C-81.52303711 102.13037109 -82.18303711 102.13037109 -82.86303711 102.13037109 C-83.19303711 99.16037109 -83.52303711 96.19037109 -83.86303711 93.13037109 C-84.52303711 93.13037109 -85.18303711 93.13037109 -85.86303711 93.13037109 C-85.86303711 91.48037109 -85.86303711 89.83037109 -85.86303711 88.13037109 C-86.52303711 88.13037109 -87.18303711 88.13037109 -87.86303711 88.13037109 C-87.86303711 84.50037109 -87.86303711 80.87037109 -87.86303711 77.13037109 C-88.52303711 77.13037109 -89.18303711 77.13037109 -89.86303711 77.13037109 C-89.88988023 74.31780828 -89.90979899 71.50549868 -89.92553711 68.69287109 C-89.93391602 67.89042969 -89.94229492 67.08798828 -89.95092773 66.26123047 C-89.95955141 64.21741888 -89.91531861 62.17353208 -89.86303711 60.13037109 C-89.36803711 59.63537109 -89.36803711 59.63537109 -88.86303711 59.13037109 C-88.63110846 57.61567661 -88.45088472 56.09282548 -88.30053711 54.56787109 C-88.21674805 53.74158203 -88.13295898 52.91529297 -88.04663086 52.06396484 C-87.98604492 51.42587891 -87.92545898 50.78779297 -87.86303711 50.13037109 C-87.20303711 50.13037109 -86.54303711 50.13037109 -85.86303711 50.13037109 C-85.86303711 48.48037109 -85.86303711 46.83037109 -85.86303711 45.13037109 C-85.20303711 45.13037109 -84.54303711 45.13037109 -83.86303711 45.13037109 C-83.53303711 42.82037109 -83.20303711 40.51037109 -82.86303711 38.13037109 C-82.20303711 38.13037109 -81.54303711 38.13037109 -80.86303711 38.13037109 C-80.71866211 37.51162109 -80.57428711 36.89287109 -80.42553711 36.25537109 C-79.86303711 34.13037109 -79.86303711 34.13037109 -78.86303711 32.13037109 C-78.20303711 32.13037109 -77.54303711 32.13037109 -76.86303711 32.13037109 C-76.86303711 31.47037109 -76.86303711 30.81037109 -76.86303711 30.13037109 C-76.20303711 30.13037109 -75.54303711 30.13037109 -74.86303711 30.13037109 C-74.63616211 29.38787109 -74.40928711 28.64537109 -74.17553711 27.88037109 C-72.604081 24.5877964 -70.86307995 23.15540001 -67.86303711 21.13037109 C-67.20303711 21.13037109 -66.54303711 21.13037109 -65.86303711 21.13037109 C-65.36803711 19.64537109 -65.36803711 19.64537109 -64.86303711 18.13037109 C-64.20303711 18.13037109 -63.54303711 18.13037109 -62.86303711 18.13037109 C-62.86303711 17.47037109 -62.86303711 16.81037109 -62.86303711 16.13037109 C-61.54303711 16.13037109 -60.22303711 16.13037109 -58.86303711 16.13037109 C-58.86303711 15.47037109 -58.86303711 14.81037109 -58.86303711 14.13037109 C-46.59967833 7.13037109 -46.59967833 7.13037109 -40.86303711 7.13037109 C-40.86303711 6.47037109 -40.86303711 5.81037109 -40.86303711 5.13037109 C-39.86401367 4.92541016 -38.86499023 4.72044922 -37.83569336 4.50927734 C-36.5453418 4.23986328 -35.25499023 3.97044922 -33.92553711 3.69287109 C-32.63776367 3.42603516 -31.34999023 3.15919922 -30.02319336 2.88427734 C-27.01664831 2.45855493 -27.01664831 2.45855493 -25.86303711 1.13037109 C-17.31234405 -0.10343107 -8.62048995 -0.02645883 0 0 Z " fill="#000000" transform="translate(833.863037109375,114.86962890625)"/>
<path d="M0 0 C18.48 0 36.96 0 56 0 C56.33 27.72 56.66 55.44 57 84 C57.99 82.515 57.99 82.515 59 81 C59.66 81 60.32 81 61 81 C61.66 79.35 62.32 77.7 63 76 C63.66 76 64.32 76 65 76 C65 75.34 65 74.68 65 74 C65.66 74 66.32 74 67 74 C67.495 72.02 67.495 72.02 68 70 C69.32 69.67 70.64 69.34 72 69 C72 68.34 72 67.68 72 67 C72.66 67 73.32 67 74 67 C74.12375 66.401875 74.2475 65.80375 74.375 65.1875 C75 63 75 63 77 60 C77.66 60 78.32 60 79 60 C79 59.34 79 58.68 79 58 C79.66 58 80.32 58 81 58 C81 57.34 81 56.68 81 56 C81.66 56 82.32 56 83 56 C83.268125 55.2575 83.53625 54.515 83.8125 53.75 C84.95276751 51.10938051 86.09380306 49.14447156 88 47 C88.66 47 89.32 47 90 47 C90 46.34 90 45.68 90 45 C90.66 45 91.32 45 92 45 C92 44.34 92 43.68 92 43 C92.66 43 93.32 43 94 43 C94.33 42.01 94.66 41.02 95 40 C95.66 40 96.32 40 97 40 C97.2475 39.21625 97.495 38.4325 97.75 37.625 C99.20780864 34.56360186 100.07993473 34.41293481 103 33 C103.80528889 30.94999129 103.80528889 30.94999129 104 29 C104.66 29 105.32 29 106 29 C106 28.34 106 27.68 106 27 C106.66 27 107.32 27 108 27 C108 26.34 108 25.68 108 25 C108.66 25 109.32 25 110 25 C110 24.34 110 23.68 110 23 C110.66 23 111.32 23 112 23 C112.185625 22.1028125 112.185625 22.1028125 112.375 21.1875 C113 19 113 19 115 16 C115.66 16 116.32 16 117 16 C117 15.34 117 14.68 117 14 C117.61875 13.938125 118.2375 13.87625 118.875 13.8125 C121.25602845 13.17948312 121.25602845 13.17948312 122.1875 10.5625 C122.455625 9.716875 122.72375 8.87125 123 8 C123.33 7.34 123.66 6.68 124 6 C124.66 6 125.32 6 126 6 C126 5.34 126 4.68 126 4 C126.66 4 127.32 4 128 4 C128 3.34 128 2.68 128 2 C128.66 2 129.32 2 130 2 C130 1.34 130 0.68 130 0 C154.09 0 178.18 0 203 0 C203 1.32 203 2.64 203 4 C202.01 4.33 201.02 4.66 200 5 C200 5.66 200 6.32 200 7 C199.34 7 198.68 7 198 7 C197.731875 7.7425 197.46375 8.485 197.1875 9.25 C196.04723249 11.89061949 194.90619694 13.85552844 193 16 C192.34 16 191.68 16 191 16 C191 16.66 191 17.32 191 18 C190.34 18 189.68 18 189 18 C189 18.66 189 19.32 189 20 C188.34 20 187.68 20 187 20 C186.67 20.99 186.34 21.98 186 23 C185.34 23 184.68 23 184 23 C184 23.66 184 24.32 184 25 C183.34 25 182.68 25 182 25 C182 25.66 182 26.32 182 27 C181.34 27 180.68 27 180 27 C179.6596875 27.7734375 179.6596875 27.7734375 179.3125 28.5625 C177.51782382 31.89547005 175.50034985 35.14703671 173 38 C172.34 38 171.68 38 171 38 C171 38.66 171 39.32 171 40 C168.625 42.625 168.625 42.625 166 45 C165.34 45 164.68 45 164 45 C164 45.66 164 46.32 164 47 C163.34 47 162.68 47 162 47 C162 47.66 162 48.32 162 49 C161.01 49.66 160.02 50.32 159 51 C158.67 51.99 158.34 52.98 158 54 C157.34 54 156.68 54 156 54 C155.731875 54.639375 155.46375 55.27875 155.1875 55.9375 C154 58 154 58 151 59 C151 59.66 151 60.32 151 61 C150.34 61 149.68 61 149 61 C148.67 62.32 148.34 63.64 148 65 C147.34 65 146.68 65 146 65 C146 65.66 146 66.32 146 67 C142.53846154 70 142.53846154 70 140 70 C139.87625 70.598125 139.7525 71.19625 139.625 71.8125 C139 74 139 74 137 77 C136.34 77 135.68 77 135 77 C135 77.66 135 78.32 135 79 C134.34 79 133.68 79 133 79 C133 79.66 133 80.32 133 81 C132.34 81 131.68 81 131 81 C130.731875 81.556875 130.46375 82.11375 130.1875 82.6875 C128.89877353 85.19712523 127.47073522 87.59334236 126 90 C126.66 90 127.32 90 128 90 C131 95.625 131 95.625 131 99 C131.66 99 132.32 99 133 99 C133 99.66 133 100.32 133 101 C133.66 101 134.32 101 135 101 C135 102.32 135 103.64 135 105 C135.66 105 136.32 105 137 105 C137 105.99 137 106.98 137 108 C137.66 108 138.32 108 139 108 C139.33 109.98 139.66 111.96 140 114 C140.66 114 141.32 114 142 114 C142 114.66 142 115.32 142 116 C142.66 116 143.32 116 144 116 C144 116.99 144 117.98 144 119 C144.66 119 145.32 119 146 119 C146 120.32 146 121.64 146 123 C146.66 123 147.32 123 148 123 C148.33 124.65 148.66 126.3 149 128 C149.66 128 150.32 128 151 128 C151 129.32 151 130.64 151 132 C151.66 132 152.32 132 153 132 C153 132.66 153 133.32 153 134 C153.66 134 154.32 134 155 134 C155 134.99 155 135.98 155 137 C155.66 137 156.32 137 157 137 C157.99 139.97 158.98 142.94 160 146 C160.66 146 161.32 146 162 146 C162 147.32 162 148.64 162 150 C162.66 150 163.32 150 164 150 C164 150.99 164 151.98 164 153 C164.66 153 165.32 153 166 153 C169 158.625 169 158.625 169 162 C169.66 162 170.32 162 171 162 C173 165 173 165 173 168 C173.66 168 174.32 168 175 168 C178 173.625 178 173.625 178 177 C178.66 177 179.32 177 180 177 C180 177.99 180 178.98 180 180 C180.66 180 181.32 180 182 180 C182.84384675 181.41042956 183.67469496 182.82864132 184.5 184.25 C184.9640625 185.03890625 185.428125 185.8278125 185.90625 186.640625 C187 189 187 189 187 193 C187.66 193 188.32 193 189 193 C189 193.66 189 194.32 189 195 C189.66 195 190.32 195 191 195 C192.4606285 197.64738916 193 198.89448334 193 202 C193.66 202 194.32 202 195 202 C198 207.625 198 207.625 198 211 C198.66 211 199.32 211 200 211 C201.4606285 213.64738916 202 214.89448334 202 218 C193.59419233 218.09269952 185.18859839 218.16376414 176.78240585 218.20724869 C172.87900482 218.22811969 168.9759536 218.25642757 165.07275391 218.30175781 C161.3055808 218.34523427 157.53874405 218.36914077 153.77133942 218.37950897 C152.33439081 218.38689723 150.89746053 218.40132506 149.46065521 218.42292023 C147.44758575 218.45197203 145.43417747 218.45363405 143.42089844 218.45410156 C142.27506287 218.46298401 141.12922729 218.47186646 139.94866943 218.48101807 C136.32204551 217.88940491 135.22985906 216.86459399 133 214 C130 207.89285714 130 207.89285714 130 204 C129.34 204 128.68 204 128 204 C126 201 126 201 126 198 C125.34 198 124.68 198 124 198 C121 191.375 121 191.375 121 188 C120.34 188 119.68 188 119 188 C117 185 117 185 117 182 C116.34 182 115.68 182 115 182 C114.16209211 180.21046815 113.32980604 178.41830305 112.5 176.625 C112.0359375 175.62726563 111.571875 174.62953125 111.09375 173.6015625 C110 171 110 171 110 169 C109.34 169 108.68 169 108 169 C108 168.01 108 167.02 108 166 C107.34 166 106.68 166 106 166 C106 164.68 106 163.36 106 162 C105.34 162 104.68 162 104 162 C101 156.375 101 156.375 101 153 C100.34 153 99.68 153 99 153 C97.5393715 150.35261084 97 149.10551666 97 146 C96.34 146 95.68 146 95 146 C94.67 144.02 94.34 142.04 94 140 C93.34 140 92.68 140 92 140 C92 139.01 92 138.02 92 137 C91.34 137 90.68 137 90 137 C90 135.68 90 134.36 90 133 C89.34 133 88.68 133 88 133 C88 132.01 88 131.02 88 130 C87.34 130 86.68 130 86 130 C86 130.66 86 131.32 86 132 C84.625 133.625 84.625 133.625 83 135 C82.34 135 81.68 135 81 135 C81 135.66 81 136.32 81 137 C80.34 137 79.68 137 79 137 C79 137.66 79 138.32 79 139 C78.34 139 77.68 139 77 139 C76.7421875 139.57234375 76.484375 140.1446875 76.21875 140.734375 C74.88634058 143.21128995 73.34943882 145.1341166 71.5 147.25 C70.8915625 147.95640625 70.283125 148.6628125 69.65625 149.390625 C68 151 68 151 66 151 C65.67 152.32 65.34 153.64 65 155 C64.34 155 63.68 155 63 155 C63 155.66 63 156.32 63 157 C62.34 157 61.68 157 61 157 C61 157.66 61 158.32 61 159 C60.34 159 59.68 159 59 159 C59 159.66 59 160.32 59 161 C58.34 161 57.68 161 57 161 C56.67 179.81 56.34 198.62 56 218 C37.52 218 19.04 218 0 218 C0 146.06 0 74.12 0 0 Z " fill="#000000" transform="translate(1199,120)"/>
<path d="M0 0 C18.48 0 36.96 0 56 0 C56 27.39 56 54.78 56 83 C82.73 83 109.46 83 137 83 C137 55.61 137 28.22 137 0 C155.48 0 173.96 0 193 0 C193 71.94 193 143.88 193 218 C174.52 218 156.04 218 137 218 C137 188.96 137 159.92 137 130 C110.27 130 83.54 130 56 130 C56 159.04 56 188.08 56 218 C37.52 218 19.04 218 0 218 C0 146.06 0 74.12 0 0 Z " fill="#000000" transform="translate(964,120)"/>
<path d="M0 0 C24.42 0 48.84 0 74 0 C74 0.66 74 1.32 74 2 C74.66 2 75.32 2 76 2 C79.44419134 11.41002278 79.44419134 11.41002278 79 16 C79.66 16 80.32 16 81 16 C81 17.98 81 19.96 81 22 C81.66 22 82.32 22 83 22 C83 23.65 83 25.3 83 27 C83.66 27 84.32 27 85 27 C85.27714844 27.99902344 85.55429688 28.99804688 85.83984375 30.02734375 C86.20555549 31.33077791 86.57145038 32.63416069 86.9375 33.9375 C87.21110352 34.9265332 87.21110352 34.9265332 87.49023438 35.93554688 C88.22596101 39.23821173 88.22596101 39.23821173 90 42 C90.04063832 43.66617115 90.042721 45.33388095 90 47 C90.66 47 91.32 47 92 47 C92 48.32 92 49.64 92 51 C92.66 51 93.32 51 94 51 C94.25394531 52.02480469 94.50789063 53.04960937 94.76953125 54.10546875 C95.11676597 55.46625347 95.46444584 56.82692465 95.8125 58.1875 C96.0609668 59.19780273 96.0609668 59.19780273 96.31445312 60.22851562 C97.36452424 64.29011145 98.77848478 67.46577124 101 71 C101.1875 73.8125 101.1875 73.8125 101 76 C101.66 76 102.32 76 103 76 C103 77.65 103 79.3 103 81 C103.66 81 104.32 81 105 81 C105.33 83.97 105.66 86.94 106 90 C106.66 90 107.32 90 108 90 C108 91.98 108 93.96 108 96 C108.66 96 109.32 96 110 96 C110.84124316 98.24732102 111.67314832 100.49738785 112.5 102.75 C112.73847656 103.38421875 112.97695312 104.0184375 113.22265625 104.671875 C114.44801758 108.03286607 115 110.36871587 115 114 C115.66 114 116.32 114 117 114 C117 115.65 117 117.3 117 119 C117.66 119 118.32 119 119 119 C120.92127665 124.64119526 122.70728446 130.30279748 124.3515625 136.03125 C124.82945524 137.97959154 124.82945524 137.97959154 126 139 C126.04063832 140.66617115 126.042721 142.33388095 126 144 C126.66 144 127.32 144 128 144 C130.87940913 150.4150557 132.5464821 155.97047248 133 163 C133.66 163 134.32 163 135 163 C135 164.65 135 166.3 135 168 C135.66 168 136.32 168 137 168 C137 169.65 137 171.3 137 173 C137.66 173 138.32 173 139 173 C139 174.98 139 176.96 139 179 C139.66 179 140.32 179 141 179 C141.33 181.97 141.66 184.94 142 188 C142.66 188 143.32 188 144 188 C144 189.65 144 191.3 144 193 C144.66 193 145.32 193 146 193 C146 194.65 146 196.3 146 198 C146.66 198 147.32 198 148 198 C148.8427743 200.39287704 149.67437002 202.78871019 150.5 205.1875 C150.73847656 205.86103516 150.97695312 206.53457031 151.22265625 207.22851562 C152.55653378 211.13487125 153 213.78141971 153 218 C132.87 218 112.74 218 92 218 C90.11656068 214.23312136 89.77942165 212.97041037 90 209 C89.34 209 88.68 209 88 209 C87.67 205.37 87.34 201.74 87 198 C86.34 198 85.68 198 85 198 C85 196.35 85 194.7 85 193 C84.34 193 83.68 193 83 193 C81.57741188 189.17679443 80.75957724 186.08718695 81 182 C80.34 182 79.68 182 79 182 C78.67 178.37 78.34 174.74 78 171 C50.94 171 23.88 171 -4 171 C-4.99 174.96 -5.98 178.92 -7 183 C-7.6364436 185.00982188 -8.2839666 187.01713828 -9 189 C-9.66 189 -10.32 189 -11 189 C-10.94392578 190.09441406 -10.94392578 190.09441406 -10.88671875 191.2109375 C-11.00663246 194.16329562 -11.61573647 195.94460828 -12.8125 198.625 C-15.07185783 203.96383843 -16.59081674 209.38461824 -18 215 C-18.66 215 -19.32 215 -20 215 C-20 215.99 -20 216.98 -20 218 C-39.47 218 -58.94 218 -79 218 C-78.22364797 211.01283177 -77.7701867 207.88664675 -75 202 C-74.62691369 200.67723944 -74.26953585 199.34767923 -74 198 C-73.34 198 -72.68 198 -72 198 C-72 196.35 -72 194.7 -72 193 C-71.34 193 -70.68 193 -70 193 C-69.95101563 192.40832031 -69.90203125 191.81664062 -69.8515625 191.20703125 C-69.43543133 186.80895528 -68.95034405 183.03071103 -67 179 C-66.34 179 -65.68 179 -65 179 C-65 177.02 -65 175.04 -65 173 C-64.34 173 -63.68 173 -63 173 C-63 171.35 -63 169.7 -63 168 C-62.34 168 -61.68 168 -61 168 C-60.9175 166.88625 -60.835 165.7725 -60.75 164.625 C-60.20786559 160.19364051 -58.7240871 156.43393979 -56.98828125 152.34375 C-55.83515903 149.60907279 -54.89342196 146.82916954 -54 144 C-53.34 144 -52.68 144 -52 144 C-51.87625 142.80375 -51.7525 141.6075 -51.625 140.375 C-51.17674946 136.72403187 -50.29553163 133.45475101 -49 130 C-48.34 130 -47.68 130 -47 130 C-47.04125 129.29875 -47.0825 128.5975 -47.125 127.875 C-46.98331668 124.61628372 -46.13265314 122.0440053 -45 119 C-44.34 119 -43.68 119 -43 119 C-42.81630859 117.97326172 -42.81630859 117.97326172 -42.62890625 116.92578125 C-41.91575403 113.60807311 -40.95146135 110.42563463 -39.9375 107.1875 C-39.57527344 106.02605469 -39.21304687 104.86460937 -38.83984375 103.66796875 C-38.56269531 102.78753906 -38.28554687 101.90710938 -38 101 C-37.34 101 -36.68 101 -36 101 C-36 99.35 -36 97.7 -36 96 C-35.34 96 -34.68 96 -34 96 C-34.05994141 94.9171875 -34.05994141 94.9171875 -34.12109375 93.8125 C-33.98937245 90.75316653 -33.28771075 88.79051559 -32.0625 86 C-30.60803399 82.66359053 -29.60960345 79.59345193 -29 76 C-28.34 76 -27.68 76 -27 76 C-27 74.68 -27 73.36 -27 72 C-26.34 72 -25.68 72 -25 72 C-25 70.35 -25 68.7 -25 67 C-24.34 67 -23.68 67 -23 67 C-22.95101563 66.41992188 -22.90203125 65.83984375 -22.8515625 65.2421875 C-22.40350595 60.56076908 -21.701979 56.42514541 -20 52 C-19.34 52 -18.68 52 -18 52 C-18 50.35 -18 48.7 -18 47 C-17.34 47 -16.68 47 -16 47 C-16 45.35 -16 43.7 -16 42 C-15.34 42 -14.68 42 -14 42 C-13.92652344 41.12988281 -13.92652344 41.12988281 -13.8515625 40.2421875 C-13.40350595 35.56076908 -12.701979 31.42514541 -11 27 C-10.34 27 -9.68 27 -9 27 C-8.855625 26.2575 -8.71125 25.515 -8.5625 24.75 C-8.09812508 22.47972261 -7.58136431 20.24240521 -7 18 C-6.34 18 -5.68 18 -5 18 C-4.9175 16.700625 -4.835 15.40125 -4.75 14.0625 C-4.39529209 8.47585045 -2.54248308 5.72058693 0 0 Z M36 52 C32.43904552 58.05362262 31.24968327 63.37874649 30.39453125 70.33984375 C30 73 30 73 29 74 C28.95936168 75.66617115 28.957279 77.33388095 29 79 C28.34 79 27.68 79 27 79 C27 80.98 27 82.96 27 85 C26.34 85 25.68 85 25 85 C25 86.65 25 88.3 25 90 C24.34 90 23.68 90 23 90 C22.86722656 90.71027344 22.73445313 91.42054688 22.59765625 92.15234375 C22.42105469 93.07144531 22.24445313 93.99054688 22.0625 94.9375 C21.88847656 95.85402344 21.71445313 96.77054688 21.53515625 97.71484375 C21 100 21 100 20 101 C19.95936168 102.66617115 19.957279 104.33388095 20 106 C19.34 106 18.68 106 18 106 C17.34 108.97 16.68 111.94 16 115 C15.34 115 14.68 115 14 115 C13.67 118.63 13.34 122.26 13 126 C19.35374818 126.04938638 25.70738497 126.08571317 32.0612793 126.10986328 C34.22340847 126.11992951 36.385524 126.13358354 38.54760742 126.15087891 C41.65286625 126.17509978 44.7579453 126.18647681 47.86328125 126.1953125 C48.83211746 126.20563507 49.80095367 126.21595764 50.79914856 126.22659302 C51.6998558 126.22674408 52.60056305 126.22689514 53.52856445 126.22705078 C54.32132278 126.231492 55.11408112 126.23593323 55.93086243 126.24050903 C58.30803673 126.12319753 58.30803673 126.12319753 61 124 C60.505 120.535 60.505 120.535 60 117 C59.34 117 58.68 117 58 117 C58 115.68 58 114.36 58 113 C57.34 113 56.68 113 56 113 C56 111.35 56 109.7 56 108 C55.34 108 54.68 108 54 108 C53.87625 107.030625 53.7525 106.06125 53.625 105.0625 C53.00136191 100.65184223 52.01253494 96.33522241 51 92 C50.34 92 49.68 92 49 92 C49 90.02 49 88.04 49 86 C48.34 86 47.68 86 47 86 C47.0928125 84.9790625 47.0928125 84.9790625 47.1875 83.9375 C46.94627648 80.15833152 45.54491845 77.44635655 44 74 C42.34300766 68.73661256 41.14934184 63.39212502 40 58 C39.34 58 38.68 58 38 58 C38 56.02 38 54.04 38 52 C37.34 52 36.68 52 36 52 Z " fill="#000000" transform="translate(1482,120)"/>
<path d="M0 0 C0.16776425 5.76561227 0.32830841 11.53136343 0.48217773 17.29736328 C0.53553259 19.25868127 0.59085676 21.21994672 0.64819336 23.18115234 C0.73028615 26.00086134 0.80528481 28.82068368 0.87890625 31.640625 C0.91945885 32.95489471 0.91945885 32.95489471 0.96083069 34.29571533 C0.98092697 35.11626404 1.00102325 35.93681274 1.02172852 36.78222656 C1.05170677 37.86144379 1.05170677 37.86144379 1.08229065 38.96246338 C1 41 1 41 0 45 C-37.62 45 -75.24 45 -114 45 C-113.67 57.87 -113.34 70.74 -113 84 C-106.87566406 84.06058594 -100.75132812 84.12117188 -94.44140625 84.18359375 C-90.57225821 84.22406649 -86.70311761 84.26482865 -82.83398438 84.30664062 C-76.68646704 84.37304626 -70.53895125 84.43835291 -64.39135742 84.49731445 C-59.43763538 84.5448924 -54.48398488 84.59723256 -49.53034782 84.65294075 C-47.63604439 84.67339418 -45.74172132 84.6921022 -43.8473835 84.70907402 C-41.203603 84.73305216 -38.55995902 84.7631153 -35.91625977 84.79467773 C-35.12504227 84.8004332 -34.33382477 84.80618866 -33.51863098 84.81211853 C-28.11405216 84.88594784 -28.11405216 84.88594784 -27 86 C-26.91128727 89.02977804 -26.8848065 92.03667022 -26.90234375 95.06640625 C-26.90446617 96.42934059 -26.90446617 96.42934059 -26.90663147 97.81980896 C-26.91224807 100.73407221 -26.92480335 103.64825981 -26.9375 106.5625 C-26.94251286 108.53320202 -26.94707614 110.50390524 -26.95117188 112.47460938 C-26.96222289 117.31643559 -26.97949862 122.15820495 -27 127 C-31.74339995 128.87160034 -35.98645923 129.27691976 -41.02490234 129.22705078 C-41.80606415 129.22734283 -42.58722595 129.22763489 -43.39205933 129.22793579 C-45.95680103 129.22654992 -48.52124697 129.21102398 -51.0859375 129.1953125 C-52.87098024 129.19157972 -54.65602503 129.188734 -56.44107056 129.18673706 C-61.12642123 129.17912143 -65.8116468 129.15949079 -70.49694824 129.1373291 C-76.12543655 129.11321758 -81.75396683 129.10407983 -87.38249207 129.09242249 C-95.92174823 129.07306515 -104.46073021 129.03472816 -113 129 C-113.33 143.52 -113.66 158.04 -114 173 C-76.38 173 -38.76 173 0 173 C0.6779556 178.42364483 1.12801242 183.21395242 1.1328125 188.60546875 C1.13376923 189.29256424 1.13472595 189.97965973 1.13571167 190.68757629 C1.13638624 192.12529595 1.13458299 193.56301878 1.13037109 195.00073242 C1.12498744 197.1926151 1.13035342 199.38429523 1.13671875 201.57617188 C1.13605832 202.98177128 1.13477789 204.38737056 1.1328125 205.79296875 C1.13168457 207.0564917 1.13055664 208.32001465 1.12939453 209.62182617 C1 213 1 213 0 218 C-55.44 218 -110.88 218 -168 218 C-168 146.06 -168 74.12 -168 0 C-127.2553125 -0.2784375 -127.2553125 -0.2784375 -85.6875 -0.5625 C-72.80722778 -0.65446655 -72.80722778 -0.65446655 -59.66674805 -0.74829102 C-49.20666504 -0.81628418 -49.20666504 -0.81628418 -44.31477356 -0.8467865 C-40.88738354 -0.86850976 -37.46002689 -0.89310763 -34.03266907 -0.91941833 C-29.66573484 -0.95284878 -25.29879455 -0.98143224 -20.9318043 -1.00645053 C-19.32608238 -1.0164852 -17.72037016 -1.02824733 -16.11467493 -1.0418998 C-13.95138239 -1.06004937 -11.78814359 -1.07197403 -9.62480164 -1.08229065 C-8.41080028 -1.09058679 -7.19679892 -1.09888292 -5.94600964 -1.10743046 C-3 -1 -3 -1 0 0 Z " fill="#000000" transform="translate(501,120)"/>
</svg>
