<?xml version="1.0" encoding="UTF-8"?>
<svg version="1.1" xmlns="http://www.w3.org/2000/svg" width="431" height="176">
<path d="M0 0 C3.96505649 1.53747088 6.64036261 4.4366957 9.66015625 7.359375 C12.27009407 9.86491531 14.97422625 12.12932107 17.796875 14.390625 C21.3916515 17.2987588 24.87948128 20.27603832 28.296875 23.390625 C34.69542865 29.21678407 41.36148885 34.71520996 48.296875 39.890625 C48.326604 38.23293091 48.326604 38.23293091 48.35693359 36.54174805 C48.43297949 32.44337087 48.52169829 28.34534921 48.61425781 24.24731445 C48.65255179 22.47329729 48.68740395 20.69920236 48.71875 18.92504883 C48.76439172 16.37553101 48.82238685 13.8265487 48.8828125 11.27734375 C48.90013931 10.08657478 48.90013931 10.08657478 48.91781616 8.87174988 C49.02042885 5.04738592 49.12751566 3.14466401 51.296875 -0.109375 C54.74393815 -0.58813377 56.70991382 -0.42119813 59.796875 1.21875 C60.621875 1.85296875 61.446875 2.4871875 62.296875 3.140625 C63.24949219 3.8728125 64.20210938 4.605 65.18359375 5.359375 C70.38430424 9.54519117 75.43285231 13.90783199 80.46337891 18.29541016 C83.56016454 20.98973737 86.67928578 23.65793089 89.796875 26.328125 C90.35995361 26.8118457 90.92303223 27.29556641 91.50317383 27.79394531 C92.04353271 28.25768555 92.5838916 28.72142578 93.140625 29.19921875 C93.60662109 29.59939209 94.07261719 29.99956543 94.55273438 30.41186523 C97.11997676 32.58848717 99.70948434 34.73799711 102.296875 36.890625 C102.31145752 35.87637451 102.32604004 34.86212402 102.34106445 33.81713867 C102.39903753 30.05408471 102.47626959 26.29162979 102.55932617 22.52905273 C102.59258036 20.90057091 102.62061084 19.27197369 102.64331055 17.64331055 C102.67684857 15.30207139 102.72916085 12.96189014 102.78515625 10.62109375 C102.79154617 9.89286911 102.7979361 9.16464447 102.80451965 8.41435242 C102.88926472 5.50100635 102.959943 3.39242129 104.61010742 0.93481445 C107.52542622 -0.86990671 109.98662523 -0.52315622 113.296875 -0.109375 C116.14407706 2.77239373 116.6720807 4.88718971 116.66918945 8.87109375 C116.67853264 10.35283081 116.67853264 10.35283081 116.68806458 11.86450195 C116.67885483 12.92499756 116.66964508 13.98549316 116.66015625 15.078125 C116.66090401 16.72010864 116.66090401 16.72010864 116.66166687 18.39526367 C116.65932748 20.70851457 116.64960699 23.02176806 116.63305664 25.33496094 C116.60946452 28.8771845 116.612497 32.41865533 116.61914062 35.9609375 C116.61356378 38.20833782 116.60645385 40.45573498 116.59765625 42.703125 C116.59856766 43.76362061 116.59947906 44.82411621 116.60041809 45.91674805 C116.59088608 46.90457275 116.58135406 47.89239746 116.5715332 48.91015625 C116.56462212 50.21110229 116.56462212 50.21110229 116.55757141 51.53833008 C116.27770737 54.06357686 115.56676161 55.70868573 114.296875 57.890625 C109.671827 58.57300913 106.80670013 58.80483104 102.7421875 56.34375 C99.81873448 53.96681787 97.04086536 51.46911845 94.296875 48.890625 C93.12054442 47.80777544 91.94342887 46.72577815 90.765625 45.64453125 C88.34040536 43.40881232 85.92780215 41.1604656 83.5234375 38.90234375 C80.46685154 36.03734622 77.34936993 33.25443813 74.17578125 30.51953125 C71.13889944 27.88672519 68.16347857 25.18487701 65.1796875 22.4921875 C63.38148411 20.83339809 63.38148411 20.83339809 61.296875 19.890625 C61.2875293 20.96546143 61.27818359 22.04029785 61.26855469 23.14770508 C61.22869086 27.13445528 61.16294327 31.1204308 61.08935547 35.10668945 C61.06112469 36.83217418 61.0399206 38.55778874 61.02587891 40.28344727 C61.00447758 42.76386074 60.95784583 45.2427099 60.90625 47.72265625 C60.90502136 48.49462845 60.90379272 49.26660065 60.90252686 50.06196594 C60.75616963 55.40987239 60.75616963 55.40987239 58.38427734 57.89257812 C55.13789283 59.44476759 53.15815224 58.84477324 49.7734375 57.9296875 C44.90280022 55.88617091 41.22281165 52.35039178 37.296875 48.890625 C35.70958208 47.5394792 34.11543079 46.19671076 32.52099609 44.85400391 C30.8576127 43.45163924 29.2001162 42.04253693 27.54296875 40.6328125 C23.71574867 37.38747563 19.8282232 34.21775199 15.9296875 31.05859375 C12.67882684 28.38169811 9.48567575 25.64092243 6.296875 22.890625 C6.2467627 23.77322998 6.19665039 24.65583496 6.14501953 25.56518555 C5.95418403 28.8550425 5.75575722 32.14426181 5.55224609 35.43334961 C5.46588715 36.85406737 5.3825143 38.27497004 5.30224609 39.69604492 C5.18600905 41.74454347 5.05887207 43.79212582 4.9296875 45.83984375 C4.85637207 47.07049561 4.78305664 48.30114746 4.70751953 49.5690918 C4.32101004 52.69540671 3.62130258 55.0508826 2.296875 57.890625 C-5.21046826 58.2598386 -5.21046826 58.2598386 -7.30654907 56.68896484 C-9.16376479 54.29746935 -9.08339637 52.83446887 -9.09130859 49.82421875 C-9.10076508 48.79304932 -9.11022156 47.76187988 -9.1199646 46.69946289 C-9.11389191 45.58692139 -9.10781921 44.47437988 -9.1015625 43.328125 C-9.10443268 42.18529053 -9.10730286 41.04245605 -9.11026001 39.86499023 C-9.11230257 37.44742335 -9.10675938 35.02984001 -9.09423828 32.61230469 C-9.07818821 28.90522415 -9.09408141 25.199234 -9.11328125 21.4921875 C-9.11129885 19.14583092 -9.10745525 16.79947502 -9.1015625 14.453125 C-9.10763519 13.3405835 -9.11370789 12.22804199 -9.1199646 11.08178711 C-9.11050812 10.05061768 -9.10105164 9.01944824 -9.09130859 7.95703125 C-9.08892181 7.04896729 -9.08653503 6.14090332 -9.08407593 5.20532227 C-8.703125 2.890625 -8.703125 2.890625 -7.40151978 1.08959961 C-4.96781048 -0.62846717 -2.86555564 -0.48107868 0 0 Z " fill="#1F92C3" transform="translate(101.703125,38.109375)"/>
<path d="M0 0 C0.99261337 0.00222061 1.98522675 0.00444122 3.00791931 0.00672913 C4.12900589 0.00680466 5.25009247 0.00688019 6.40515137 0.00695801 C8.2348069 0.01469994 8.2348069 0.01469994 10.10142517 0.02259827 C11.96377052 0.02472069 11.96377052 0.02472069 13.86373901 0.02688599 C17.16982383 0.03154861 20.47584039 0.04053955 23.78190613 0.05158997 C27.15338042 0.06180625 30.52486175 0.06638407 33.89634705 0.07142639 C40.51550667 0.08248056 47.13463385 0.09923715 53.75376892 0.12025452 C55.85533142 5.76869202 55.85533142 5.76869202 54.94126892 8.93275452 C53.75376892 11.12025452 53.75376892 11.12025452 52.75376892 12.12025452 C51.37216778 12.21303782 49.98588855 12.23772494 48.60118103 12.23377991 C47.72034348 12.23370438 46.83950592 12.23362885 45.93197632 12.23355103 C44.97469131 12.22838974 44.01740631 12.22322845 43.03111267 12.21791077 C42.05590164 12.21649582 41.08069061 12.21508087 40.07592773 12.21362305 C36.94767749 12.20800584 33.81949769 12.19545044 30.69126892 12.18275452 C28.57603558 12.17774173 26.46080111 12.17317844 24.3455658 12.16908264 C19.14825091 12.15887982 13.95108917 12.13930783 8.75376892 12.12025452 C8.75376892 23.67025452 8.75376892 35.22025452 8.75376892 47.12025452 C12.03958923 47.09705139 15.32540955 47.07384827 18.71080017 47.04994202 C21.88796095 47.03435116 25.0651175 47.02220318 28.24229431 47.01039124 C30.45292565 47.00032446 32.66354364 46.98667004 34.87413025 46.96937561 C38.04888703 46.94515714 41.22346798 46.93377825 44.39830017 46.92494202 C45.38901016 46.91461945 46.37972015 46.90429688 47.40045166 46.8936615 C48.32117966 46.89351044 49.24190765 46.89335938 50.1905365 46.89320374 C51.40632133 46.8865419 51.40632133 46.8865419 52.64666748 46.87974548 C54.75376892 47.12025452 54.75376892 47.12025452 57.75376892 49.12025452 C58.16220816 51.83229104 57.88713759 54.36396872 57.75376892 57.12025452 C54.45739627 59.08615011 51.98779792 59.3687022 48.1749115 59.36317444 C47.05727921 59.36625107 45.93964691 59.3693277 44.78814697 59.37249756 C43.58699753 59.36531204 42.38584808 59.35812653 41.14830017 59.35072327 C39.29587959 59.35003593 39.29587959 59.35003593 37.40603638 59.34933472 C34.1299196 59.3455414 30.85399754 59.33254152 27.57792664 59.31587219 C24.23614789 59.30238706 20.89440201 59.30559654 17.55259705 59.30580139 C15.02199608 59.30088737 12.49139668 59.29505956 9.96080017 59.28822327 C8.75357803 59.28711044 7.5463559 59.28599762 6.30255127 59.28485107 C5.19437546 59.27847122 4.08619965 59.27209137 2.94444275 59.26551819 C1.9638942 59.26170639 0.98334564 59.25789459 -0.0269165 59.25396729 C-2.24623108 59.12025452 -2.24623108 59.12025452 -3.24623108 58.12025452 C-3.34516886 56.34579442 -3.374222 54.56739201 -3.37562561 52.79017639 C-3.37877777 51.65229675 -3.38192993 50.51441711 -3.38517761 49.34205627 C-3.38315338 48.10354919 -3.38112915 46.86504211 -3.37904358 45.58900452 C-3.38000031 44.32761658 -3.38095703 43.06622864 -3.38194275 41.76661682 C-3.38262483 39.09328314 -3.38126637 36.42004015 -3.37660217 33.74671936 C-3.37090488 30.31318761 -3.37418409 26.87973402 -3.38017464 23.44620514 C-3.3846487 20.18130209 -3.38151991 16.91640859 -3.37904358 13.65150452 C-3.38106781 12.41299744 -3.38309204 11.17449036 -3.38517761 9.89845276 C-3.38202545 8.76057312 -3.37887329 7.62269348 -3.37562561 6.45033264 C-3.37483002 5.44297058 -3.37403442 4.43560852 -3.37321472 3.39772034 C-3.20287128 0.34259161 -3.05479824 0.16354207 0 0 Z " fill="#1E91C2" transform="translate(28.246231079101563,37.87974548339844)"/>
<path d="M0 0 C2 2 2 2 2.24050903 4.32852173 C2.2338472 5.78746353 2.2338472 5.78746353 2.22705078 7.27587891 C2.22689972 8.3768692 2.22674866 9.4778595 2.22659302 10.61221313 C2.21627045 11.80494843 2.20594788 12.99768372 2.1953125 14.2265625 C2.1924826 15.44451508 2.18965271 16.66246765 2.18673706 17.91732788 C2.17551256 21.81998383 2.15040372 25.72241303 2.125 29.625 C2.11497314 32.26562169 2.10584678 34.90624697 2.09765625 37.546875 C2.07556581 44.0313278 2.04206592 50.5156477 2 57 C-1.75350671 59.11236308 -3.78812136 59.09875095 -8 58 C-11.00617269 54.99382731 -10.59585316 52.17618402 -11 48 C-11.83144531 47.96261719 -12.66289062 47.92523438 -13.51953125 47.88671875 C-14.60621094 47.82097656 -15.69289063 47.75523438 -16.8125 47.6875 C-17.89144531 47.62949219 -18.97039062 47.57148437 -20.08203125 47.51171875 C-23 47 -23 47 -24.86328125 45.64453125 C-26.64988516 43.05978814 -26.38083593 41.04668744 -26 38 C-24.89453125 36.32421875 -24.89453125 36.32421875 -23 35 C-19.86328125 34.70703125 -19.86328125 34.70703125 -16.3125 34.8125 C-14.54326172 34.85310547 -14.54326172 34.85310547 -12.73828125 34.89453125 C-11.83464844 34.92933594 -10.93101562 34.96414062 -10 35 C-10.66 31.04 -11.32 27.08 -12 23 C-14.69072094 25.6634808 -17.37760819 28.33065347 -20.0625 31 C-21.19075195 32.11568359 -21.19075195 32.11568359 -22.34179688 33.25390625 C-26.55121346 37.44510025 -30.57802002 41.72081215 -34.45239258 46.22314453 C-36.48283489 48.55435752 -38.6230827 50.75575141 -40.8125 52.9375 C-41.56144531 53.68902344 -42.31039062 54.44054687 -43.08203125 55.21484375 C-45.78599608 57.73156865 -47.39602156 58.1543752 -51 58.1875 C-51.70125 58.20167969 -52.4025 58.21585938 -53.125 58.23046875 C-55 58 -55 58 -57 56 C-56.87246016 50.68834067 -54.64642882 47.87748771 -51.0625 44.25 C-50.57104492 43.7334082 -50.07958984 43.21681641 -49.57324219 42.68457031 C-45.54728288 38.47784311 -41.40471716 34.38393578 -37.26171875 30.29296875 C-35.2712135 28.27496084 -33.40226885 26.21690865 -31.5625 24.0625 C-28.2400054 20.17313428 -24.63377462 16.59747256 -20.98999023 13.01391602 C-18.39099392 10.44286105 -15.93962672 7.82898821 -13.625 5 C-9.2781782 0.03220366 -6.56582205 -1.89679304 0 0 Z " fill="#2795C5" transform="translate(279,38)"/>
<path d="M0 0 C0.70125 0.00515625 1.4025 0.0103125 2.125 0.015625 C2.82625 0.01046875 3.5275 0.0053125 4.25 0 C6.125 0.265625 6.125 0.265625 8.125 2.265625 C8.4034729 4.21450806 8.4034729 4.21450806 8.44384766 6.62353516 C8.47393921 7.99360718 8.47393921 7.99360718 8.50463867 9.39135742 C8.51599854 10.35275635 8.5273584 11.31415527 8.5390625 12.3046875 C8.55670654 13.18729248 8.57435059 14.06989746 8.5925293 14.97924805 C8.65569521 18.2828535 8.70181351 21.58676711 8.75 24.890625 C8.935625 35.96625 8.935625 35.96625 9.125 47.265625 C23.975 47.595625 38.825 47.925625 54.125 48.265625 C54.125 51.565625 54.125 54.865625 54.125 58.265625 C51.77208845 60.61853655 46.15379826 59.75690035 43 59.890625 C41.95569824 59.93493652 40.91139648 59.97924805 39.83544922 60.02490234 C30.62569029 60.34294298 21.45622178 60.18999031 12.25 59.890625 C11.21428864 59.85863007 11.21428864 59.85863007 10.15765381 59.82598877 C-1.50250692 59.45187154 -1.50250692 59.45187154 -3.875 58.265625 C-3.9212955 50.99870172 -3.95685493 43.73181012 -3.97862434 36.46476936 C-3.98907142 33.09055506 -4.00324725 29.71644148 -4.02587891 26.34228516 C-4.05004885 22.46514182 -4.06146511 18.58814223 -4.0703125 14.7109375 C-4.08063507 13.49632843 -4.09095764 12.28171936 -4.10159302 11.03030396 C-4.10174408 9.90929291 -4.10189514 8.78828186 -4.10205078 7.63330078 C-4.106492 6.64290802 -4.11093323 5.65251526 -4.11550903 4.6321106 C-3.8132313 1.65785264 -3.05844433 0.43327961 0 0 Z " fill="#168DC0" transform="translate(348.875,36.734375)"/>
<path d="M0 0 C1.875 1.125 1.875 1.125 3 3 C3.41702131 6.58147713 3.53551747 8.31821252 1.26953125 11.203125 C0.45871094 11.87859375 -0.35210937 12.5540625 -1.1875 13.25 C-2.53908203 14.38888672 -2.53908203 14.38888672 -3.91796875 15.55078125 C-8.34216846 19.06659015 -12.79768185 22.5349447 -17.3125 25.93359375 C-19.9741815 27.88781605 -19.9741815 27.88781605 -22 30 C-21.5373877 30.34667725 -21.07477539 30.69335449 -20.59814453 31.05053711 C-15.36116565 34.98575267 -10.16348195 38.96881937 -5 43 C-4.40509766 43.46277344 -3.81019531 43.92554688 -3.19726562 44.40234375 C-1.73651606 45.55585078 -0.30420619 46.74513369 1.125 47.9375 C1.91132813 48.58589844 2.69765625 49.23429687 3.5078125 49.90234375 C5 52 5 52 4.8671875 55.19140625 C4.43792969 56.58166016 4.43792969 56.58166016 4 58 C0.77794284 59.61102858 -2.5067164 59.47495689 -6 59 C-9.2109375 57.3046875 -9.2109375 57.3046875 -12.375 54.875 C-12.9515332 54.43994141 -13.52806641 54.00488281 -14.12207031 53.55664062 C-16.09693803 52.0570307 -18.04767272 50.52882104 -20 49 C-21.61109742 47.76187263 -23.22311614 46.52494338 -24.8359375 45.2890625 C-39.84565588 33.7374219 -39.84565588 33.7374219 -40.5625 30.3125 C-38.67862532 19.21857136 -18.80685019 8.7653204 -10.109375 2.4609375 C-6.55191202 -0.00293501 -4.34739037 -0.35488901 0 0 Z " fill="#F4A42B" transform="translate(329,37)"/>
<path d="M0 0 C2.24975659 0.00316833 4.49820779 -0.02034482 6.74780273 -0.0456543 C8.17813962 -0.04792663 9.60848004 -0.04863109 11.03881836 -0.04760742 C12.33827393 -0.05058838 13.63772949 -0.05356934 14.9765625 -0.05664062 C18.19116211 0.31567383 18.19116211 0.31567383 20.12255859 1.61181641 C21.88322032 4.41914064 21.42892604 7.1058608 21.19116211 10.31567383 C19.17141478 12.33542115 15.06031694 11.47966821 12.28881836 11.48364258 C11.49591904 11.48697098 10.70301971 11.49029938 9.88609314 11.49372864 C8.20564353 11.49880109 6.52518382 11.50113687 4.84472656 11.50097656 C2.26797952 11.50316169 -0.30833865 11.52130991 -2.88500977 11.5402832 C-4.51456559 11.54321728 -6.14412345 11.54520198 -7.77368164 11.54614258 C-8.93467628 11.55692085 -8.93467628 11.55692085 -10.11912537 11.56791687 C-15.58001536 11.54449635 -15.58001536 11.54449635 -17.80883789 9.31567383 C-17.93383789 5.69067383 -17.93383789 5.69067383 -17.80883789 2.31567383 C-12.54964875 -1.02503759 -6.00848884 -0.01777075 0 0 Z " fill="#2695C5" transform="translate(58.808837890625,60.684326171875)"/>
<path d="M0 0 C3.02508145 1.73602105 5.41790069 3.83580137 7 7 C7.54930958 12.37689567 7.54185108 16.64079868 4 21 C1.31432703 22.34283649 -0.87746853 22.24287519 -3.875 22.3125 C-4.92429687 22.34988281 -5.97359375 22.38726562 -7.0546875 22.42578125 C-10.69228932 21.89992104 -11.77861189 20.86714047 -14 18 C-15.24300105 14.27099684 -15.6711674 10.86650786 -15 7 C-11.46613277 0.85529056 -6.96887187 -1.18949204 0 0 Z " fill="#F5A937" transform="translate(304,112)"/>
<path d="M0 0 C2.87029869 1.79393668 4.49131638 2.98263276 6 6 C6.48937575 10.98200559 6.59021268 15.49495766 4.75 20.1875 C0.13909069 23.22650841 -4.6693124 22.87269101 -10 22 C-13.25 20.125 -13.25 20.125 -15 17 C-15.88351037 12.12853454 -15.84731074 7.69046848 -13.125 3.4375 C-9.40325996 -0.83155475 -5.40332745 -0.69991288 0 0 Z " fill="#F5A834" transform="translate(41,112)"/>
<path d="M0 0 C6 0 6 0 7.8984375 1.53125 C8.38570313 2.1809375 8.87296875 2.830625 9.375 3.5 C9.87773437 4.1496875 10.38046875 4.799375 10.8984375 5.46875 C11.26195312 5.9740625 11.62546875 6.479375 12 7 C12.33 4.69 12.66 2.38 13 0 C14.98 0 16.96 0 19 0 C19 6.93 19 13.86 19 21 C14 21 14 21 12.19921875 19.46875 C11.70035156 18.8190625 11.20148438 18.169375 10.6875 17.5 C10.17574219 16.8503125 9.66398437 16.200625 9.13671875 15.53125 C8.76160156 15.0259375 8.38648438 14.520625 8 14 C7.34 16.31 6.68 18.62 6 21 C4.02 21 2.04 21 0 21 C0 14.07 0 7.14 0 0 Z " fill="#F5A937" transform="translate(339,113)"/>
<path d="M0 0 C1.4540625 0.0309375 1.4540625 0.0309375 2.9375 0.0625 C10.9375 15.49333004 10.9375 15.49333004 10.9375 21.0625 C8.9575 21.0625 6.9775 21.0625 4.9375 21.0625 C4.6075 20.0725 4.2775 19.0825 3.9375 18.0625 C1.2975 18.0625 -1.3425 18.0625 -4.0625 18.0625 C-4.3925 19.0525 -4.7225 20.0425 -5.0625 21.0625 C-7.0425 21.0625 -9.0225 21.0625 -11.0625 21.0625 C-7.29117696 0.14879953 -7.29117696 0.14879953 0 0 Z " fill="#F5AF44" transform="translate(174.0625,112.9375)"/>
<path d="M0 0 C0.78503906 0.00386719 1.57007813 0.00773437 2.37890625 0.01171875 C4.4375 0.3125 4.4375 0.3125 6.4375 2.3125 C6.25 4.3125 6.25 4.3125 5.4375 6.3125 C4.4475 6.9725 3.4575 7.6325 2.4375 8.3125 C3.2625 8.8075 4.0875 9.3025 4.9375 9.8125 C7.61642895 12.49142895 7.83412427 12.88395937 7.9375 16.4375 C7.69 18.355625 7.69 18.355625 7.4375 20.3125 C3.91070901 22.66369399 2.40870515 22.52693452 -1.75 22.4375 C-2.83667969 22.41945312 -3.92335937 22.40140625 -5.04296875 22.3828125 C-6.29013672 22.34800781 -6.29013672 22.34800781 -7.5625 22.3125 C-8.6875 18.5625 -8.6875 18.5625 -7.5625 16.3125 C-4.9225 16.6425 -2.2825 16.9725 0.4375 17.3125 C0.4375 16.6525 0.4375 15.9925 0.4375 15.3125 C-0.490625 15.065 -1.41875 14.8175 -2.375 14.5625 C-5.79080758 13.22296761 -7.00801574 12.60434902 -8.5625 9.3125 C-8.4353917 6.19834661 -8.20373619 4.15301267 -6.29296875 1.6484375 C-4.07059887 -0.06725211 -2.77994498 -0.05953754 0 0 Z " fill="#F5B047" transform="translate(219.5625,111.6875)"/>
<path d="M0 0 C0.66 0.66 1.32 1.32 2 2 C1.875 4 1.875 4 1 6 C-1.0625 7.25 -1.0625 7.25 -3 8 C-2.01 8.70125 -1.02 9.4025 0 10.125 C2.56493651 12.25438125 2.94646027 12.6653767 3.5 16.125 C3 19 3 19 1 22 C-2.0390625 22.29296875 -2.0390625 22.29296875 -5.625 22.1875 C-6.81351562 22.16042969 -8.00203125 22.13335937 -9.2265625 22.10546875 C-10.14179688 22.07066406 -11.05703125 22.03585938 -12 22 C-12.33 20.35 -12.66 18.7 -13 17 C-9.67465243 15.89155081 -7.37817425 16.15545644 -4 17 C-4 16.34 -4 15.68 -4 15 C-4.928125 14.731875 -5.85625 14.46375 -6.8125 14.1875 C-11.40883978 12.47513812 -11.40883978 12.47513812 -13 10 C-13.5244772 6.4785102 -13.41549639 4.68647229 -11.5625 1.625 C-7.87825567 -0.71135006 -4.26545908 -0.70816502 0 0 Z " fill="#F5AA38" transform="translate(399,112)"/>
<path d="M0 0 C0.33 1.32 0.66 2.64 1 4 C-2.82989106 5.80230168 -5.78121808 6.19622241 -10 6 C-10 8.97 -10 11.94 -10 15 C-6.7 15 -3.4 15 0 15 C0.38218767 16.65614657 0.71395102 18.32457024 1 20 C-0.86585954 21.86585954 -3.81236371 21.25966063 -6.3125 21.3125 C-8.03919922 21.36857422 -8.03919922 21.36857422 -9.80078125 21.42578125 C-13 21 -13 21 -15.38671875 19.3515625 C-18.37796532 14.99144038 -17.68616244 10.06651253 -17 5 C-15.22329829 1.70981164 -13.84397137 0.53920393 -10.75 -1.4375 C-6.72733832 -2.26031716 -3.9094771 -1.19272183 0 0 Z " fill="#F5B046" transform="translate(136,113)"/>
<path d="M0 0 C0.66 0.66 1.32 1.32 2 2 C1.67 3.32 1.34 4.64 1 6 C-3.455 6.495 -3.455 6.495 -8 7 C-8.23428313 11.7897321 -8.23428313 11.7897321 -6 16 C-4.02252878 16.36297936 -4.02252878 16.36297936 -1.875 16.1875 C-0.59625 16.125625 0.6825 16.06375 2 16 C2.38218767 17.65614657 2.71395102 19.32457024 3 21 C1.12922398 22.87077602 -1.80430971 22.30246057 -4.3125 22.375 C-5.46363281 22.42398438 -6.61476563 22.47296875 -7.80078125 22.5234375 C-11 22 -11 22 -13.359375 19.6875 C-15.43631847 16.2852688 -15.93124182 13.98797462 -16 10 C-14.88375213 6.47500673 -13.75040689 3.8947159 -11.375 1.0625 C-7.72410174 -0.57079659 -3.93769112 -0.58533246 0 0 Z " fill="#F6B451" transform="translate(90,112)"/>
<path d="M0 0 C1.98 0 3.96 0 6 0 C6 6.93 6 13.86 6 21 C4.02 21 2.04 21 0 21 C0 14.07 0 7.14 0 0 Z " fill="#F8C57A" transform="translate(255,113)"/>
<path d="M0 0 C1.8125 1.125 1.8125 1.125 3 3 C3.42888292 6.35958291 3.33264845 8.3347031 1.8125 11.375 C0 13 0 13 -2.5 13.5 C-5 13 -5 13 -6.8125 11.375 C-8.33264845 8.3347031 -8.42888292 6.35958291 -8 3 C-5.90534242 -0.30735407 -3.75951639 -0.56392746 0 0 Z " fill="#FEF9F2" transform="translate(39,117)"/>
<path d="M0 0 C3 -0.3125 3 -0.3125 6 0 C8.42522207 2.42522207 8.29629254 3.1720679 8.3125 6.5 C8.33763672 7.69109375 8.33763672 7.69109375 8.36328125 8.90625 C8.24339844 9.5971875 8.12351562 10.288125 8 11 C5 13 5 13 1.875 12.75 C0.451875 12.37875 0.451875 12.37875 -1 12 C-2.50934217 8.98131566 -2.17510672 6.32702771 -2 3 C-1.34 2.01 -0.68 1.02 0 0 Z " fill="#FEFAF4" transform="translate(297,117)"/>
<path d="M0 0 C0.66 0 1.32 0 2 0 C2 0.66 2 1.32 2 2 C2.66 2 3.32 2 4 2 C4 2.66 4 3.32 4 4 C3.34 4 2.68 4 2 4 C1.9906543 5.07483643 1.98130859 6.14967285 1.97167969 7.25708008 C1.93181586 11.24383028 1.86606827 15.2298058 1.79248047 19.21606445 C1.76424969 20.94154918 1.7430456 22.66716374 1.72900391 24.39282227 C1.70760258 26.87323574 1.66097083 29.3520849 1.609375 31.83203125 C1.60753204 32.98998955 1.60753204 32.98998955 1.60565186 34.17134094 C1.45957253 39.50909298 1.45957253 39.50909298 -0.890625 42.01953125 C-3.60329647 43.28042114 -4.89776449 42.98444816 -7.75 42.1875 C-8.54921875 41.97480469 -9.3484375 41.76210937 -10.171875 41.54296875 C-10.77515625 41.36378906 -11.3784375 41.18460938 -12 41 C-8.58028525 40.05049135 -5.54667612 40 -2 40 C0.10669459 37.89330541 -0.74107511 33.28743711 -0.68359375 30.37109375 C-0.66281265 29.50686295 -0.64203156 28.64263214 -0.62062073 27.75221252 C-0.55502886 24.98072555 -0.49619582 22.20914079 -0.4375 19.4375 C-0.39432392 17.56314077 -0.35070994 15.68879157 -0.30664062 13.81445312 C-0.19933773 9.20973664 -0.09809785 4.60492142 0 0 Z " fill="#A9D5E7" transform="translate(161,54)"/>
<path d="M0 0 C0.33 0 0.66 0 1 0 C1 13.53 1 27.06 1 41 C-3.53786224 38.73106888 -4.94678157 36.90133466 -8 33 C-5.50638429 34.20381448 -3.31856917 35.45428722 -1 37 C-0.67 24.79 -0.34 12.58 0 0 Z " fill="#58AED2" transform="translate(151,41)"/>
<path d="M0 0 C0.99 0 1.98 0 3 0 C3 6.27 3 12.54 3 19 C2.01 19 1.02 19 0 19 C0 12.73 0 6.46 0 0 Z " fill="#F39200" transform="translate(257,114)"/>
<path d="M0 0 C3 3 3 3 3.15698242 6.1862793 C3.05748291 7.46929932 2.9579834 8.75231934 2.85546875 10.07421875 C2.80683182 10.7580513 2.75819489 11.44188385 2.70808411 12.1464386 C2.54946238 14.32820786 2.36878578 16.50750843 2.1875 18.6875 C2.07601621 20.1672086 1.96597275 21.64702648 1.85742188 23.12695312 C1.58830985 26.75271849 1.29939484 30.37659523 1 34 C0.67 34 0.34 34 0 34 C0 22.78 0 11.56 0 0 Z " fill="#E5F3F7" transform="translate(105,57)"/>
<path d="M0 0 C0.33 1.32 0.66 2.64 1 4 C0.34 4 -0.32 4 -1 4 C-1 3.01 -1 2.02 -1 1 C-2.75091019 1.08754551 -4.50079551 1.19573373 -6.25 1.3125 C-7.22453125 1.37050781 -8.1990625 1.42851563 -9.203125 1.48828125 C-12.25341611 2.04636524 -13.70711276 2.96369776 -16 5 C-14.97547494 2.02887733 -13.97048453 0.97891752 -11.375 -0.875 C-6.7965549 -2.40114837 -4.53225054 -1.48470276 0 0 Z " fill="#FAD8A4" transform="translate(136,113)"/>
<path d="M0 0 C2.5 2.3125 2.5 2.3125 5 5 C5 5.99 5 6.98 5 8 C4.34 7.34 3.68 6.68 3 6 C2.01 9.465 2.01 9.465 1 13 C0.67 13 0.34 13 0 13 C0 8.71 0 4.42 0 0 Z " fill="#FCE9CD" transform="translate(344,121)"/>
<path d="M0 0 C0.33 0.99 0.66 1.98 1 3 C-1.475 4.485 -1.475 4.485 -4 6 C-3.01 6.99 -2.02 7.98 -1 9 C-3.9375 8.25 -3.9375 8.25 -7 7 C-7.875 4.875 -7.875 4.875 -8 3 C-6.865625 2.87625 -5.73125 2.7525 -4.5625 2.625 C-3.386875 2.41875 -2.21125 2.2125 -1 2 C-0.67 1.34 -0.34 0.68 0 0 Z " fill="#FCECD4" transform="translate(400,114)"/>
<path d="M0 0 C2.50037734 2.17424117 3.43628586 3.73045798 4 7 C2.02 7 0.04 7 -2 7 C-1.34 4.69 -0.68 2.38 0 0 Z " fill="#FCEACF" transform="translate(173,119)"/>
<path d="M0 0 C0 0.33 0 0.66 0 1 C-2.64 1 -5.28 1 -8 1 C-9.52299523 3.93720508 -10.80100302 6.9168649 -12 10 C-12.33 10 -12.66 10 -13 10 C-13.31068741 6.58243849 -13.3625104 4.59893023 -11.5625 1.625 C-7.79880462 -0.76173366 -4.34043107 -0.33387931 0 0 Z " fill="#F9D49C" transform="translate(399,112)"/>
<path d="M0 0 C2.64 0 5.28 0 8 0 C6.515 1.485 6.515 1.485 5 3 C5.99 3.99 6.98 4.98 8 6 C5.69 5.34 3.38 4.68 1 4 C0.67 2.68 0.34 1.36 0 0 Z " fill="#FCEED9" transform="translate(217,117)"/>
<path d="M0 0 C0.66 0 1.32 0 2 0 C2 0.66 2 1.32 2 2 C2.66 2 3.32 2 4 2 C4 2.66 4 3.32 4 4 C3.34 4 2.68 4 2 4 C1.67 6.64 1.34 9.28 1 12 C0.67 12 0.34 12 0 12 C0 8.04 0 4.08 0 0 Z " fill="#C1E1EE" transform="translate(161,54)"/>
<path d="M0 0 C2.49361571 1.20381448 4.68143083 2.45428722 7 4 C7.33 2.68 7.66 1.36 8 0 C8 2.31 8 4.62 8 7 C4.2047869 5.50902342 2.38957269 3.24299151 0 0 Z " fill="#E0EFF6" transform="translate(143,74)"/>
</svg>
