<?xml version="1.0" encoding="UTF-8"?>
<svg version="1.1" xmlns="http://www.w3.org/2000/svg" width="1200" height="505">
<path d="M0 0 C1.2065625 0.0309375 1.2065625 0.0309375 2.4375 0.0625 C13.41508781 29.67813127 24.29067869 59.32631706 34.9375 89.0625 C42.17164464 109.26662107 49.48836536 129.43632329 56.9375 149.5625 C64.63587784 170.36208548 72.18796014 191.20998473 79.66350174 212.09033585 C86.79762344 232.01597159 94.02962942 251.9010983 101.375 271.75 C108.30433016 290.47568029 115.12871882 309.23296163 121.76342773 328.06518555 C127.53962927 344.44256829 133.50124337 360.73779427 139.4375 377.0625 C139.7675 259.5825 140.0975 142.1025 140.4375 21.0625 C121.6275 21.0625 102.8175 21.0625 83.4375 21.0625 C83.4375 19.4125 83.4375 17.7625 83.4375 16.0625 C111.02096076 15.99213775 138.60440789 15.93937935 166.1879406 15.90706348 C178.99804577 15.89165384 191.80809489 15.87067843 204.61816406 15.83618164 C215.79514772 15.80609724 226.97209074 15.78688222 238.14911377 15.78023452 C244.05659213 15.77635422 249.96395432 15.76736104 255.87139511 15.74530983 C313.32350073 15.5391786 313.32350073 15.5391786 337.5 21.875 C338.52544922 22.13361816 339.55089844 22.39223633 340.60742188 22.65869141 C375.91288607 31.79494868 409.95651251 50.17624478 429.4375 82.0625 C442.38114902 104.41216258 448.36975596 132.39860703 441.8125 157.875 C436.69282397 174.79141204 428.6359682 188.33823576 416.4375 201.0625 C415.75171875 201.81144531 415.0659375 202.56039062 414.359375 203.33203125 C396.43178162 222.28880129 370.38710627 234.55067067 345.234375 240.25390625 C344.2546875 240.47626953 343.275 240.69863281 342.265625 240.92773438 C341.24984375 241.15783203 340.2340625 241.38792969 339.1875 241.625 C338.15625 241.85896484 337.125 242.09292969 336.0625 242.33398438 C333.52092149 242.91054617 330.97925203 243.4867037 328.4375 244.0625 C329.56055542 244.25042114 329.56055542 244.25042114 330.70629883 244.44213867 C363.66904029 250.0078669 401.71377162 257.33877162 426.4375 282.0625 C427.92299886 278.16905179 429.39978112 274.27235366 430.875 270.375 C431.29587891 269.27220703 431.71675781 268.16941406 432.15039062 267.03320312 C432.75463867 265.4331543 432.75463867 265.4331543 433.37109375 263.80078125 C433.74290771 262.82149658 434.11472168 261.84221191 434.49780273 260.83325195 C435.37502473 258.24671196 435.9720167 255.75029068 436.4375 253.0625 C437.0975 253.0625 437.7575 253.0625 438.4375 253.0625 C440.00651859 246.07716204 440.00651859 246.07716204 441.4375 239.0625 C442.0975 239.0625 442.7575 239.0625 443.4375 239.0625 C443.52241699 238.29534668 443.60733398 237.52819336 443.69482422 236.73779297 C444.71303089 231.69897535 446.51215659 227.06151723 448.3203125 222.2578125 C448.72226334 221.17575531 449.12421417 220.09369812 449.53834534 218.97885132 C450.41405769 216.62205954 451.29202523 214.26610478 452.17196655 211.91088867 C454.57395711 205.47915239 456.95721474 199.04049144 459.33984375 192.6015625 C459.5887694 191.92931389 459.83769505 191.25706528 460.09416389 190.5644455 C465.87921206 174.93584273 471.50925196 159.25255915 477.125 143.5625 C479.04156726 138.20913275 480.95921404 132.85615376 482.87890625 127.50390625 C483.11238392 126.85293409 483.34586159 126.20196194 483.58641434 125.53126335 C489.21883501 109.83502796 494.97291379 94.18362547 500.76831055 78.546875 C501.45262346 76.69673005 502.13663586 74.84647391 502.8203125 72.99609375 C503.13988419 72.1328952 503.45945587 71.26969666 503.78871155 70.38034058 C506.18224481 63.87065811 508.36265722 57.30929921 510.42529297 50.68774414 C511.4375 48.0625 511.4375 48.0625 513.4375 47.0625 C513.64213807 45.15254469 513.84563532 43.24246044 514.04345703 41.33178711 C514.44434429 39.02308384 515.09688285 37.35482782 516.1171875 35.25390625 C519.22616643 28.49991754 521.65695939 21.48498539 524.1875 14.5 C524.69892887 13.09559753 525.21064546 11.6912998 525.72265625 10.28710938 C526.96425449 6.88010652 528.20196171 3.47170587 529.4375 0.0625 C531.0875 0.0625 532.7375 0.0625 534.4375 0.0625 C537.89077557 8.14722286 541.05049712 16.29347919 544 24.57421875 C544.63566139 26.34570786 544.63566139 26.34570786 545.28416443 28.15298462 C546.1953499 30.6924413 547.105553 33.23222479 548.01412964 35.77261353 C550.47096136 42.64052762 552.94003853 49.50404276 555.41015625 56.3671875 C555.66260668 57.06881578 555.91505711 57.77044407 556.17515755 58.49333382 C561.33047401 72.8161912 566.59072173 87.09921402 571.875 101.375 C579.59456393 122.2384844 587.1664762 143.15108291 594.66508484 164.09463882 C601.71681021 183.78906023 608.86276582 203.44443776 616.125 223.0625 C623.44903865 242.8478047 630.61759105 262.68277686 637.68109131 282.5625 C644.3388809 301.2911871 651.15773318 319.95565603 658.05810547 338.59619141 C665.37814838 358.37854612 672.54656313 378.21134395 679.65620041 398.06997299 C689.17752033 424.66264772 698.89081485 451.18158566 708.70956421 477.66584778 C709.05661407 478.60280991 709.40366394 479.53977203 709.76123047 480.50512695 C710.06269989 481.31802689 710.36416931 482.13092682 710.67477417 482.96846008 C711.28971329 484.6567562 711.86930163 486.35790489 712.4375 488.0625 C742.6325 488.5575 742.6325 488.5575 773.4375 489.0625 C773.4375 490.7125 773.4375 492.3625 773.4375 494.0625 C708.7575 494.0625 644.0775 494.0625 577.4375 494.0625 C577.4375 492.4125 577.4375 490.7625 577.4375 489.0625 C595.9175 488.7325 614.3975 488.4025 633.4375 488.0625 C631.4575 482.4525 629.4775 476.8425 627.4375 471.0625 C627.4375 470.0725 627.4375 469.0825 627.4375 468.0625 C626.7775 467.7325 626.1175 467.4025 625.4375 467.0625 C624.37449018 464.17718764 623.41835783 461.30692849 622.5 458.375 C619.77810957 449.97261149 616.87896414 441.65763882 613.8125 433.375 C609.97434422 422.99252974 606.17475981 412.59690465 602.41015625 402.1875 C602.18540619 401.56607809 601.96065613 400.94465618 601.72909546 400.30440331 C599.66447974 394.59542402 597.60105649 388.88601487 595.53948975 383.17593384 C594.23425093 379.56097611 592.92796937 375.94639755 591.62109375 372.33203125 C591.19779785 371.16066116 590.77450195 369.98929108 590.33837891 368.78242493 C588.10588111 362.61851866 585.85043349 356.46399732 583.55908203 350.32177734 C583.32487706 349.69323569 583.09067209 349.06469404 582.84937 348.41710567 C581.72482053 345.40041824 580.59637443 342.38528535 579.46202087 339.37226868 C579.06471268 338.30929062 578.66740448 337.24631256 578.25805664 336.15112305 C577.90554337 335.21382858 577.55303009 334.27653412 577.18983459 333.31083679 C576.4375 331.0625 576.4375 331.0625 576.4375 329.0625 C537.8275 329.3925 499.2175 329.7225 459.4375 330.0625 C461.9125 339.4675 461.9125 339.4675 464.4375 349.0625 C466.14961632 360.29967504 466.72137736 371.16169833 466.71189499 382.49580193 C466.71090592 385.11083821 466.72414338 387.72548922 466.74087524 390.34046936 C466.7864516 397.76169997 466.81172405 405.18288158 466.81835938 412.60424805 C466.82343314 417.18226421 466.84795981 421.75986552 466.88368607 426.33773994 C466.89333483 428.05610197 466.89589991 429.77452208 466.89051437 431.49290276 C466.84678703 446.12044761 468.02113778 461.6207784 475.25 474.6875 C475.77037842 475.66746948 475.77037842 475.66746948 476.30126953 476.66723633 C481.89948489 486.89145301 488.2954854 492.34849513 499.4375 496.0625 C517.61596964 497.42261571 530.76391192 491.39284178 544.41796875 479.8203125 C545.08441406 479.24023438 545.75085938 478.66015625 546.4375 478.0625 C547.4275 478.7225 548.4175 479.3825 549.4375 480.0625 C547.90163141 484.17711091 544.96281812 486.37558281 541.5625 488.9375 C540.98024658 489.37658691 540.39799316 489.81567383 539.7980957 490.26806641 C519.76843988 505.00333685 493.69905165 507.58797384 469.51171875 504.53125 C458.24864835 502.80104592 446.42147472 499.70664723 436.4375 494.0625 C436.1075 493.4025 435.7775 492.7425 435.4375 492.0625 C434.71175781 491.7840625 433.98601563 491.505625 433.23828125 491.21875 C423.11953415 487.04141507 414.31650095 476.57197826 408.84765625 467.39453125 C407.5147468 464.98028316 407.5147468 464.98028316 405.4375 463.0625 C397.4375 448.12916667 397.4375 448.12916667 397.4375 442.0625 C396.7775 441.7325 396.1175 441.4025 395.4375 441.0625 C394.64299684 438.59804114 393.97570187 436.19991423 393.375 433.6875 C393.19727051 432.96812256 393.01954102 432.24874512 392.83642578 431.50756836 C391.61195502 426.34811996 390.91662668 421.31226939 390.7109375 416.00390625 C390.62070312 415.36324219 390.53046875 414.72257812 390.4375 414.0625 C389.7775 413.7325 389.1175 413.4025 388.4375 413.0625 C388.458125 412.093125 388.47875 411.12375 388.5 410.125 C388.79368499 407.18784105 388.79368499 407.18784105 387.4375 406.0625 C386.99059814 407.30298096 386.54369629 408.54346191 386.08325195 409.8215332 C376.6659167 435.95223446 367.15359973 462.04122142 357.4375 488.0625 C372.2875 488.3925 387.1375 488.7225 402.4375 489.0625 C402.4375 490.7125 402.4375 492.3625 402.4375 494.0625 C370.0975 494.0625 337.7575 494.0625 304.4375 494.0625 C304.4375 492.4125 304.4375 490.7625 304.4375 489.0625 C320.2775 489.0625 336.1175 489.0625 352.4375 489.0625 C353.0975 486.0925 353.7575 483.1225 354.4375 480.0625 C355.05169011 478.1266036 355.70779472 476.20316552 356.41772461 474.30029297 C356.80250473 473.25984833 357.18728485 472.21940369 357.58372498 471.14743042 C357.99824417 470.04432526 358.41276337 468.94122009 358.83984375 467.8046875 C359.27704239 466.62576935 359.71424103 465.4468512 360.16468811 464.23220825 C361.32851625 461.09605664 362.49708318 457.96176488 363.66845703 454.82843018 C364.81629382 451.75645959 365.95997139 448.68294563 367.10351562 445.609375 C367.77993355 443.79357185 367.77993355 443.79357185 368.47001648 441.94108582 C369.39129961 439.4533761 370.30620307 436.96438602 371.21076965 434.47065735 C373.28858804 428.75805523 375.39759036 423.08428331 377.77943993 417.49029064 C386.56413675 396.78320139 387.84706457 378.43985782 386.96240234 356.09936523 C386.84476327 352.7689966 386.78519601 349.43864251 386.72711086 346.10678196 C386.65309352 342.05099205 386.54409239 337.99633681 386.43359375 333.94140625 C386.41651304 333.20053835 386.39943233 332.45967045 386.38183403 331.69635201 C386.03968805 318.49441636 384.17363549 305.6214161 378.171875 293.6640625 C377.4375 292.0625 377.4375 292.0625 377.4375 290.0625 C376.7775 289.7325 376.1175 289.4025 375.4375 289.0625 C374.633125 287.5775 374.633125 287.5775 373.8125 286.0625 C364.09078583 268.74017294 344.31886602 259.07596274 325.9375 253.75 C315.15505366 250.76114096 304.66217595 248.86205936 293.4375 249.0625 C291.4575 248.7325 289.4775 248.4025 287.4375 248.0625 C263.3475 247.7325 239.2575 247.4025 214.4375 247.0625 C214.4375 326.9225 214.4375 406.7825 214.4375 489.0625 C233.2475 489.0625 252.0575 489.0625 271.4375 489.0625 C271.7675 490.3825 272.0975 491.7025 272.4375 493.0625 C270.56391196 494.93608804 267.86018426 494.18531958 265.36712164 494.19158131 C264.48678922 494.18866847 263.60645679 494.18575563 262.69944763 494.18275452 C261.77162682 494.18360894 260.84380601 494.18446337 259.88786942 494.18534368 C256.75392179 494.18700133 253.62002675 494.18147248 250.48608398 494.17602539 C248.24951173 494.17574355 246.01293939 494.17590118 243.77636719 494.1764679 C237.68363747 494.17675601 231.59092725 494.17085707 225.49820209 494.16389394 C219.13870005 494.15766267 212.77919761 494.15705678 206.41969299 494.15586853 C195.73885723 494.15310883 185.0580292 494.1468533 174.37719727 494.13793945 C163.37394242 494.12876605 152.37068953 494.12168487 141.36743164 494.11743164 C140.35075373 494.11703756 140.35075373 494.11703756 139.31353687 494.11663551 C135.91342335 494.11533051 132.5133098 494.11406679 129.11319625 494.11282361 C100.88795916 494.10245013 72.66273003 494.08475694 44.4375 494.0625 C44.4375 492.4125 44.4375 490.7625 44.4375 489.0625 C63.2475 489.0625 82.0575 489.0625 101.4375 489.0625 C98.21107698 480.08234082 94.98287243 471.1028376 91.75 462.125 C91.50461487 461.44353661 91.25922974 460.76207321 91.00640869 460.05995941 C83.56732169 439.40438752 76.04751435 418.78076469 68.4375 398.1875 C56.75549391 366.55711912 56.75549391 366.55711912 51.04907227 350.74603271 C50.44003974 349.05976889 49.82940039 347.37408442 49.21704102 345.68902588 C48.39379512 343.42198568 47.57674381 341.15281879 46.76171875 338.8828125 C46.52225021 338.22643799 46.28278168 337.57006348 46.03605652 336.89379883 C45.04968068 334.12499188 44.4375 332.03036036 44.4375 329.0625 C-9.0225 329.0625 -62.4825 329.0625 -117.5625 329.0625 C-119.0475 334.0125 -119.0475 334.0125 -120.5625 339.0625 C-121.18793565 340.92085021 -121.82947268 342.77398474 -122.49755859 344.61743164 C-122.8507869 345.59607178 -123.2040152 346.57471191 -123.56794739 347.58300781 C-123.94513412 348.6190918 -124.32232086 349.65517578 -124.7109375 350.72265625 C-125.1157988 351.84115967 -125.5206601 352.95966309 -125.93778992 354.11206055 C-127.0386879 357.15089709 -128.14217007 360.1887781 -129.24708939 363.22615433 C-129.94258234 365.13897803 -130.63698495 367.05219404 -131.33102417 368.96554565 C-139.23922914 390.76640823 -147.23738319 412.53366458 -155.26977539 434.2890625 C-161.75701598 451.8599464 -168.19328291 469.44848781 -174.5625 487.0625 C-160.03895596 483.44325145 -145.96850792 479.81259767 -132.5625 473.0625 C-131.06589844 472.32386719 -131.06589844 472.32386719 -129.5390625 471.5703125 C-118.66896389 465.93734824 -109.4493603 458.41215804 -100.5625 450.0625 C-99.67498047 449.2890625 -99.67498047 449.2890625 -98.76953125 448.5 C-86.70849844 437.49896295 -76.73857199 419.94503211 -72.26293945 404.33300781 C-71.49651195 401.84859661 -70.56415774 399.46176525 -69.62109375 397.0390625 C-67.48075483 391.18306018 -66.31963588 385.39908241 -65.375 379.25 C-65.20774414 378.2084375 -65.04048828 377.166875 -64.86816406 376.09375 C-63.67557183 368.42878598 -62.83566826 360.8204786 -62.5625 353.0625 C-60.9125 353.3925 -59.2625 353.7225 -57.5625 354.0625 C-57.5625 400.2625 -57.5625 446.4625 -57.5625 494.0625 C-179.3325 494.0625 -301.1025 494.0625 -426.5625 494.0625 C-425.79248773 490.21243864 -425.2363858 488.05473427 -423.5 484.75 C-422.95666016 483.70392578 -422.95666016 483.70392578 -422.40234375 482.63671875 C-422.12519531 482.11722656 -421.84804688 481.59773438 -421.5625 481.0625 C-420.9025 481.0625 -420.2425 481.0625 -419.5625 481.0625 C-419.19898438 480.06669922 -419.19898438 480.06669922 -418.828125 479.05078125 C-417.23768288 475.29557069 -415.30642479 471.80385444 -413.3125 468.25 C-412.88066406 467.47664307 -412.44882812 466.70328613 -412.00390625 465.90649414 C-405.00643863 453.43919232 -397.76503219 441.10466283 -390.4453125 428.82421875 C-389.97609375 428.03474854 -389.506875 427.24527832 -389.0234375 426.43188477 C-388.15503289 424.97295867 -387.28283957 423.51627877 -386.40625 422.06225586 C-384.27760164 418.79011931 -384.27760164 418.79011931 -383.5625 415.0625 C-382.9025 415.0625 -382.2425 415.0625 -381.5625 415.0625 C-381.14629395 413.96965698 -381.14629395 413.96965698 -380.72167969 412.85473633 C-379.63434335 410.23555652 -378.41352985 407.85127258 -377.015625 405.38671875 C-376.50789551 404.48912842 -376.00016602 403.59153809 -375.47705078 402.66674805 C-374.92774902 401.70422119 -374.37844727 400.74169434 -373.8125 399.75 C-373.23612793 398.73526611 -372.65975586 397.72053223 -372.06591797 396.67504883 C-366.84337017 387.50420976 -361.52505458 378.39004852 -356.1953125 369.28125 C-352.29725988 362.61594273 -348.42539856 355.93571239 -344.5625 349.25 C-343.64621826 347.66771606 -343.64621826 347.66771606 -342.71142578 346.0534668 C-339.29742618 340.13934445 -335.98995409 334.18915582 -332.82421875 328.13793945 C-331.5625 326.0625 -331.5625 326.0625 -329.5625 325.0625 C-328.86355493 323.40911015 -328.2015937 321.739933 -327.5625 320.0625 C-326.72611346 318.52064965 -325.85771916 316.99580492 -324.9609375 315.48828125 C-324.47109375 314.65619141 -323.98125 313.82410156 -323.4765625 312.96679688 C-322.44333938 311.22683866 -321.40947637 309.48726027 -320.375 307.74804688 C-319.88773437 306.91982422 -319.40046875 306.09160156 -318.8984375 305.23828125 C-318.45032715 304.48458252 -318.0022168 303.73088379 -317.54052734 302.9543457 C-316.40942244 301.12134449 -316.40942244 301.12134449 -316.5625 299.0625 C-315.9025 299.0625 -315.2425 299.0625 -314.5625 299.0625 C-314.28720459 298.33756348 -314.01190918 297.61262695 -313.72827148 296.86572266 C-312.61165486 294.18069815 -311.34627514 291.73717059 -309.91015625 289.2109375 C-309.12366699 287.82310059 -309.12366699 287.82310059 -308.32128906 286.40722656 C-307.76151367 285.4272168 -307.20173828 284.44720703 -306.625 283.4375 C-306.05104492 282.42655273 -305.47708984 281.41560547 -304.88574219 280.37402344 C-300.61046064 272.8575367 -296.28678963 265.36904989 -291.90258789 257.91552734 C-291.26244751 256.82038818 -291.26244751 256.82038818 -290.609375 255.703125 C-290.23651367 255.06922852 -289.86365234 254.43533203 -289.47949219 253.78222656 C-288.41723706 251.90559037 -288.41723706 251.90559037 -287.5625 249.0625 C-286.9025 249.0625 -286.2425 249.0625 -285.5625 249.0625 C-285.32015625 248.39863281 -285.0778125 247.73476562 -284.828125 247.05078125 C-283.23767794 243.29555902 -281.30637564 239.80388773 -279.3125 236.25 C-278.87631348 235.46866699 -278.44012695 234.68733398 -277.99072266 233.88232422 C-273.80334956 226.42015465 -269.48550108 219.03526297 -265.15917969 211.65307617 C-260.5729235 203.81996186 -256.05508207 195.9495075 -251.5625 188.0625 C-246.44285191 179.07645262 -241.28313063 170.11542221 -236.0625 161.1875 C-230.384494 151.48138964 -230.384494 151.48138964 -224.75 141.75 C-224.14542969 140.70199219 -223.54085937 139.65398437 -222.91796875 138.57421875 C-221.46262298 136.04995951 -221.46262298 136.04995951 -220.5625 133.0625 C-219.9025 133.0625 -219.2425 133.0625 -218.5625 133.0625 C-218.32660156 132.41023437 -218.09070313 131.75796875 -217.84765625 131.0859375 C-216.16465959 127.12654718 -214.10234897 123.43742036 -212 119.6875 C-211.56252441 118.90181641 -211.12504883 118.11613281 -210.67431641 117.30664062 C-207.33326008 111.3429572 -203.86103238 105.46638463 -200.25561523 99.65869141 C-198.21449888 96.58859884 -198.21449888 96.58859884 -197.5625 93.0625 C-196.9025 93.0625 -196.2425 93.0625 -195.5625 93.0625 C-195.14798584 91.96651489 -195.14798584 91.96651489 -194.72509766 90.84838867 C-193.63546634 88.23734647 -192.40552325 85.91668416 -190.9609375 83.48828125 C-190.22617187 82.24014648 -190.22617187 82.24014648 -189.4765625 80.96679688 C-188.44333938 79.22683866 -187.40947637 77.48726027 -186.375 75.74804688 C-185.88773438 74.91982422 -185.40046875 74.09160156 -184.8984375 73.23828125 C-184.45032715 72.48458252 -184.0022168 71.73088379 -183.54052734 70.9543457 C-182.40942244 69.12134449 -182.40942244 69.12134449 -182.5625 67.0625 C-181.9025 67.0625 -181.2425 67.0625 -180.5625 67.0625 C-180.32660156 66.40507813 -180.09070313 65.74765625 -179.84765625 65.0703125 C-178.1860001 61.18133003 -176.11012842 57.59772276 -174 53.9375 C-173.18376499 52.51962697 -172.36986435 51.10040688 -171.55859375 49.6796875 C-171.19950928 49.05690918 -170.8404248 48.43413086 -170.47045898 47.79248047 C-169.42054318 45.90474152 -169.42054318 45.90474152 -168.5625 43.0625 C-167.9025 43.0625 -167.2425 43.0625 -166.5625 43.0625 C-166.21058594 42.08216797 -166.21058594 42.08216797 -165.8515625 41.08203125 C-164.16494541 37.13125848 -162.06823525 33.47545742 -159.9375 29.75 C-159.30714844 28.63915039 -159.30714844 28.63915039 -158.6640625 27.50585938 C-157.63301505 25.68980989 -156.59813954 23.87593467 -155.5625 22.0625 C-171.54958081 21.99205923 -187.5366104 21.93934164 -203.52380943 21.90706348 C-210.9488688 21.89167014 -218.37383111 21.87072702 -225.79882812 21.83618164 C-232.27914873 21.80604612 -238.75939896 21.78687046 -245.2397877 21.78023452 C-248.66323679 21.7763626 -252.08648475 21.76742578 -255.50986862 21.74530983 C-274.00487085 21.63916127 -291.6252446 22.06609549 -309.25 28.25 C-310.12446777 28.55043213 -310.99893555 28.85086426 -311.89990234 29.16040039 C-342.59561052 40.08461003 -365.72398144 63.28287791 -379.8125 92.25 C-390.34064246 114.64058075 -393.66393876 137.63343645 -395.5625 162.0625 C-397.2125 162.0625 -398.8625 162.0625 -400.5625 162.0625 C-400.5625 113.8825 -400.5625 65.7025 -400.5625 16.0625 C-290.6725 16.0625 -180.7825 16.0625 -67.5625 16.0625 C-68.79709128 19.1489782 -69.87464541 21.80175482 -71.453125 24.64453125 C-72.01132935 25.65193359 -72.01132935 25.65193359 -72.58081055 26.6796875 C-72.98726807 27.40414063 -73.39372559 28.12859375 -73.8125 28.875 C-74.24796143 29.65488281 -74.68342285 30.43476563 -75.13208008 31.23828125 C-79.93495415 39.79603842 -84.90043988 48.25867718 -89.859375 56.7265625 C-93.59884589 63.11531992 -97.30375034 69.52366076 -101 75.9375 C-101.62221436 77.01708984 -102.24442871 78.09667969 -102.88549805 79.20898438 C-104.14761517 81.3993252 -105.40957785 83.58975502 -106.67138672 85.78027344 C-109.79930148 91.20909942 -112.93108448 96.63569281 -116.0625 102.0625 C-117.31251879 104.22915583 -118.56251878 106.3958225 -119.8125 108.5625 C-142.3125 147.5625 -164.8125 186.5625 -187.3125 225.5625 C-187.93133057 226.63516113 -188.55016113 227.70782227 -189.18774414 228.81298828 C-190.43685518 230.97807071 -191.68604129 233.14310982 -192.93530273 235.30810547 C-196.07452309 240.74865706 -199.21240563 246.18997216 -202.34765625 251.6328125 C-208.36997329 262.08456199 -214.40919337 272.52549548 -220.5 282.9375 C-225.57525123 291.61512241 -230.58508767 300.32855568 -235.5625 309.0625 C-241.1025173 318.78365617 -246.69624809 328.47144658 -252.34594727 338.12939453 C-258.50016742 348.65334625 -264.58619996 359.21630137 -270.67138672 369.78027344 C-273.79930148 375.20909942 -276.93108448 380.63569281 -280.0625 386.0625 C-281.31251879 388.22915583 -282.56251878 390.3958225 -283.8125 392.5625 C-291.3125 405.5625 -298.8125 418.5625 -306.3125 431.5625 C-306.93189453 432.63612793 -307.55128906 433.70975586 -308.18945312 434.81591797 C-309.4329051 436.97121311 -310.67639436 439.12648673 -311.91992188 441.28173828 C-314.80712875 446.28587674 -317.6940043 451.2902052 -320.57946777 456.29534912 C-321.58869104 458.04591241 -322.59803836 459.79640411 -323.60742188 461.546875 C-324.8641766 463.72642165 -326.12070586 465.90609832 -327.37695312 468.0859375 C-330.33143191 473.20923479 -333.29607885 478.32631738 -336.27734375 483.43408203 C-336.89601318 484.49418488 -337.51468262 485.55428772 -338.15209961 486.64651489 C-338.61753174 487.44378998 -339.08296387 488.24106506 -339.5625 489.0625 C-319.56971125 488.95527413 -299.57696102 488.84251507 -279.58424091 488.72316074 C-270.30137191 488.66787219 -261.01849907 488.61439737 -251.7355957 488.56518555 C-243.64504606 488.52229021 -235.55452421 488.47599872 -227.46401757 488.42562145 C-223.1797948 488.39906362 -218.89557739 488.37421165 -214.6113224 488.35342598 C-210.57880185 488.33380799 -206.546334 488.30964888 -202.5138607 488.28200912 C-201.0340305 488.272666 -199.55418876 488.26498095 -198.07434082 488.25908089 C-196.05293988 488.25077314 -194.03156907 488.23590795 -192.01020813 488.22071838 C-190.87916814 488.21426583 -189.74812815 488.20781328 -188.58281422 488.2011652 C-185.77351175 488.07218773 -183.26928542 487.82321069 -180.5625 487.0625 C-179.16434017 485.09840501 -179.16434017 485.09840501 -178.35839844 482.53027344 C-178.00163025 481.56547058 -177.64486206 480.60066772 -177.27728271 479.60662842 C-176.91249817 478.55565979 -176.54771362 477.50469116 -176.171875 476.421875 C-175.7817926 475.34754211 -175.39171021 474.27320923 -174.98980713 473.1663208 C-173.74482461 469.72161303 -172.52893241 466.26737926 -171.3125 462.8125 C-170.47835375 460.49805155 -169.64243755 458.18424019 -168.8046875 455.87109375 C-167.27582441 451.62178879 -165.74889673 447.37193783 -164.24902344 443.11230469 C-163.94655701 442.25594421 -163.64409058 441.39958374 -163.3324585 440.51727295 C-162.5579042 438.04784772 -162.02226511 435.60767145 -161.5625 433.0625 C-160.9025 433.0625 -160.2425 433.0625 -159.5625 433.0625 C-159.48 431.928125 -159.3975 430.79375 -159.3125 429.625 C-158.91383271 426.42433531 -158.17031837 423.90536357 -156.78100586 421 C-154.30833194 415.60778754 -152.31133659 410.08353131 -150.31640625 404.5 C-149.91309586 403.38044418 -149.50978546 402.26088837 -149.09425354 401.10740662 C-147.99738251 398.06205272 -146.90321635 395.01574193 -145.8098526 391.96912766 C-143.69159136 386.07189451 -141.56185358 380.17878642 -139.43359375 374.28515625 C-139.1914061 373.61419481 -138.94921844 372.94323338 -138.69969177 372.25193977 C-133.42594721 357.64439977 -128.06628811 343.06919654 -122.6875 328.5 C-121.81356746 326.13072312 -120.93970622 323.76141994 -120.06591797 321.39208984 C-116.7764633 312.47424402 -113.48549453 303.55696199 -110.18798828 294.64208984 C-108.36946874 289.72507649 -106.55542878 284.80643377 -104.74481201 279.88650513 C-104.0882879 278.10530232 -103.42999906 276.32474884 -102.76983643 274.54489136 C-101.87731443 272.13829327 -100.99066026 269.72961456 -100.10546875 267.3203125 C-99.84411636 266.62016525 -99.58276398 265.92001801 -99.31349182 265.19865417 C-98.26730257 262.3343576 -97.5625 260.13973245 -97.5625 257.0625 C-96.9025 257.0625 -96.2425 257.0625 -95.5625 257.0625 C-95.2325 254.4225 -94.9025 251.7825 -94.5625 249.0625 C-93.9025 249.0625 -93.2425 249.0625 -92.5625 249.0625 C-92.48 247.928125 -92.3975 246.79375 -92.3125 245.625 C-91.91383271 242.42433531 -91.17031837 239.90536357 -89.78100586 237 C-87.30833172 231.60778706 -85.3113419 226.08352989 -83.31640625 220.5 C-82.91323181 219.38085205 -82.51005737 218.2617041 -82.09466553 217.10864258 C-80.99784441 214.06348853 -79.90372983 211.0173772 -78.81045914 207.97094727 C-76.68793625 202.06144401 -74.55431825 196.15592886 -72.421875 190.25 C-72.17932291 189.57794525 -71.93677082 188.9058905 -71.68686867 188.21347046 C-66.91137006 174.98485131 -62.05781863 161.78579145 -57.1807251 148.5942688 C-50.21175111 129.74435551 -43.28261196 110.8807636 -36.46005249 91.97729492 C-35.65855917 89.75686067 -34.85602155 87.53680308 -34.05239868 85.31713867 C-32.95212793 82.27643255 -31.85617109 79.23421065 -30.76171875 76.19140625 C-30.43472992 75.28918839 -30.10774109 74.38697052 -29.77084351 73.45741272 C-29.47739044 72.63816818 -29.18393738 71.81892365 -28.8815918 70.97485352 C-28.62516403 70.26297379 -28.36873627 69.55109406 -28.10453796 68.81764221 C-27.46414086 67.05016468 -27.46414086 67.05016468 -27.5625 65.0625 C-26.9025 65.0625 -26.2425 65.0625 -25.5625 65.0625 C-25.315 63.825 -25.0675 62.5875 -24.8125 61.3125 C-23.50620046 55.45281349 -21.86842384 49.61112924 -19.5625 44.0625 C-18.9025 43.7325 -18.2425 43.4025 -17.5625 43.0625 C-17.13903065 41.07596317 -16.72031972 39.0883604 -16.31689453 37.09765625 C-14.8085535 31.02914632 -12.50193549 25.20010589 -10.33959961 19.33935547 C-9.49258767 17.04239898 -8.65485965 14.74220916 -7.81835938 12.44140625 C-7.28438828 10.98157536 -6.74990213 9.52193273 -6.21484375 8.0625 C-5.96379379 7.37406006 -5.71274384 6.68562012 -5.4540863 5.97631836 C-3.27199452 0.07980474 -3.27199452 0.07980474 0 0 Z M214.4375 21.0625 C214.4375 94.3225 214.4375 167.5825 214.4375 243.0625 C280.80921202 249.10586714 280.80921202 249.10586714 346.375 224.875 C370.2444898 198.57810446 369.82523928 156.7179327 368.31298828 123.31201172 C366.80968614 97.76548116 360.12353076 71.95738283 343.4375 52.0625 C342.85484375 51.32257812 342.2721875 50.58265625 341.671875 49.8203125 C326.95234524 31.94659779 304.45633262 24.73230544 282.4375 21.0625 C259.9975 21.0625 237.5575 21.0625 214.4375 21.0625 Z M-37.5625 108.0625 C-37.79148483 108.70013779 -38.02046967 109.33777557 -38.25639343 109.99473572 C-41.2507412 118.33109162 -44.24895728 126.66605227 -47.25 135 C-47.49597427 135.68308353 -47.74194855 136.36616707 -47.99537659 137.0699501 C-55.77880073 158.68099695 -63.6587434 180.25385656 -71.6244812 201.79846191 C-78.1444787 219.43750433 -84.56917249 237.10813412 -90.90924072 254.81262207 C-95.03406945 266.32972736 -99.19860968 277.829844 -103.4609375 289.296875 C-103.86014404 290.37157547 -104.25935059 291.44627594 -104.6706543 292.55354309 C-106.58444046 297.70154847 -108.50485512 302.84695855 -110.43457031 307.98901367 C-111.1153426 309.81425 -111.79601256 311.6395245 -112.4765625 313.46484375 C-112.79120453 314.29663147 -113.10584656 315.12841919 -113.43002319 315.9854126 C-115.08105699 320.40425319 -115.08105699 320.40425319 -115.5625 325.0625 C-63.4225 325.0625 -11.2825 325.0625 42.4375 325.0625 C37.0615259 309.68340226 37.0615259 309.68340226 31.640625 294.3203125 C31.16700783 292.98505272 31.16700783 292.98505272 30.68382263 291.62281799 C29.68584316 288.8107623 28.68686113 285.99906495 27.6875 283.1875 C27.34288727 282.21769196 26.99827454 281.24788391 26.64321899 280.24868774 C20.16254917 262.0198528 13.61720126 243.81355212 6.80078125 225.70703125 C5.05203649 221.03202017 3.38664432 216.32931732 1.71875 211.625 C0.88104792 209.29577959 0.02623747 206.97262305 -0.84765625 204.65673828 C-3.05118908 198.78999581 -5.16018266 192.88912127 -7.28125 186.9921875 C-7.7437856 185.70782994 -8.20639304 184.42349826 -8.66906738 183.13919067 C-10.61306997 177.74257114 -12.55585843 172.34551486 -14.49804688 166.94824219 C-17.11530289 159.6758424 -19.73700207 152.40508281 -22.36746216 145.13744736 C-23.88123728 140.95332293 -25.38675434 136.7663153 -26.88780975 132.57761192 C-27.89659867 129.76721346 -28.91144005 126.95902693 -29.92774963 124.15134048 C-30.41064306 122.81333994 -30.89101088 121.474425 -31.36875916 120.1345787 C-32.02759931 118.28801597 -32.69616554 116.444932 -33.36523438 114.60205078 C-33.74240601 113.55332794 -34.11957764 112.5046051 -34.50817871 111.42410278 C-35.32888916 108.91496418 -35.32888916 108.91496418 -37.5625 108.0625 Z M495.4375 108.0625 C491.8860186 116.35770067 488.67377675 124.72778792 485.65625 133.23046875 C485.20574735 134.4918253 484.75489591 135.75305731 484.3037262 137.01417542 C483.34479361 139.6958074 482.38745629 142.37800055 481.431427 145.06066895 C478.86845349 152.25077746 476.29242881 159.43621265 473.71484375 166.62109375 C473.45245848 167.35264805 473.1900732 168.08420235 472.91973686 168.83792496 C467.52951344 183.86032667 462.03443925 198.84261096 456.5 213.8125 C456.07079254 214.97364319 455.64158508 216.13478638 455.19937134 217.33111572 C454.56084732 219.05850983 454.56084732 219.05850983 453.90942383 220.82080078 C453.06196753 223.11359044 452.21455495 225.40639626 451.3671875 227.69921875 C450.95581039 228.81218323 450.54443329 229.92514771 450.12059021 231.07183838 C445.74922109 242.90851659 441.43141352 254.76456036 437.125 266.625 C436.77744659 267.58216919 436.42989319 268.53933838 436.07180786 269.5255127 C434.19195777 274.70387593 432.31385089 279.88286787 430.4375 285.0625 C430.84293533 285.53504715 431.24837067 286.0075943 431.66609192 286.49446106 C432.20143051 287.1186644 432.7367691 287.74286774 433.28833008 288.38598633 C433.81751541 289.00290848 434.34670074 289.61983063 434.891922 290.25544739 C444.22999054 301.17329244 450.33921371 312.15652493 457.4375 325.0625 C496.0475 325.0625 534.6575 325.0625 574.4375 325.0625 C572.22578995 316.70444619 572.22578995 316.70444619 569.53417969 308.59692383 C569.18728088 307.66056595 568.84038208 306.72420807 568.48297119 305.75947571 C568.11218445 304.77279404 567.74139771 303.78611237 567.359375 302.76953125 C566.96039001 301.69491135 566.56140503 300.62029144 566.15032959 299.5131073 C565.28642587 297.18666878 564.42057753 294.86095163 563.55297852 292.53588867 C561.17473325 286.15974211 558.81325375 279.77740186 556.453125 273.39453125 C556.20682343 272.72878208 555.96052185 272.06303291 555.70675659 271.37710953 C550.25781109 256.64254153 544.94745396 241.85925911 539.65507126 227.06788254 C531.10543237 203.17437184 522.43406253 179.33002339 513.61328125 155.53515625 C507.76706964 139.75286068 502.06568181 123.92366812 496.4375 108.0625 C496.1075 108.0625 495.7775 108.0625 495.4375 108.0625 Z " fill="#000000" transform="translate(426.5625,-0.0625)"/>
<path d="" fill="#000000" transform="translate(0,0)"/>
<path d="" fill="#000000" transform="translate(0,0)"/>
<path d="" fill="#000000" transform="translate(0,0)"/>
</svg>
